<mxfile host="Electron" agent="Mozilla/5.0 (Windows NT 10.0; Win64; x64) AppleWebKit/537.36 (KHTML, like Gecko) draw.io/28.0.6 Chrome/138.0.7204.100 Electron/37.2.3 Safari/537.36" version="28.0.6">
  <diagram name="Pagina-1" id="J4wNuyv9c-4ODhNjNzU0">
    <mxGraphModel dx="786" dy="793" grid="1" gridSize="10" guides="1" tooltips="1" connect="1" arrows="1" fold="1" page="1" pageScale="1" pageWidth="827" pageHeight="1169" math="0" shadow="0">
      <root>
        <mxCell id="0" />
        <mxCell id="1" parent="0" />
        <mxCell id="IlQ_oIKO42jYGwAs0e9v-1" value="" style="rounded=1;whiteSpace=wrap;html=1;movable=1;resizable=1;rotatable=1;deletable=1;editable=1;locked=0;connectable=1;" vertex="1" parent="1">
          <mxGeometry x="58" y="120" width="90" height="580" as="geometry" />
        </mxCell>
        <mxCell id="IlQ_oIKO42jYGwAs0e9v-2" value="&lt;font style=&quot;font-size: 18px;&quot;&gt;Source&lt;/font&gt;" style="text;html=1;align=center;verticalAlign=middle;whiteSpace=wrap;rounded=0;glass=0;strokeColor=none;movable=1;resizable=1;rotatable=1;deletable=1;editable=1;locked=0;connectable=1;" vertex="1" parent="1">
          <mxGeometry x="73" y="90" width="60" height="30" as="geometry" />
        </mxCell>
        <mxCell id="IlQ_oIKO42jYGwAs0e9v-3" value="" style="rounded=1;whiteSpace=wrap;html=1;fillColor=none;movable=1;resizable=1;rotatable=1;deletable=1;editable=1;locked=0;connectable=1;" vertex="1" parent="1">
          <mxGeometry x="189" y="120" width="450" height="580" as="geometry" />
        </mxCell>
        <mxCell id="IlQ_oIKO42jYGwAs0e9v-4" value="" style="rounded=1;whiteSpace=wrap;html=1;fillColor=none;strokeColor=#d79b00;movable=1;resizable=1;rotatable=1;deletable=1;editable=1;locked=0;connectable=1;" vertex="1" parent="1">
          <mxGeometry x="217" y="200" width="110" height="450" as="geometry" />
        </mxCell>
        <mxCell id="IlQ_oIKO42jYGwAs0e9v-5" value="" style="rounded=1;whiteSpace=wrap;html=1;fillColor=none;fontColor=#333333;strokeColor=#666666;movable=1;resizable=1;rotatable=1;deletable=1;editable=1;locked=0;connectable=1;" vertex="1" parent="1">
          <mxGeometry x="357" y="200" width="110" height="450" as="geometry" />
        </mxCell>
        <mxCell id="IlQ_oIKO42jYGwAs0e9v-6" value="" style="rounded=1;whiteSpace=wrap;html=1;fillColor=none;strokeColor=#d6b656;movable=1;resizable=1;rotatable=1;deletable=1;editable=1;locked=0;connectable=1;" vertex="1" parent="1">
          <mxGeometry x="491" y="200" width="110" height="450" as="geometry" />
        </mxCell>
        <mxCell id="IlQ_oIKO42jYGwAs0e9v-7" value="Bronze Layer" style="rounded=1;whiteSpace=wrap;html=1;fillColor=#ffe6cc;strokeColor=#d79b00;movable=1;resizable=1;rotatable=1;deletable=1;editable=1;locked=0;connectable=1;" vertex="1" parent="1">
          <mxGeometry x="212" y="170" width="120" height="20" as="geometry" />
        </mxCell>
        <mxCell id="IlQ_oIKO42jYGwAs0e9v-8" value="Silver Layer" style="rounded=1;whiteSpace=wrap;html=1;fillColor=#f5f5f5;fontColor=#333333;strokeColor=#666666;movable=1;resizable=1;rotatable=1;deletable=1;editable=1;locked=0;connectable=1;" vertex="1" parent="1">
          <mxGeometry x="352" y="170" width="120" height="20" as="geometry" />
        </mxCell>
        <mxCell id="IlQ_oIKO42jYGwAs0e9v-9" value="Gold Layer" style="rounded=1;whiteSpace=wrap;html=1;fillColor=#fff2cc;strokeColor=#d6b656;movable=1;resizable=1;rotatable=1;deletable=1;editable=1;locked=0;connectable=1;" vertex="1" parent="1">
          <mxGeometry x="487" y="170" width="120" height="20" as="geometry" />
        </mxCell>
        <mxCell id="IlQ_oIKO42jYGwAs0e9v-11" value="" style="image;aspect=fixed;html=1;points=[];align=center;fontSize=12;image=img/lib/azure2/general/File.svg;movable=1;resizable=1;rotatable=1;deletable=1;editable=1;locked=0;connectable=1;" vertex="1" parent="1">
          <mxGeometry x="86.77" y="270" width="36.53" height="45" as="geometry" />
        </mxCell>
        <mxCell id="IlQ_oIKO42jYGwAs0e9v-13" value="" style="rounded=1;whiteSpace=wrap;html=1;movable=1;resizable=1;rotatable=1;deletable=1;editable=1;locked=0;connectable=1;" vertex="1" parent="1">
          <mxGeometry x="673" y="120" width="90" height="580" as="geometry" />
        </mxCell>
        <mxCell id="IlQ_oIKO42jYGwAs0e9v-14" value="&lt;font style=&quot;font-size: 18px;&quot;&gt;Consume&lt;/font&gt;" style="text;html=1;align=center;verticalAlign=middle;whiteSpace=wrap;rounded=0;glass=0;movable=1;resizable=1;rotatable=1;deletable=1;editable=1;locked=0;connectable=1;" vertex="1" parent="1">
          <mxGeometry x="689.48" y="90" width="60" height="30" as="geometry" />
        </mxCell>
        <mxCell id="IlQ_oIKO42jYGwAs0e9v-19" value="" style="html=1;shadow=0;dashed=0;align=center;verticalAlign=middle;shape=mxgraph.arrows2.arrow;dy=0.53;dx=30;notch=0;fillColor=#dae8fc;strokeColor=#6c8ebf;movable=1;resizable=1;rotatable=1;deletable=1;editable=1;locked=0;connectable=1;" vertex="1" parent="1">
          <mxGeometry x="613" y="290" width="60" height="20" as="geometry" />
        </mxCell>
        <mxCell id="IlQ_oIKO42jYGwAs0e9v-21" value="" style="html=1;shadow=0;dashed=0;align=center;verticalAlign=middle;shape=mxgraph.arrows2.arrow;dy=0.53;dx=30;notch=0;fillColor=#dae8fc;strokeColor=#6c8ebf;movable=1;resizable=1;rotatable=1;deletable=1;editable=1;locked=0;connectable=1;" vertex="1" parent="1">
          <mxGeometry x="452" y="290" width="60" height="20" as="geometry" />
        </mxCell>
        <mxCell id="IlQ_oIKO42jYGwAs0e9v-26" value="" style="html=1;shadow=0;dashed=0;align=center;verticalAlign=middle;shape=mxgraph.arrows2.arrow;dy=0.53;dx=30;notch=0;fillColor=#dae8fc;strokeColor=#6c8ebf;movable=1;resizable=1;rotatable=1;deletable=1;editable=1;locked=0;connectable=1;" vertex="1" parent="1">
          <mxGeometry x="148" y="290" width="60" height="20" as="geometry" />
        </mxCell>
        <mxCell id="IlQ_oIKO42jYGwAs0e9v-27" value="" style="html=1;shadow=0;dashed=0;align=center;verticalAlign=middle;shape=mxgraph.arrows2.arrow;dy=0.53;dx=30;notch=0;fillColor=#dae8fc;strokeColor=#6c8ebf;movable=1;resizable=1;rotatable=1;deletable=1;editable=1;locked=0;connectable=1;" vertex="1" parent="1">
          <mxGeometry x="312" y="290" width="60" height="20" as="geometry" />
        </mxCell>
        <mxCell id="IlQ_oIKO42jYGwAs0e9v-30" value="&lt;font style=&quot;font-size: 18px;&quot;&gt;Data Warehouse&lt;/font&gt;" style="text;html=1;align=center;verticalAlign=middle;whiteSpace=wrap;rounded=0;glass=0;strokeColor=none;movable=1;resizable=1;rotatable=1;deletable=1;editable=1;locked=0;connectable=1;" vertex="1" parent="1">
          <mxGeometry x="334" y="90" width="160" height="30" as="geometry" />
        </mxCell>
        <mxCell id="IlQ_oIKO42jYGwAs0e9v-41" value="" style="endArrow=none;html=1;rounded=0;" edge="1" parent="1">
          <mxGeometry width="50" height="50" relative="1" as="geometry">
            <mxPoint x="72.99" y="349.17" as="sourcePoint" />
            <mxPoint x="132.99" y="349.17" as="targetPoint" />
          </mxGeometry>
        </mxCell>
        <mxCell id="IlQ_oIKO42jYGwAs0e9v-42" value="" style="endArrow=none;html=1;rounded=0;fillColor=#ffe6cc;strokeColor=#d79b00;" edge="1" parent="1">
          <mxGeometry width="50" height="50" relative="1" as="geometry">
            <mxPoint x="242" y="350" as="sourcePoint" />
            <mxPoint x="302" y="350" as="targetPoint" />
          </mxGeometry>
        </mxCell>
        <mxCell id="IlQ_oIKO42jYGwAs0e9v-46" value="CSV" style="text;html=1;align=center;verticalAlign=middle;whiteSpace=wrap;rounded=0;" vertex="1" parent="1">
          <mxGeometry x="72.99" y="310" width="60" height="30" as="geometry" />
        </mxCell>
        <mxCell id="IlQ_oIKO42jYGwAs0e9v-53" value="" style="html=1;verticalLabelPosition=bottom;align=center;labelBackgroundColor=#ffffff;verticalAlign=top;strokeWidth=2;strokeColor=#d79b00;shadow=0;dashed=0;shape=mxgraph.ios7.icons.data;fillColor=#ffe6cc;" vertex="1" parent="1">
          <mxGeometry x="250" y="260.9" width="44" height="59.1" as="geometry" />
        </mxCell>
        <mxCell id="IlQ_oIKO42jYGwAs0e9v-54" value="" style="html=1;verticalLabelPosition=bottom;align=center;labelBackgroundColor=#ffffff;verticalAlign=top;strokeWidth=2;strokeColor=#666666;shadow=0;dashed=0;shape=mxgraph.ios7.icons.data;fillColor=#f5f5f5;fontColor=#333333;" vertex="1" parent="1">
          <mxGeometry x="390" y="262.95" width="44" height="59.1" as="geometry" />
        </mxCell>
        <mxCell id="IlQ_oIKO42jYGwAs0e9v-55" value="" style="html=1;verticalLabelPosition=bottom;align=center;labelBackgroundColor=#ffffff;verticalAlign=top;strokeWidth=2;strokeColor=#d6b656;shadow=0;dashed=0;shape=mxgraph.ios7.icons.data;fillColor=#fff2cc;" vertex="1" parent="1">
          <mxGeometry x="525" y="260.9" width="44" height="59.1" as="geometry" />
        </mxCell>
        <mxCell id="IlQ_oIKO42jYGwAs0e9v-59" value="&lt;font style=&quot;font-size: 8px;&quot;&gt;&lt;b&gt;Object Type&lt;/b&gt;: CSV File&lt;/font&gt;" style="text;html=1;align=center;verticalAlign=middle;whiteSpace=wrap;rounded=0;" vertex="1" parent="1">
          <mxGeometry x="57.989999999999995" y="360" width="90" height="40" as="geometry" />
        </mxCell>
        <mxCell id="IlQ_oIKO42jYGwAs0e9v-62" value="&lt;div style=&quot;&quot;&gt;&lt;span style=&quot;background-color: transparent; color: light-dark(rgb(0, 0, 0), rgb(255, 255, 255));&quot;&gt;&lt;font style=&quot;font-size: 8px;&quot;&gt;&lt;b style=&quot;&quot;&gt;Object Type&lt;/b&gt;: Table&lt;/font&gt;&lt;/span&gt;&lt;/div&gt;&lt;div style=&quot;&quot;&gt;&lt;span style=&quot;background-color: transparent; color: light-dark(rgb(0, 0, 0), rgb(255, 255, 255));&quot;&gt;&lt;font style=&quot;font-size: 8px;&quot;&gt;&lt;br&gt;&lt;/font&gt;&lt;/span&gt;&lt;/div&gt;&lt;div&gt;&lt;div style=&quot;&quot;&gt;&lt;span style=&quot;background-color: transparent; color: light-dark(rgb(0, 0, 0), rgb(255, 255, 255));&quot;&gt;&lt;font style=&quot;font-size: 8px;&quot;&gt;&lt;b&gt;Load&lt;/b&gt;:&lt;/font&gt;&lt;/span&gt;&lt;/div&gt;&lt;div&gt;&lt;ul&gt;&lt;li style=&quot;&quot;&gt;&lt;span style=&quot;background-color: transparent; color: light-dark(rgb(0, 0, 0), rgb(255, 255, 255));&quot;&gt;&lt;font style=&quot;font-size: 8px;&quot;&gt;Batch Processing&lt;/font&gt;&lt;/span&gt;&lt;/li&gt;&lt;li style=&quot;&quot;&gt;&lt;span style=&quot;background-color: transparent; color: light-dark(rgb(0, 0, 0), rgb(255, 255, 255));&quot;&gt;&lt;font style=&quot;font-size: 8px;&quot;&gt;Full Load&lt;/font&gt;&lt;/span&gt;&lt;/li&gt;&lt;li style=&quot;&quot;&gt;&lt;span style=&quot;background-color: transparent; color: light-dark(rgb(0, 0, 0), rgb(255, 255, 255));&quot;&gt;&lt;font style=&quot;font-size: 8px;&quot;&gt;Truncate &amp;amp; Insert&lt;/font&gt;&lt;/span&gt;&lt;/li&gt;&lt;/ul&gt;&lt;div&gt;&lt;font style=&quot;font-size: 8px;&quot;&gt;No &lt;b&gt;Transformation&lt;/b&gt;&lt;/font&gt;&lt;/div&gt;&lt;/div&gt;&lt;/div&gt;&lt;div&gt;&lt;font style=&quot;font-size: 8px;&quot;&gt;&lt;b&gt;&lt;br&gt;&lt;/b&gt;&lt;/font&gt;&lt;/div&gt;&lt;div&gt;&lt;font style=&quot;font-size: 8px;&quot;&gt;&lt;b&gt;Data Model&lt;/b&gt;: None&lt;/font&gt;&lt;/div&gt;" style="text;html=1;align=left;verticalAlign=middle;whiteSpace=wrap;rounded=0;" vertex="1" parent="1">
          <mxGeometry x="222" y="350" width="110" height="168" as="geometry" />
        </mxCell>
        <mxCell id="IlQ_oIKO42jYGwAs0e9v-63" value="Raw Data" style="text;html=1;align=center;verticalAlign=middle;whiteSpace=wrap;rounded=0;" vertex="1" parent="1">
          <mxGeometry x="242" y="315" width="60" height="30" as="geometry" />
        </mxCell>
        <mxCell id="IlQ_oIKO42jYGwAs0e9v-64" style="edgeStyle=orthogonalEdgeStyle;rounded=0;orthogonalLoop=1;jettySize=auto;html=1;exitX=1;exitY=0.75;exitDx=0;exitDy=0;entryX=0.833;entryY=0.767;entryDx=0;entryDy=0;entryPerimeter=0;" edge="1" parent="1" source="IlQ_oIKO42jYGwAs0e9v-63" target="IlQ_oIKO42jYGwAs0e9v-63">
          <mxGeometry relative="1" as="geometry" />
        </mxCell>
        <mxCell id="IlQ_oIKO42jYGwAs0e9v-65" value="Cleaned Data" style="text;html=1;align=center;verticalAlign=middle;whiteSpace=wrap;rounded=0;" vertex="1" parent="1">
          <mxGeometry x="359.5" y="320" width="105" height="30" as="geometry" />
        </mxCell>
        <mxCell id="IlQ_oIKO42jYGwAs0e9v-66" value="Business Data" style="text;html=1;align=center;verticalAlign=middle;whiteSpace=wrap;rounded=0;" vertex="1" parent="1">
          <mxGeometry x="499.5" y="322.05" width="105" height="30" as="geometry" />
        </mxCell>
        <mxCell id="IlQ_oIKO42jYGwAs0e9v-68" value="&lt;div style=&quot;&quot;&gt;&lt;span style=&quot;background-color: transparent; color: light-dark(rgb(0, 0, 0), rgb(255, 255, 255));&quot;&gt;&lt;font style=&quot;font-size: 8px;&quot;&gt;&lt;b style=&quot;&quot;&gt;Object Type&lt;/b&gt;: Table&lt;/font&gt;&lt;/span&gt;&lt;/div&gt;&lt;div style=&quot;&quot;&gt;&lt;span style=&quot;background-color: transparent; color: light-dark(rgb(0, 0, 0), rgb(255, 255, 255));&quot;&gt;&lt;font style=&quot;font-size: 8px;&quot;&gt;&lt;br&gt;&lt;/font&gt;&lt;/span&gt;&lt;/div&gt;&lt;div&gt;&lt;div style=&quot;&quot;&gt;&lt;span style=&quot;background-color: transparent; color: light-dark(rgb(0, 0, 0), rgb(255, 255, 255));&quot;&gt;&lt;font style=&quot;font-size: 8px;&quot;&gt;&lt;b&gt;Load&lt;/b&gt;:&lt;/font&gt;&lt;/span&gt;&lt;/div&gt;&lt;div&gt;&lt;ul&gt;&lt;li style=&quot;&quot;&gt;&lt;span style=&quot;background-color: transparent; color: light-dark(rgb(0, 0, 0), rgb(255, 255, 255));&quot;&gt;&lt;font style=&quot;font-size: 8px;&quot;&gt;Batch Processing&lt;/font&gt;&lt;/span&gt;&lt;/li&gt;&lt;li style=&quot;&quot;&gt;&lt;span style=&quot;background-color: transparent; color: light-dark(rgb(0, 0, 0), rgb(255, 255, 255));&quot;&gt;&lt;font style=&quot;font-size: 8px;&quot;&gt;Full Load&lt;/font&gt;&lt;/span&gt;&lt;/li&gt;&lt;li style=&quot;&quot;&gt;&lt;span style=&quot;background-color: transparent; color: light-dark(rgb(0, 0, 0), rgb(255, 255, 255));&quot;&gt;&lt;font style=&quot;font-size: 8px;&quot;&gt;Truncate &amp;amp; Insert&lt;/font&gt;&lt;/span&gt;&lt;/li&gt;&lt;/ul&gt;&lt;div&gt;&lt;div&gt;&lt;font style=&quot;font-size: 8px;&quot;&gt;&lt;b&gt;Transformation:&lt;/b&gt;&lt;/font&gt;&lt;/div&gt;&lt;div&gt;&lt;ul&gt;&lt;li&gt;&lt;font style=&quot;font-size: 8px;&quot;&gt;Data Cleansing&lt;/font&gt;&lt;/li&gt;&lt;li&gt;&lt;font style=&quot;font-size: 8px;&quot;&gt;Data Standardization&lt;/font&gt;&lt;/li&gt;&lt;li&gt;&lt;font style=&quot;font-size: 8px;&quot;&gt;Data Normalization&lt;/font&gt;&lt;/li&gt;&lt;li&gt;&lt;font style=&quot;font-size: 8px;&quot;&gt;Derived Columns&lt;/font&gt;&lt;/li&gt;&lt;li&gt;&lt;font style=&quot;font-size: 8px;&quot;&gt;Data Enrichment&lt;/font&gt;&lt;/li&gt;&lt;/ul&gt;&lt;/div&gt;&lt;/div&gt;&lt;/div&gt;&lt;/div&gt;&lt;div&gt;&lt;font style=&quot;font-size: 8px;&quot;&gt;&lt;b&gt;Data Model&lt;/b&gt;: None&lt;/font&gt;&lt;/div&gt;" style="text;html=1;align=left;verticalAlign=middle;whiteSpace=wrap;rounded=0;" vertex="1" parent="1">
          <mxGeometry x="362" y="360" width="110" height="260" as="geometry" />
        </mxCell>
        <mxCell id="IlQ_oIKO42jYGwAs0e9v-72" value="" style="endArrow=none;html=1;rounded=0;fillColor=#f5f5f5;strokeColor=#666666;" edge="1" parent="1">
          <mxGeometry width="50" height="50" relative="1" as="geometry">
            <mxPoint x="387" y="350" as="sourcePoint" />
            <mxPoint x="447" y="350" as="targetPoint" />
          </mxGeometry>
        </mxCell>
        <mxCell id="IlQ_oIKO42jYGwAs0e9v-70" value="&lt;div style=&quot;&quot;&gt;&lt;span style=&quot;background-color: transparent; color: light-dark(rgb(0, 0, 0), rgb(255, 255, 255));&quot;&gt;&lt;font style=&quot;font-size: 8px;&quot;&gt;&lt;b style=&quot;&quot;&gt;Object Type&lt;/b&gt;: Table&lt;/font&gt;&lt;/span&gt;&lt;/div&gt;&lt;div style=&quot;&quot;&gt;&lt;span style=&quot;background-color: transparent; color: light-dark(rgb(0, 0, 0), rgb(255, 255, 255));&quot;&gt;&lt;font style=&quot;font-size: 8px;&quot;&gt;&lt;br&gt;&lt;/font&gt;&lt;/span&gt;&lt;/div&gt;&lt;div&gt;&lt;div style=&quot;&quot;&gt;&lt;span style=&quot;background-color: transparent; color: light-dark(rgb(0, 0, 0), rgb(255, 255, 255));&quot;&gt;&lt;font style=&quot;font-size: 8px;&quot;&gt;&amp;nbsp;No&amp;nbsp;&lt;b&gt;Load&lt;/b&gt;&lt;/font&gt;&lt;/span&gt;&lt;/div&gt;&lt;div style=&quot;&quot;&gt;&lt;span style=&quot;background-color: transparent; color: light-dark(rgb(0, 0, 0), rgb(255, 255, 255));&quot;&gt;&lt;font style=&quot;font-size: 8px;&quot;&gt;&lt;b&gt;&lt;br&gt;&lt;/b&gt;&lt;/font&gt;&lt;/span&gt;&lt;/div&gt;&lt;div&gt;&lt;div&gt;&lt;font style=&quot;font-size: 8px;&quot;&gt;&lt;b&gt;Transformation:&lt;/b&gt;&lt;/font&gt;&lt;/div&gt;&lt;/div&gt;&lt;/div&gt;&lt;div&gt;&lt;ul&gt;&lt;li&gt;&lt;font style=&quot;font-size: 8px;&quot;&gt;Data Integration&lt;/font&gt;&lt;/li&gt;&lt;li&gt;&lt;font style=&quot;font-size: 8px;&quot;&gt;Aggregations&lt;/font&gt;&lt;/li&gt;&lt;li&gt;&lt;font style=&quot;font-size: 8px;&quot;&gt;Business Logics&lt;/font&gt;&lt;/li&gt;&lt;/ul&gt;&lt;/div&gt;&lt;div&gt;&lt;font style=&quot;font-size: 8px;&quot;&gt;&lt;b&gt;Data Model&lt;/b&gt;:&amp;nbsp;&lt;/font&gt;&lt;/div&gt;&lt;div&gt;&lt;ul&gt;&lt;li&gt;&lt;font style=&quot;font-size: 8px;&quot;&gt;Star Schema&lt;/font&gt;&lt;/li&gt;&lt;li&gt;&lt;font style=&quot;font-size: 8px;&quot;&gt;Aggregated Table&lt;/font&gt;&lt;/li&gt;&lt;/ul&gt;&lt;/div&gt;" style="text;html=1;align=left;verticalAlign=middle;whiteSpace=wrap;rounded=0;" vertex="1" parent="1">
          <mxGeometry x="497" y="360" width="110" height="210" as="geometry" />
        </mxCell>
        <mxCell id="IlQ_oIKO42jYGwAs0e9v-78" value="" style="endArrow=none;html=1;rounded=0;fillColor=#fff2cc;strokeColor=#d6b656;" edge="1" parent="1">
          <mxGeometry width="50" height="50" relative="1" as="geometry">
            <mxPoint x="517" y="350" as="sourcePoint" />
            <mxPoint x="577" y="350" as="targetPoint" />
          </mxGeometry>
        </mxCell>
        <mxCell id="IlQ_oIKO42jYGwAs0e9v-80" value="" style="shape=image;verticalLabelPosition=bottom;labelBackgroundColor=default;verticalAlign=top;aspect=fixed;imageAspect=0;image=data:image/png,iVBORw0KGgoAAAANSUhEUgAAAgAAAAIACAYAAAD0eNT6AAAQAElEQVR4AeydB3xN1x/A730vL3sSEolMIwlihMiQVUoVRSlFrdYo3ehftUZRSmm11aWoDlWrOqzWzpaITcSIEIks2Xu88f8dpY3IePee+/Yvn/N7d53zO7/zvS/v/O5ZV8TgHxJAAkgACSABJGBwBNABMLhbjgVGAkgACSABJMAw6ADgtwAJIAEkgASQgAESQAfAAG86FhkJIAEkgAQMmwApPToAhAIKEkACSAAJIAEDI4AOgIHdcCwuEkACSAAJGDqBf8qPDsA/HPATCSABJIAEkIBBEUAHwKBuNxYWCSABJIAEDJ3Aw/KjA/CQBG6RABJAAkgACRgQAXQADOhmY1GRABJAAkjA0An8V350AP5jgXtIAAkgASSABAyGADoABnOrsaBIAAkgASRg6ATqlx8dgPo0cB8JIAEkgASQgIEQQAfAQG40FhMJIAEkgAQMncCj5UcH4FEeeIQEkAASQAJIwCAIoANgELcZC4kEkAASQAKGTqBh+dEBaEgEj5EAEkACSAAJGAABdAAM4CZjEZEAEkACSMDQCTxefnQAHmeCZ5AAEkACSAAJ6D0BdAD0/hZjAZEAEkACSMDQCTRWfnQAGqOC55AAEkACSAAJ6DkBdAD0/AZj8ZAAEkACSMDQCTRefnQAGueCZ5EAEkACSAAJ6DUBdAD0+vZi4ZAAEkACSMDQCTRVfnQAmiKD55EAEkACSAAJ6DEBdAD0+OZi0ZAAEkACSMDQCTRdfnQAmmaDV5AAEkACSAAJ6C0BdAD079a+AkU60oLshuu7QLaBfAuyDmQhyCyQ0SAhIO1B8PsBEDAgASSABHSVQHN24w98c3R081pnMPvJFuQ5uD4GZALITJA5ICtAvgH5FSQGJAOkCuQGyCGQT0CmgviBmIBgQAJIAAkgAR0mgA6ADt88NZhuDHl0BBkEMhfke5AzIOUgp0E+BxkL4gyCAQkgASSABLSKQPPGoAPQPB+82jgBIzjdG+QNkJ0gmSA3QUh3AmlZsIR9DEgACSABJKDFBNAB0OKbo2OmeYK9pDuBjC3Ihf3fQJ4HsQDBgASQABJAAmom0FJ26AC0RAiv8yFgDomeBdkBkgdCWgmGwVYMggEJqJqAKWTgCkKcUhSGQQb6wUDwllV0AOBXAoNKCRBngIwT2Ae53AZZBuIGggEJCEmADH79GhTeASGDV9NhS7qlUBgGGegHgzL4TheBkAeq/rBtIbR8GR2AlhlhDOEIkKmFS0BdGsjvIGS6IWwwIAHeBMhv2HJInQwyG8QFBAMS0FcCtlAw8kB1DLZ7QKxAeAfyz8M7MSZEAjwJkO/dSEhLphuehC1Ze4Ccg10MSEBpAmQw6i8QezEI2YcNBiRgMARGQUmjQBrtGoDzLQb80W0REUZQMYFA0E/WHjgPWzJugIUtBiTQEgFS4ZOFrMhA05bi4nUkoK8EekHByPotsOEe0AHgzgxTqIaAL6glMweSYDsYBAMSaIrAw8qfNIU2FQfPIwFDIfACFNQfpF5QbhcdAOU4YSz1ESDrC/wF2ZHljLvBFgMSqE+AzCT5EU5g5Q8QMCABIEBaTckqrbDLLaADwI0XxlYfAbKc8VnI7jMQMvAFNhgMnAB58id9/mQJawNHgcVHAo8QeGRWwCNXmjlAB6AZOHhJ4wQkYMGbIFdAyPgA2GAwUAKk8id9/vjkb6BfACx2swTIDKtmIzR2ER2AxqjgOW0j0A4MIuMDyFoCvL7okB6D7hLAZn/dvXdouXoI1FtxVfkM0QFQnhXG1DwBsprgZTADm4ABgoEEUvn/BGXFew4QMCABIQmgAyAkTT3Q1cHKLNPR3OSeFhfFBmwjTcHfwZb3/FdIi0H7CZBmf+zz1/77hBZqEQEupqADwIWWAcT9MsTrZuq4oDZlL0YUZ00MuRw3onfM1yHeUeM6OCTZGBuVahGCl8CWcyA9QTDoHwFS+RNHD/v89e/eYom0hAA6AFpyI7TNDJZlbK2Njbr1aG0VOrmzY/jmcB//uxNDLPKnhN6MHO4XM6uL88lWppJCDdvdEfInKwkSZwB2MegJAdLsj1P99ORmYjHUSYBbXugAcONl6LHFpmJxhz721qEfB3YKujMh2Ja0EqwL6hTlammarSE45M1vpDvgS8jfGASDbhMgT/7Y7K/b9xCt1xEC6ADoyI3STjNZEWklmOnjHH5lbIADOAMXPg7qFO1kYZKrAXtfhTyPg9iDYNBNAvjkr5v3Da3WEgJczUAHgCsxjN8EgfvOQI9ZPs5h158PbHNlbOCZEe5tLjURWVWn+4HiaBAPEAy6RUDjT/6Ojo55HTp0yOiAggw08B3QxL8rOgCaoK73ebIi6BLova1/V9/cSaHXFvt5JJqKRbVqKrYP5EPGBfBaGxvSYlA/AVL5a3zA38FDh+7ExMW5oCADTXwH6P/tuGtAB4A7M0zBgYCFROz1Tk+3gNzJoUWfBnWKMhGLajgk5xvVARIeAwkHwaDdBLSi8tduRGgdElANAXQAVMMVtTYgIGZZhxk+zuF5k0MLlvX2jIFjWYMoQh9agcJDIMNBMGgnAezz1877glbpIAE+JqMDwIcavzRkqUY3SNoHZDDICyAzH8j/YPuOEuIIcXQ6QMXvNK+Ha2jOpJDb07ydLqi4MCagfzfICBAM2kWAPPnjaH/tuidojYERQAdA2BtuDupI3/N02H4M8ivIGZACkHKQ2yBJIOR1tz/D9tsHsga2q5UQvVkH38xI3OHz4M49ro8LSnKzNM2CsqsqkKmBO0H5UyAYtIMAqfw13uevHSjQCiQgBAF+OtAB4MeNpCLNl71g5zUQ8iRzHbZlIKdANoHMAxkN4gfSCgRDIwSczE38L48NsFoT2DFOxDKKRqIIcYq0BJCXCYUJoQx1UBHAyp8KHyZGAsIRQAeAG0sviP4WyN8gRSBnQb4AGQ/SCQR5AgSugWVYq1e6tO+XPiHkso+dxR2u6ZWMT1pn9kNc0gUDGwwaIKCyyt+jQ4fbvr16XdVAmTBLJKBxAnwNwAqreXKETyhEWQ+SBkJ+YD6FLWlOtoItBgEJ2JkY+SY928eeDBIUUG19VeSe7YMT7iAY1EtAZZW/u6fn7e937zJt5+REutnUWyrMDQnoMAFSwemw+SozvS9oJhU9eRolC8u8Dse4uAxAUH1gzckgwcRn/U+aG4mrVJAfGUh5APTagmBQDwGVVv4//LrbVCwWk/uqntJgLkhAqwjwNwYdgP/YkQqB9OeTkemJcJo09TvDFoMGCHS1swi6PSH4Ticb8wwVZN8FdO4BkYBgUC0BrPxVyxe1IwHeBNABYJhuQG8LCBmJTvrzu8M+Bi0gAC0AXmdH+1tO6OBIZk4IbVF/ULgWBIPqCGDlrzq2qBkJ3CdA82HIDkAIgCP9wRdh+yKIGQgGLSPAMqzdxnBvv+X+njEqMO1N0DkFBIPwBMgsmR9B7VgQQQPp88dmf0GRojIDJWCIDgBZhIdM1SMVyjC47ywIBu0mIJ7r6xq6fUA3ssa/0JZ+BQp9QTAIR4A8+ZOpsROEU/mPJqz8/+GAn0jgHwJ0n4bkAEQAqlgQsgiPP2wx6BiBZ9zsg/5+umeswOsFkBUayUJBZJqgjhHRSnNJ5a+SRX6w8tfK+41G6TABQ3AAOsP9IU39J2BLXhcLGwy6SiCknW1I/Mg+8UYiVipgGcgbBD8RUJ+hqsLK31DvPJZbIwRoM9VnB8AS4CwFIX38pKkfdjHoA4Fudpb9To7skwgtAXIByzMLdOGLgwACz0D6/H+AtNjnDxAwIAFdIKCvDsAYgH8D5H0QExAMekbAx9ai34HBPYUeE7AZMLUBwcCNAHnyJ33+5AVX3FK2EBub/VsAhJcNmAB90fXNASCLgZC3v+0CNGQfNhj0lUBoO9t+m0K9IwUsH6n81wmozxBU4ZO/IdxlLKNeEtAnB2AS3CGyVO9zsMVgIATGd3IMF3jp4ImA7mkQDC0TMIIo+OQPEDAgAXUTECI/fXAAyAp+2wHGTyA2IBgMiwA7r4dr8GjPtuTFTEKV/BtQRMaQwAZDEwRI5Y+j/ZuAg6eRgC4Q0HUHgCzmQ5buHac1sFlWwbh3ymDGzkpgP94Vye5LOcnGF6ew52pLGL/QFK2xU78MEf8Q4ePR0dqMrOYoRMncQMm7IBgaJ4CVf+Nc8CwSUBMBYbLRZQdgJiA4DuIKorkggi7Q3mFZzMIvT7EHU8+wZ2uK2T+uuLDvfRHIPPlsBOPSMYgxt/BhWBZbJ1R4l1iGtYsf2afMTCwS6gVCb4O5HUEwPEoAvvAMjvZn8A8J6D4BXXQAyIItPwP6b0E08zIXS+syZtqCOPb3i4ns6cpi9rtjTuyYl/syTm69oaK3A7swaIAAeXfAX0N7nhYoa2PQsxoEw38EyJM/9vn/xwP3kIBGCAiVqa45AOTtfHFQeMGnG4HO5oNIXMcMGpvA/nYhho0tYNnXP+jHePgEMCIRGYPQfFq8qjYCfeytQxf0dCMrPgqR52hQEgaCgWFI5Y99/vhNQAJ6RECkQ2XpAbaS1/T2hK36gl/oFfb7qCh40i9l12wLZDy7hELmOEAMIGhrWOjn7ifgeIAV2lpONdqFlb8aYWNWSKB5AsJd1RUHgLzAh7y8h7QACFf6pjUpmPBhCeyxzHh2y/EuTK/gcHjSb910dLyiTQRYhjU/PLRXHiuMUcThGyiMKp3UgpW/Tt42NBoJtExAFxyA56EYe0GsQFQbRCI5M3JqEhtfmMJ+/nsg09ohWLUZonZVEWhrZtxzvnBdASvBToH8CdCkOwEH/OnOvUJLDYSAkMXUdgfgRSgs6XdU7WA/UvG/vCiWTSy/yy7d5M+YW3WBfDHoOIFFvdy7t7cwvSdAMfxBh6G1ApAnfxzwBzceAxLQVwLa7AC8CtC/AyFPIbBRUegTfpGNuZfMzn4/hJFIXFSUC6rVAAGWZa3/GtLjpkBZk2mBAqnSejWk8ieON77YR+tvFRpoWASELa22OgDkyf8LKKrqml0dXHLZn+Nj2M1HuzEW1r6QFwY9JOBhZRY41LX1JQGKRloAegmgR9tVEIcb5/lr+11C+5CAAAS00QEga/qTt7KppvIXG0mZD7ZEsn/ftGS6+YcCQ21kAGZhEIrApjAfMXyZFALomyOADm1WQZ78sdlfm+8Q2mbQBIQuvLZVfmTe9RYopGrscu2QzkZmJ7PPTIpgWNYC8sFgAASsjY26TPNxJlNIaUtLBqSSNwbS6tHG9KTyx2Z/bbwzaBMSUBEB1VS0/IwNgWRkhT/yQwS7Aofxr51k/0yxZaxsyXoCAitHddpOYE3fDo4SEVtHaSdZHXAypQ5tTI7N/tp4V9AmJPAIAeEPtMUB6ARF+wPEFETYYGVbxP5xOYZ959MgeOrH9fiFpasz2ozFIvfFvT0SBDB4OuiAHgX41I9AHG5s9tePe4mlQAKcCGiDA2APFh8EEX6hnV7BV6HJv4px9yJ9/ZAFBkMm8FoXmEeoLwAAEABJREFUFw8xy8opGXhD+hAQfQik8sdmf324k1gGvSegigJq2gEgTY/kB0j4t64NnXCa3RLZnhEbOakCHOrUPQLGYrb9pE6OQrwsaKLulf4xi8n/Ho72fwwLnkAChkNA0w7AKkA9CETY8N76E+zKH/2gyR/X7BeWrM5rW9rHk/Tj05ZjFChQ7eJUkIGKwybQL/hLtdw9PW//8OtuU7FY7Aj6MSABJCAIAdUo0aQDMAaKJOziKmIjKftTTCQ7dvYToFuTZYPsMWgjAXtTSc++baxvUNpGuq36U+rQZHIyjoGstSGoDVj5C4oTlSEBlRPQVCVJmvzJKn/CDaYyMa1m/047z3QPjFA5NcxApwl82q9zrgAFIFMCBVCjdhXmkOMHIIKGVvb2+V//+EOpQi6vk9bVZWhCKirKdb1VRtB7gsr0h4CqSqIJB4AMPCLT/YR7uY/EuIbdd/UC06ZdH1WBQr36Q6BHK8s+1hKjcsoSDYP0mvj/gWypwlOQWvDm+cL8fPshoWHdn+jj76IpiYuMwim+cHMxIAFlCWjiB+x9MC4ARJggMa6Fyv8809ZZOJ3CWIZatJeA6XQfpwuU5pEFgXpT6tBEcmwh0wR1zBMJ8CaguoTqdgCCoSjvgggTROI69veLSYyjC1b+whA1GC0zfZyFGAz4tA4Cw1kxOnjT0GQkoAoC6nQATKAApN+fTD+CXcogEsvYPy6fYdp36EepCZMbIIH2FiY9W5lIiimLrosOgBllmTE5EkACaiSgyqzU6QAshoKQRVRgQx/Ybw/HMq4dA+k1oQYDJSB5pWv7y5Rl94f0wo1lAWUYkAASQALqIqAuB6A7FGg+iDBhxqIYxj8sXBhlqMVQCUz1cqR9GiatWdj9ZKhfICw3ElA5AdVmoA4HgEz1+xqKIQGhD0GDLrKvvt+XXhFqMHQCjmYmXU3FohpKDvqyLDAlBkyuKgJyufxe6o0b8SeOH4/esX17FAo9gz179kQlJCRE5+bmnoH7Vg1ikEEdDgCZLy1MP72zRxb71d52cKfIeALYYEACVARMw9vZXqPSwDDCfLcpjcDk+kegpqbm5ty5c5Nc27dvHRYaGvzChAlhc+fMCUehZ/D6q6+Gjxo5MqxXjx69vTp1khKHQKFQVGjbt0jV9qjaASBNrB8JUggTsyp2z/kyRiQm068EUYlKkMC4jg5FlBTIOADSykWpBpNrmoC5ubnwbyPlWai0W7cSfLy8nHb88os/tACo+neap5X6kaysrMySOASDBw3KkUqlGfpRKuVKoeovFlnq11U5U5qPxX65L4kxNfdqPhZeRQLcCES0s7PmluKx2OQV04J8xx/TjCfURoBlWYWlhUVbtWXYTEb38vLORISG9qmuriYPUM3ExEtCErh06VKHJwcMkCkYhnZ2ECPMn+q1qNIBaA3mEwcANpQhZPBFxj8c+1opMWLyxwm0MZN4mYhFtY9f4XSGDHLllAAjaxcBf3//qyKRSBscgIqnBg1ygSdRsmKqdkEyAGuuX7vm/tm6dZcMoKj3i6hKB+B/kAPt0xXDmFmWs5/9Tp6yVGkrmIrBMAmw5v0cbG5Qlh0dAEqAmk7+4apV+Zq2geQfGxNzOicnRxscEWKOQcq6Tz4JBgfsrqYLr478VVWpOoDxr4FQB/a7Y+cZIyM3akWoAAk0QSDE0ZZ2HEDXJlTjaR0g0H/AgAtdunYlq5Rq3Nqvv/mmlcaNMHADZDKZOOnUqVRDwKAqB4A8/VtQAxw2MYnp4odN/9QgUUFzBPq0tZI1d12Jax5KxMEoWkigS5cuN3/aupUsj0zWdNC4hWeSkvC7pPG7wDBxcXEa/j6oB4IqHADSXD+D2nzyhr+lG7EpjBokKmiJgJetBa2zij/aLUHWsutk0N+rr70Wd+TYsTbQ968tM4tqyYh0LUNlkOZkZWUJ8a4QrWenCgeAVP70ff/vfpHAGEmw6V/rv0K6b2BbU2PSZUVTEOKomtMo0JW0jo6OeR06dMjooIPS2cvr9gBo7v/0s88ib6alXV+4aFE/cATof6uEu3nG1tbWZcKpQ018CTg5O9MuEMY36/vp1PUhtANAVvt7g9p429aF7LMv4sAqapCoQBkCEhHjbG4krlImbhNxyDoABuGsHvjrr/SYuDgXXZTIqCj3rdu29Xh+3LgIUzMzrZxS3MffP62J7xieViOBkH795GrMTmNZCe0APAslcQGhCuyney4zLGtHpQQT8yKwIeWu9dYbOVGGJbkxJmKW1uOnbUXgdb8wkX4RePXVV4v1q0S6VxojIyMpOGKdNGe5+nIW2gGYSW16p663mV79gqj1oAJeBP68fa/X7Jir4YYmRTVSW17A/ktE1r347wj3kAAPAkHBwf7tnJxyeCTFJAIRmP/OO/HgBJCBoQJp1F41QjoAHaCY/UGoArvu12xQQLoSYIMBCegMAXQAdOZWabWh5keOHr0nkUjqtNpKPTXO29s77bXXXuuhyeKpM28hHYBpYDjpC4UNz+DaMYNx6Yhv+uOJD5NplIC9RnPHzPWGQKtWrXxjYmPPmJubG9zLaTR5E3v6+V07fPSoCXQ/22jSDnXmLZQDQPRMpjWcXfLtLdBhEPMvoZwY9IuAlX4VB0ujSQKubm6BV1JS7k158cWTYrGYdp0KTRZF6/O2sbEp2bhpU+TBgwddjIyMnDVrsHpzJxW3EDn2AyV04CxtSpk+ob1ADwYkoIsETHTRaLRZewkYm5i4r1q1Kig9I6MkLiHh5K7du6O2btuGIhCDP/fti7qYnHwu5do1s2HPPBMB3wSDmMoL5fw3COUAjPtXI9+duWvOMQyLT1EM/ukoAWMdtRvN1nICIpGolYe7e1BIaGj4gAEDUARi4O/vH27funUvuP1a878Ltqg1COEAkCb70VRWi42k7IhJBjHtgooTJtZmAtgCoM13B21DAkjgMQJCOABkyh7dHOgRU84wYolBTLt47A7gCX0hgA6AvtxJLAcS0AgB9WcqhAMwhNZsdvIcHORCCxHTIwEkgASQABLgQEAIB+BpDvk9HtXUvJJx62ww8y4fB4BnkAASQAJIwNAJaKL8tA6AIxhNV3mPmnaBYVnat7GBGRiQABJAAkgACSABZQnQOgADICOqxX/YCa/R2gAmYEACSAAJIAEkoKsENGM3beUbSmW2pXU5094T3/pHBRETIwEkgASQABLgToDWASAzALjn+jDF0Bcuw64ZCAYkgASQABJAAgZJQFOFpnEAyHrJ3WgMZweNqaFJj2mRABJAAkgACSABfgRoHADy0h6a9Azj40cGEfKzHFM1RWAfXFiAwqibwS5gjgEJIAEkwJGA5qLTVOA9qcy2tCljzC06UunAxI0ROAYnP0Jh1M1gPzDHgASQABLQGQI0DoAvVSnDhlyD9GQZYdhgQAJIAAkgASRgeAQ0WWIaB4Bq9D47aGy5JguOeSMBJIAEkAASMGQCfB0AI4DmDcI/9Ayy5Z8YUyIBJIAEkAAS0HUCmrWfrwPQHsyme/mJjZ0r6MCABJAAEkACSAAJaIAAXwfAg8rWtk55DCtqRaUDEyMBJIAEkAAS0GECmjadrwPgTmW4b9+7VOkxMRJAAkgACSABJEBFQDMOgHevCiqrMTESQAJIAAkgAZ0moHnj+ToA7WhMZz19ZDTpDTgtWXzpSSg/CsNwYUDGrAA2DEgACSABJPCQAF8HwP6hAl5b1w44/58XOOYrSHYEheHK4BlghgEJIAEkoDUEtMEQvg5Aayrj7drgC4CoAGJiJIAEkAASQAJ0BDTjAJhbmtOZjamRABIwdAJyuTy/qqrqRkVlZQoKMuD4Hbgqk8ly4H+oDkQDQTuy5OsA0C3iIzG11I7ioxVIAAnoEgGo9PN++vHH6MC+fbPaOznZd/Dw6NTJ09MHBRlw/A54uzg7O3p16lSzZNGihPLy8hRd+j8Qyla+DgDdIkBGRhZCFUCH9EiZ4nzs+tChG4amaheBtJs3T8IPtuWCd94Ju3PnjpN2WYfW6CKBsrIyy82bNwfC98p7y3ffRUMZpCAqD9qSAV8HwJiyAHQOBGXmGkiuUHz7QSKTlkK3foIGDMcskYA2ELicnBwXGhISWFFRgd2H2nBD9MwGhULBLlq4MGzp++8nQdEUIAYRNOMAsKzEIOg+KKTijx+imG+W93twiBskgAQ4EKiuqUkdOniwP/mR5pAMoyIBzgQ2fvtt0KnExBjOCTkl0J7ImnEAGIa8TEh7KKjSksTjUczSGRGqzAJ1t0jAYDz6FknoYITFCxcW1NXV0bY66mDJ0WRNEJj20kvdwNk0iLfVingClvNM9zAZbfqHerR7m3YlTjH76VDtNtIgrDPokb66fIfhh7ho544dvXW5DGi7bhEoKChodSst7ZKqrNYmvXwdgBrKQtRSptf+5Pk55xXP+/dl5HK+jLW/jLpjof5/33TnXnCyNCcnJ1UqlRpOiyEnOhhZVQSOHD5sEA8NfCsnOgdAodDvkZblpVcUz3h3ZupqDWqsg6r+GQXQS/d9FcAAVMGPQF5ubjW/lJgKCfAncDMtTUUD1fnbpIqUfB0AOu9ILtPflwHVVt9UDOvcjqnC0cqq+MLy1ImVCE9wmk5mambG9zdK06Zj/jpMwMrKyiDeV8P3n4tugERdXZkOfzeaNl0mzVY8292cKS6wazoSXtEAgUoN5IlZCkCgnaOjtQBqUAUS4ESge/fuKuk25GSEGiLzdQAKqGyrrtS/H2SFolAxPqCKuXuL6k2JVFwxcVME8pu6gOe1m4C1jU2X1q1bF2q3lWidvhF4YsAAuhfe6QgQvg4A3Q9qaWGVjvBR1swKxctPZTPXL3oqmwDjqZUAncOqVlMxswYExB+tXXuxwTk8RAIqIxAWFnbR2sqqq/AZaJ9Gvg4A3Q/q7ev6NCirTrFwylXm1AlBvzBuzqZZo55qc9bQZdgA+/MC/NvQfV8FMABV8CcwZMgQf19f31T+GjAlElCOgKmpadX3P/xA1pxglUuh27H4OgD3aIqtuHpOX6b1KBRfLD7DHPhF0HnKLk6mWVf+ClRs/7Sbn6HLL590taH5rkFaMuBU/7qcoGAGFCz2Hzxo4unpmWFAZcaiqpmAiYlJdWRU1AUzc3NvVWStjTr5OgB3qApz5awVVXotSazYtSGG+W51oJDm2NtJCi8fCKgyMmKdhdSrq7ryi+roupsYJl1Xy452/0dAIpG4RMfGWsyYOTOeZVlc2fE/NLgnAIE+/v5XLyUnp7m6uQn6ey6AaSpVwdcBuEVl1bWLDlTptSFx5L5I5sPXw4Q0xcJMXHHlUFCWqYmog5B6dVnXrYwq2qd3uu+qLsPTM9tFIlGrZcuXB6feunVzw8aNkePGjTsVHBycHBAQkBKAggw4fgeeGTHizNKlS6MuXLx4eu++fZ0tLS27qO5fRjs183UAblMVJ+cOcQB0dyDg9Utxijmjw6kYNEgsMWLrkv8KSLGxFHdrcMmgDz4pl7MAABAASURBVOPPlfD9jj7khg7AQxJ6sjUzNe04fPjwiHWffdb3199+6/r7n3/6oCADrt+Bb7/9tvfMWbPC27Rt2wf+NWh/Z0CF7gW+haZzABQKlqmuytQ9XGBx1u1ExTj/QIaUAQ6FCCzLKE7u9k9o19aEfBGFUKk3Oo6fLKJdU4Huu6o3JLEgSAAJaIqAtubL1wEohQLRVeBpV3JAh26F4oILimd9ezBymVhIww9u7hnt62WBLw16HKos8Xwp7dTKK4+rxTNIAAkgASTA1wEg5Kjm5ipO7NOtaRbVVTcUI7p4MDXVpqTwQsnmVT6R/YPsBO1OEMo2TeupqpbfqqyWmVPaYRBv9aJkhMmRABJQGQHtVawxB4A5+qur9mJpYFldXYZiuI81U1Io6LKk82e4xU0a4YiVfwPcDw/PXinNfbjPc0tWkKNrqeKZMSZDAkgACWg7ARoHgO7J6tY1V0Yupf2BVz1fubxAMaGvlMm7SwYuCpbflFHtTn0wxzMAFOpWSwgYrK7w55F8M8q8qFqpKPPG5EgACSABRpsR0DgAp6kLlnlby0doK8oU0564x9y47EFd1noKng6zv7hxhbcvnNKXBZGgKMKHP47c60Sp9QxlekyOBJAAEtBbAjQOwA2gQrci4MnD2rwkcI1izpibzLl4QVeF6t3V6vrv3/iS7g/ap1vAr7+hskqWlp5VTbtgVJz+EsKSIQEkoP0EtNtCGgeArMYVT1W8bV+QEd5ED5UaFSSWKz6ac5Y58WdPIXW7O5tmxOzsY8myjC2Df80SiD1dktVshJYvku8VOgAtc8IYSAAJGCgBGgeAIKP7gb2T6sJUVlwlirRJFD9/Hs9s/zJISJsc7E3yLx8MlIlFjJOQevVV16bdWZaUZSMtVHmUOjA5EkACSIA3AW1PSOsARNEWUHFkt1b9SCv+3hnJfPx2CG256qe3thSXX/k74J5EwrrXP4/7jROQyRS5B07kd2/8qtJnqb+bSueEEZEAEkACOkiA1gEgAwHpKvDvPtKeboALidHMgokRQt5HY4moFp78r1mai32E1KvPuo7GF14FJ4D2u/mXPjPCsiEBJKDtBLTfPtofWTkU8QgI/6At3QBkid8Xw/vxL8jjKUUiVn52r/8ZB3vj3o9fxTNNEVj2xS3abpI60H0cBAMSQAJIAAk0QYDWASBqqZ+0FId30bUiECtopDDvrGJE116MwEv8HvupV1QnN3NBxxLQFFMX0lZWy66fuVxGO/2PDE4t0YXyoo1IAAnoJwFdKJUQDsAhKKgUhH9Yv7grJK4GUX+oLEtRDPfpzNTVGguZ+fZPu0UG+9k8IaROQ9C1fV9etgDl3C+ADlSBBJAAEtBrAkI4APlA6BgI/1CYa89cu0DGE/DXwSeltC4dnvzbMuWltCPOH8l99dsdo0c91UbQsQSPZKC/B7Urvr5Fu+4Cmf63W38RYcmQABLQfgK6YaEQDgAp6S7yQSOKZTMdIT358YaNGoJcmqt41lfM3MtuLWRu08a0S5zzkougYwmEtE+bdZ1LKTuVlVtDu+RyApQxHQQDEkACSAAJNENAKAfgN8ijFoR/uHK2I1NccIG/Ag4pFYpSxdSIYibjZnsOqVqMOvzJNue/XuZNFg8S9HXBLWasHxEUsxZdaydAUXYKoANVIAEkgAR4E9CVhEI5AMVQYPrBgF8sVsfSwFWKN0bcZi4meoHNgoW+Payv7FrfjbwzwEQwpQakKP1u9anzKWUdKItMxqJg8z8lREyOBJCAYRAQygEgtL4jH1Ty+5Y+TG3tbSodzSeWKpbOuMTE/EW7yMwjuXh5mN+O2ubXhmUYm0cu4IHSBF5dek2IcRjECaVdQlhpmzEiEkACSOBxArpzRkgH4CAUOwOEf5DLxIpP3s7hr6DZlArFxpUnmT9+6NtsLI4XnR1Nc8/+2VcsErFtOCbF6A8I5BfVXTgSV0hmgjw4w3uziXdKTIgEkAASMDACQjoAMmD3Awhd2PlNAFNWfJFOyeOpFb9/H8V8vTT08Sv8z9hZG5UkH+xbYmTEuvDXgilfXnJViMGf5MmftAAgUCSABJCAxgjoUsZCOgCk3Jvhg/TDwoZ3YBX/G0cqBCK8lTyS8HR0HLNsZsQj5ygPzExFVVcOBaabmYo7U6oy6OQ30itP7j+WTwZO0nIgT/+03z1aGzA9EkACSEBnCAjtANyBklNPCWQSjvVgsm6fAl304WZyvGLmwGB6Rf9pEItZ6YV9Aedb2UgEHUvwXw4Gs1c14uWLrgKUtgp0fAWCAQnoFQGZTJYXGRkZ/dorr5wZPGjQzdB+/TJQhGEw+tlnry5fvvxkamrqSfjS1IIIEHRLhdAOACn9J+SDVhRvjSJ96nRPdPeykhTP+/szcjlLa8/D9CzLKOJ29jnp5myKS/w+hMJzu+dQXuLNO1XOPJPXT/YjHNwDwYAE9IWAfP++fVGdO3a0mjBuXNhvv/3W++LFix1u3rzpchNFEAYnT5703vD110FhISFEcvPz88/py5dH2XKowgE4C5mfAKEL1y95MpH7Y3krKS9NVgzv0pWR1kl462gk4R9fd4/u1cVS0LEEjWSj96ekMkX29HevBghQUPJCqnUC6EEVSEBbCMgWvPPO6ZkzZoRXVVWZaYtR+mwHtAK4+PXs6Zt85UocTTl1La0qHADCYCX5oBXF/HFBTHXVDc56aqtvKoZ1dmKqKsw5p20mwfolXlGDw1uHNxMFLylJYN6qG+mV1TIhftxIlxP374iSdmI09RBQKBQV1VVV13Nzc09fu3YtDv6i4Kk38rPPPov539tvJ06YMOFS/4iIW/Wbv3t2757fxdu7uL706dMnZ8ATT9waNXJkClSgZxcsWJC4ZvXquI3ffhsNT9SRl5OT4/ILCs7V1tWR7kqtbPbd9vPPcT/9+KOgs5XUcxd1OxepVGo05Kmn+paWlFzS7ZIob72qHADyboBI5c1oImZtjYli1mDyT0pe79pEpAanZdJsxbPdzZniArsGV6gO501zjX15nFMolRJMfJ/AldTKuA2/3A28f0D3QWaeLKNTganVSEBGKt4cqORJBf/1119HT3/ppXN9+/TJdm7XzsLTw6Nzrx49+jwRHt5vzOjR4dDvHQGVdyhUiAGRx4/7Xr161aN+83deXp59cXGxbXE9ycrMdExJSfFISEjwgQrf76cffggAJ6Lf0vffDwOHIGLQgAH9unft2svdxcUV8pT09vPLHT9u3GW4fnLf3r1RmRkZp6AiuKtGJo9kVVNTk/buggX9HjmJB2ojUFdXJ5k0cSJ5MRxpWeSYr+5FV5UDQEgsJh/Ucj6+KxN9QLlmGYWiUDE+oIq5e0uIJWX/Nf25wW1PfTivA/HIVcnr3/z0eYc0/Q+YdMZXoDJuAz1XQTBoIQG5XH7vbmZm4q5duyKnTp58oaOnZzWpeP2gkicV/Irly8MOHjzYKzMzU9D/V2VRQKsDm52V5RAVGdkNWgiCXp45M7yvv39f1/btnbv6+BRPnz793LZt26JuXL8eDxXzTdAr3MwkUNZY+OmnnzLBAcGlxBuDo6ZzSUlJXsVFRZfVlJ1Gs1FlhUb678mrgqkLqHj7+SCmprqlZt5KxewhOcz1i57UGdZTENHX7vLPn3Qli9QQr7DeFdzlQUA+9s1L+YUlUmseaRsmIa1CyxuexGPNEaiqrk49lZgYvXLFijjSVN/eyamNf58+AW+98UbE4cOHe1RWVlowOvJXVFRke3D//l7/mzcvPDwsLNjDza1D927dipYsWpRw9syZGHhSVMkLp7Zu3eqmI4j02swjR44UcS2gLsZXpQNAePwPPkgzLWwoAukKmNwPvG9FWRNa6hTvTU5hEo52aeI6r9NdOpqn/vV9D0eWZXTmh4tXQdWUaO+xe9EHjhcI9fRPpv2RpzI1WY/ZNEKgmvTZb9ywIbpfUFBmB3f3jiNHjAj76ssv+5Gm+kbi6/Sp/Pz8Vps3bw4cNnRoqJuLi1tQQEDW2jVr4q5fuxYPrR15AhROnn7rlpMAelAFJYFLly8bxAOfqh0AMphiI+W9+Cf5tYudFSvfIPrAEfjn1INPheKLxWeYg9t7PzgWZOPmbJp1+o8AcxHL2gui0MCVlJZLkyfMSRaqbzMfcGLfP0BQd8jLza2+cP78/YF50KQvI332S5cuDbt165agb9ZUd7n45Jeenu706bp1/SLCw4Oh28B+0gsvXCQtIBTOgFwmk4n52IJphCVQU13NsW4UNn91aVNHIZdAYYRpTtm9IZiJ+SsK9P0bFDu/iWW+Wy3EgLJ/ddrbSQovHgioFosY9Mb/pcJ/RyZT5PYekWRfJ1UINSWTjC8hb6DkbxSm5EXg6cGDQ4mQgXm61KTPq7AcEkGlLzp27Fh30gICrQP2L06Zcv706dPRcJ44q8pqMnJwcLinbGSMpzoCHTt1UsebaVVXACU1q8MBIP8A7ytpT4vRFG+ODGXuZSXdjxi5L5JZ9YagI/PNTcUVyX8FZpoaiwQdS3DfXgP8UCiYiicmni2+k13tIFDxyWIdZNlfgdShGiQgLAF4ihcdOnSo5/Bhw8LAGbAjgwmvpqSQgcwtViojRo5MFdYa1MaHwOCnnuLUBcAnD21Iow4HgJST9NcmkB1qkcvFijF+HRVHfo1UzBkdTq2vngKJEVt35e+AFFtrI1zitx4Xil357CVXUxIvlHpR6KiflKwMOR1O0I8rASUYkICqCYAzICaDCfs/8US/Hr6+5Tt37IiUSqWZTeU7e/Zs06au4Xn1EGjXrl2ui6urQdQB6nIAyJxK8sNN5vTT30Uyx/9/4yMYhULIJX7lCb/6n2zX1qQPvYGogRD46ufMmO/3ZAvJ8zPQS1aahA0GJKBbBO7du9d6zltvRbi7ujrNnTPnFBlACSUgv42w+Se0adu29+jRo/9p4fznFH6qmcBP27aRGWccFpFTs4ECZqcuB4CYnAwfq0C0Mhza0jOmW2eLMK00TgeNik4qjpr74Y1wAU0nI/4F60oS0C5UhQQ4EZDL5aId27f3JQMow8LCMsiiSKCgEuR+WP/llx06e3ndvn+AH2olsGjx4qiuXbqEqDVTDWamTgeAFHMlfJwG0aqwZZVPVHiAnZCVlVaVT93GxJ8rjhs09ZyQzhRp8p8C5fj3RxL2MSABnSeQev26G1kUCZyBipjoaDLAuZJl2VbHT5ywHjps2BmdL6COFEAikdRt/u67E6+8+irn3y0dKWKjZqrbASCLt7wAllSAaEV4d5Z71AsjHA3qpqsS/PGTRVFPvHCun0LBCNY9A/auACGDqGCDgYKAGaQlb9mEDQZtIgDdAW2eHzs23K9nz/LYmJgokUhktmnz5t5Jp08njhs3LtHU1FRrfjO1iRutLU7Oztnkqf9GaurdIUOHPgH6hPzdAnXaHdTtABAa1+HjLRCNh6mjnRKWvuFB5qYb1E1XFfgjcQXRT087L3RLSjzYSxwA2GDgScCkGnogAAAQAElEQVQI0s0AIX2bZElr2MWgjQRycnLajh0zhjgCZaRrwLl9++7rPvssIO32bYvMrKz89IyMDBR6BncyM+9k5eRUnD5zph089Ycbm5i48/s+6HYqTTgAhNhm+NgJorEwNML+wrcfePUAA8iPI2ww0BA4EJkfOWzGRaFbUgrBJtJiREb/wy4GHgTGQBoy/oYsyOUM+xh0gABxBEjXQG8/v9IHUwgV0CpgD03VLigSagZGRkau8DUw+BVeNeUAAHtmGnxo5IULfl2tbuz5ypesuU2aRMEMDBQEpD/+nh016pVLERQ6GktKRkdPhAs4GAog8Ag+kOYQCHldcmfYYtBBAuRlRWQK4ehnn00pKysjjpwOlkJ/Tdb1kmnSASB9WqMBYAmI2kJHd7M7cTv7WLMsY8vgHxUBuYIpHPP65eSZC68K3exP7FoKH3+BYOBGoDVE/xrkEsggEJ0JxqbmpW1c3G94+QclBQ0fHf3Ui7MjR895N2bCwhUJUz74+Py01etvTF/zVcbMtV/fm/nJhmIiL3+yoQ5ERvaJvLz26wISZ9rqL1KnfvDJhRcWrUwcPee9mKenvxYVPGJstFdA8Km27p7XTC0shVmdVE10T5482cXHy8v7k48/Pq5QKMjiamrKGbPRZwKadAAIVzIeYBLskKc92Kg2ONhL7p39o69MJGKEWpVOtQZrsfaqavkN36EJFXuP3SPdKEJb+icoJDNGYIOBAwHyv0Rejzwb0mjtmvIm5hbFHr49zwWPGBM98o0FMVM+WHeRVN4vrlxnPeqtBZ0ixk3x7x4+MMy9W48I+/ZuoVat7ANNzS17GkmMO4nFYhdWJGrDMowtEYZhyPLSYrJPhBGJWpM4RhJJR8inh6Vd6wD79q6hrj7dwn3D+odFjJ3c99nX53tNWf6x3cyPN5S9uPKzy8TJCBk1PqpDj95nza2stbZylcvlYnAA+nf18RElnTp1HMpOZsfABoNmCOh+riItKMI+sGEeiEqDjZVR2ZW/gwpMjEUeKs3IAJSn361OdAmJdUq9XeWiguKSaaKk318tTqEK7NeESvKdJs39P0HmWvXyKqisZY4eHa+SJ/oxby+Om/7Rl7fgydxm0NRZvXzDBoQ5uLmHmpqbd2ehQgfb1RqgFdDK2NS0mz04GV37hYc/OXmG36Sla+xJC8Lz7yyND352XJRTR+9k6HvXqjEoxcXFrUYMH95/1MiR16tranDpYLV+a/QrM21wAAhRssLbF2RHVbJ3Q/ezluZib1XpNxC9FZ9uyYj2GnSyb1mlTBUDaNKB4zMgFSAYWiYA9SbzFsMwZCyN1jT327ZxyOg75Nno8e8uPzlzzVelI15727s7PNG3aufcT2xkRJwVYjeYrZ2BtCDYtnUM9g2JCH9m9ltdZ6z9qnbSktUXwsZMjHd090xnwHPQBssTEhJ8fDp3bh954gRpDUCHWc03RR+y0xYHgLCcAx+k6Rc2wocnp5wL2r4/5zBoFmY5YlBkSKG4TJrca/ipggUfp4YJPMf/IcYi2BkKkgOCoWUCpPXlKET7FESzy5ayrKJ9J+/LT894PWrGmq9uP79gmUuvAU+FWdu3DYLK0g7s0/HAmpvb2PbwCQwJHvH6fDco491nXpkb5da1xwXSwqHJwtXU1JhOGD++/wsTJpyvk0rTNWkL5q17BLTJASD9WeMA4TEQwUOdVGE8dX7KoNDxZ1Kh/zpF8Az0V2HdzgN58U7Bsd5XUivI1BlVlLQMlD4NkgyCoWUCEyDKRZD+IBoLLt5dLg1/9e1oeMrPHTrrrW6u3l3DRWKxu8YMUlPG0CXg7NShc/jgl2b3AGeg6Nm33o3x6O53jmVZjT2Fnzh+3M+3Sxe7S5cunVATBgPPRj+Kr00OACFaDR8jQFS26tupC6Vd2gbEeP559F4k5EPygw2GxggUlNRdCBpzOn3y/5KDZTKFuLE4ApyrAh3DQRJBMDRPgHS7/AhRtoFoZBaLha1ddthzE45MX/3F9SEz3vBt59kxDJ6CHcEegwxQ6du3dXELHTRlZi9wBvIGT3slxs7B8Y4mYJSWllo/NXDgEwvfe++kQqEo0IQNmKduEdA2B4DQI/2/pCmYDAYjx4JLbZ3cZOwblyM6PXkyP+VmRQxkoADB8IBATa0i/a0VN045B8f2OJtc1vHBaVVsakApmQpKnDHYxdAMgS5w7RTIZBC1Bqjk5J37BCVNev+j0xMXr2rrExQ2UCyR4NoCDe4CcYTcunQPHTt/qcvU5R9f8A3rfxJaC9Q+gPD7LVuC+vr715aWlJCpoA2sxEMhCOiLDm10AAhbsjbAk7CjspYA0M3cyapu3/OZU+C9n78MfdwXyDlDFnhqKNrya1Zcm77RTt/8ktlXoVq3iDh6ZMAfzvVv+UtHpveRyp84AS3HFiiGxMS0LGDYqOPTVn9x64nxU/zNrW36gGoxCIbmCbAmFpY9gkeMDZr+0ZeFT06aFmtmaUVWtWw+lYBX72ZmtuvWtatXTHT0EQHVoio9I6CtDgDBTJyAp2CHDHSCjepCVFKRr2NgTPfXll1PKKuQGlw/NFT0pX9HFURBPz87e8m1fjW1cjK3WnXAGYbc28GQAf44AYRmAlmmmgzyI9P7SPN/M1GFu2RuZZ0/ZOYbUS+u/Izp+cSg/mIjow7CaTcsTdAq0LZDT/+QycvWmo14bX60VavWWeoiIJVKjZ8fO3bg8mXLyIMU6WpTV9Z6no/+FE+bHQBC+eFT4h/kQJUClSC7aefdQHv/mK4jZ108m5VbS/qkVfsMrMoCKaFbKlVkfr8nK7ZdUIxoxOyL4YUlUnX0K+eCaQNAYkEwNE2AjJ4/CJfJND/YqD6YWVnnDZnx+vFJS9eYu3h1CWdZxkr1uRpMDmaOHp5hExaubDN63qJEu7YOd9VV8g3ffNNv+DPPpMlkMrU5H+oqG+ZDR0DbHQBSOjJQ7znY+RxELeGv6AI/jyfiAkLHnbl+/mp5DDgH5WrJWE2ZFJfVXX5rxfUE615R7WYtvhZSVCq1VFPWZPZFEOR1BgRD0wS84BJxQAfCVuXBzNKycNjsOVGTl66xcvHuSmYWaHZaocpLrNEMJPZO7QPGvrOs7bNvLYixsLElDrHKDTqdlNS1r7+/qLy8/IrKM9PzDPSpeLrgABDeZIogeRJ6Ew7IPmxUH05dLPUKGJUU2rpPNPv+52lx+YW15yFXjU31gbx5B/K0fyimICrihTNXHQJiu33zy91AFY7sb8xOMtCvH1y4BYKhaQKEEWmy7dR0FGGuQNN+TdiYiVDxrxU7d/Qi73MwE0YzvRaFQpFfV1N9pbSgIDE/Mz3mTsrlqJTEuKhzx/6Oiftj10kiMb9uSzzy06azRKJ3b0sk54icO/ZXzJWE2Kj0K5ci8zJux5QV5ifUVldfBp1qqWyVLL2krYt76MQlqy0HTpkRaWRsQlo7lUzKL1p2VpZjD19f97uZmWQ8CT8lmEqvCOiKA/AQ+nrYIdMEi2GrtlBRJbNY/W16P+eQuJ5dBidkbf0zJ7KgpI4MGpSqzQgeGcnkTNbxk0VRg188n2zZI9J5+MsXw0+eK9XEaojkVbRkPAdZ7IdHSQwmybNQUjIugrzQB3ZVFFhW4Rs24OS0VZ/n+QSGhDMsa6OinFpSWyetq0stuZd78vrpxMjoXT+d2rNuRdp3C16v2vj2bPst773VZfuHCwP2fLoq9K/NX4ZH79oafurgH6GXY44HEblyMiYg7cIZPyIpCTEB5ByRUwf/DI3Z/XP43999FfH7Z6tDf1m5KPD7hW91A50Om995rWbX2uW3T2z/IelaUnxUUW5OnLS25hoYWguiiWDh2b13xEsfflbuP3hEDMuqdi2Bqqoq88CAgN7nzp6N0kRhdT9P/SqBSAeLcwBs9gchC6HARr3h5p2q9tPfTYlwCort4RgYUzF35Y2T56+WxcLTtDY8XVSTVort+3Min5p6PtnC90S7p6edDz+RWNQVujE0sfwq6b6ZBnfoZRBN/cBC1joRXgErd4Oo9CnczqHd7cnL1p4PHjEmiBWJyWqCkKV6gkIuv0ee6MmT/N+bv7wIFb0UpOOO1e8Hndj+fURKYnzf/LuZnuAUqIyBTCo1KcrJcr9+OsE/csdP4bvWLO333btvem2a/xpzYMNnl5PjoqJK7uWdBFvVuiIlVPwOfgOfDp268tOUtu6exCFR2U2RyWTioUOGhP+6e7fKB1irrBCoWBACuugAkIKTF2CQvmSyIAo51ohA37nNV9sygwJGnQ4x94106PTkyexX3r+auO94fmROXu0Z8rpcFRpWW1UtT72WVhG/YXtW1NDpFy5b94xiSSvF1PkpEZGnNFbpPyzybdgJAdkCgqF5Au/A5a9AxCAqCSKxuPaJCVOPjZ3/vqOZhWUvlWTyuFJpTXXV9ZvnkuL2frn2+sb5r9qTJ3ryJJ+ecrm7Kiv6x01p/oxcJjXOvHG1W+xv28N3rF4StPF/rzju/Oj91AsnjhwtLyoga4WQ1SqbVyLAVWMT067Pvj6/wzOz34qVmJhWCqCySRVvvP76kxs2bCArB+pkt2aTBVPhBX1TrasOALkP5J9jIuxMAVHLPyfk02y4k1Xd7rvd2QHPvXYpwi0irrdZ1xOtXMPi85+cfDblzRXXEzbuyoqKPV0cdTuzKvFeQd1ZMhivvFJ2ta5OngEtCDnwlF4slcqzyHFNrfwWuZ6ZXZN06Xp53F9R+ZHkRTzT3ktJ6j3y1C0L30iRrV9Ux+7DTgW/+cG18KPxhd0gjUmzBqrv4nbIqicIDvYDCC2EZXB9NYjKAlmn/8WVn2d27h1IZl+YqiyjfxRXlhTkJyTs3R2/5b03q39YOKfz0Z+/65d962ZnRqHQRCvUP1bx+CzOy+2YsH/Pk9tWLAyFlgqjmD2/JBRDlwHDKMp5qOOSxMipo3fI1BXrijr06qPS/6HlS5c+8dlnn8WBcegEAARDC7rsADy8V2SONKlsEh6e0KZtbn6NfczpEp8Nv9wNfH3ptfABk8+Few1KCGgfGutHBuO17hPtbdkjysXcN9LRtOsJW4vuUU7kGJ7mPcj1DgPi/fuMTOo3cvalCPIinp//yPG/fL3CQypTGGlTOR/YUgpbslIdWauezPWHQwzNEFgD15aAqCSIxOK6p6bOihw66y1vI4mRp0oy+UepvLK05HT8n7vjoTldsePDRYEXoo4F19XUqGt2yT9WqPCTtFZciY8O3AldBpvfecMoevcvCeVFhWSmRp2qshWJRM5PTpzuR963YCSRqGwe/5rVq0NXrVp1EsqhtgHWkJcOBv0zWR8cAHJX0uAjFOQ9ENLvDBsMaiZwGPIjjthW2GJomcBHEOV/ICoJ9s7t0+AJMtXdt2cEZKASZ1Euk2XePH868peVC7O3Lnunz6XoY8HS2hoLyE+vg0xaZ5qSEB24bcV7AT8ve6fo6qm4SJlUqqrZLSx538LUFZ9mt+vQiUyjVQnbu9PphQAAEABJREFULz7/vN/qf5wAbAlQCWHtVKovDgChK4WPVSA9QHCEK0BQUyAvHSHdMGSUv6p+BNVUFLVlQ57656sqt75DRsaMnruoncTYxEcVedRUVlwgzeGb33mt3dGtmyPKCgucVZGPLuisKC1pG7Vza8TmBa+7H9u25XRVWSlpshd8ATGxkZHn8FfmdYwYNzmKYVnB9RPW6z//POSzTz+Ngn2V6Ae9Oh300Xh9cgAe3p/rsPMEyAyQeyAYVEOAPCn8AKpJJUO6YWAXgxIE5kIc0u8PG2EDaSZ+bt6i2F4DBpPWMDNhtTOy4ryc+L1ffXzlh8XzepDmcIVCZW+IFNh0NahTKNjUs6f6/LR0fu/fPv0wteBuBlnpUujuAYmXf3D4CwtXnjI2NSfdbYIXbM1HHz2xbdu2aMEVN66w9l5e3tnIEyeidmzfrnb56+DBqFu3byfA91glLBsvsnad1UcHgBAmHuxm2OkEsg5E6H9EUGnQgfQXBgKBF0HQyQIISgYyHfJjJeNyimbd2j59yvK1aa2d2pOZF5zSthBZXnIvN+HXT1bc3vnR0uDstFS1vpCoBdu08vK9zDudfl23MmTHh4uy72Wmkydq0jopmK2Wdq0CJi9fW9TW1V0l0wX/N29e+IH9+8nCXYLZ3ECRNCY6Osq3a9fyHt27+00YPz587pw5apdpL70U3i8wMNDd1dV006ZN0QqFoqiBnfUO9XNXXx2Ah3eLDESbBwfdQH4HIY4BbDDwJEDGWrwAaclqdUmwxaA8AbKc9dcQnQURNHT063t6/Lsf2BoZm3YVUjEZzb9n3cq0HavfDyzIysQXAnGEC/xcf/t0VTg4TneLcrLISHvBfn/EYrHbs28ucOkRPjCeo1lKRZ8xfXpE0unTgrcEQCVbOnPGjEvPjx0bXlBQ0EopY1Qcqa6uzvj9xYvDwkJCymtqashvnIpz1B71+u4APCRNugVGwQF5nSlZSAh2MXAgcAfizgQhqwj+AlvBfshAlyEEsmYF6SYR/P/N/+mRUQNeeKkH9AvbCAWyrqbm6t9bvrkAT7CB+XczOgql11D1QNeJ2661y/tB90lKTVXleQE5mAcOHx00cPL0aLj/gv9Pjhoxol92draQjr70ldmzb+zft09d61BwQn3z5k2XiLAwU7lcnt8wob4ei/S1YE2U6yycHwZCfpD3wpb0Y8MGQxMEbsJ5skId6UrZBPvYlQIQOAYy/e5PSCNonzzLsvJhs96K8ntycDjoloBQB3g6y0v6e1/s9wvf6pyefKEHtUJU8AgB0n1Cxk/E/7krXiGX333kIv8D1rNHn7AxcxfGicRGgq62KZPJxCHBwT4VFRWX+Zv3X8qk06fj//zjj97/ndG+vfT0dKdVq1aRB0btM04FFhmaA/AQIVkzgLxTgPRnknXqcergQzL/bMn85jGw2xnkGxBBf1hAn6EE0sRJWpzaCFlgMthv3Lsrkpw7eZPKXwjVivy7d6J/XPK28dkjB0LAETDU3wUhWDavQ6FgL0UfD/5+0Ryb7JvXyfgAQebet3JqHzLp/dXJxuYWgr4npaqqyjIsNLQNOAO0rxKWvzprFvk9aZ6PFlz95quvAmvr6kir5wNr9Hdj6P/oZBANGZjlBreYTMsyGM8PytswkLeRkWV7SesIGeD3K0TAFhKAwDOQp/I9kJZ0m8BGmCAxMS1/Ycmqa9atWwcIoVEuld4mzf171n0YVlNZYSuETtTRMgHoZrHc+/W68H3frLsqraslv0MtJ2ohhqmFZa+Ji1flmFlZC9qEnZ2V5fDMsGFk9cOKFkxo8nJZWVlKZmamY5MRtOgCdAGITsbHG8SUZkN3AB5+7fJgZy0I+bEmC6f8DPtasbww2KHKQPoNyYj+WZCJEwh5cQ9pHYFdDJQEyCp/5LtEqea/5OTpDn7gb5uaW/b87yzvPUXenbS47xfPc0hPviCEPt6GGHLCrNTrXb9/7y2P25fOHQMO1K0BEmNj7xcWfVhqadc6B/QJFs6fO9d56dKlF/gqvJWWVsg3rSbSJSUm/vteDk3kr6480QF4lDSpEEmz3CQ47QBCRm7vhm0liD6F01AY0uLhAdtgkG9BDHYuLJRd6DAOFL4FIlgwh6e6SYs/zDU2MyMzWqj0QhN/fuT2H87+/vmaftLaGkHHJlAZ1iBxG0envD7h/ZPHznrz5NyP1kd9+MOuyA0Ho6J3nLoSv/vM9ZO/X0hL/Ot69lkif1y8lUjO7UpKif/27+jo1Vt/jXx7zRdRL7w6Lz6g/6BLbZ1ccllWNQvoNDCb8yE8cRof+uHbAQe+/fySXC5L56ygQQKyaND4d5dLbds4Zja4RHW4ccOGYHgyJr+PnPUUFhbqVGtiVna2MedC6mACdACavmlk7W3ShDsWopA+XDJ4kLyxjQyMg1M6FUjzHRmIRp703cFy8jpl0uJB/WMDujA8SoBU0GQNikfPUhxBk27BhEUrS4yMTbwo1NxPWlFSnLR12TvstdMJWjMYy8zCqiJ86Mjz736+MWpr7PnYE5mlKQlF8qp9KZltv/zjaNe5qz4NGjvztfD+I56L6BkUGubeyTvYxbNjUDtX9wC7Ng5+RBxd3ALIOdeOXsE9AkLCIoaNinhuxqvhr69YG/z5nr999yanOyQUympP3C27tiPhctyir7ZEDXpu/BkrG1utcXwzr6f0/HHx/+xK7uWRVrn794vvh0gsbj/2nSVi2zYOGXx1NJbu+bFjg4uKizm3BLRxcNCpJ2pXV9cH454ao6A/59ABUO5eVkI0MpjrNdiSaVFkMMt02P8B5AaItgWy/sFfYNQiEDJQrDVsR4KQJ32s9AGEigKZikecRguh9BubmRePf++DPLGRpAOlTgU09cdt++Dd3lVlpeT7QKmOf3JLa5uyUS++nLjpUGx05N2y6ycyS0w/+vm3niMmTw/v1LV7iJmFpQ9oNwMRNEDznomZuYWXu1eXfsMmTA1fvmlb7yO3Cy2jcipTvz+WGENaGmxatdboYjC11ZXWO1YvCbxw4shRKDzVrBuWFbUb878lYuvW9tmgS5AglUolTz7xhCO0WpBuU6V1dvDwaKt0ZC2I2C80VKdaLPgiQweAHzlS6X8HSclKeJ1h6wjyNMg7INtALoLUgKgjEA+fVPYfQWZkkR5f2JLR50NguxIkGsQgvFkop6bDN2AA+T7Ahj7AE3/5CwtXpEuM6db0VyiYsqhdP5/9e8s3/aD5XyP/8+09O2Yu+PTbqENp9y4eTS8ym7/umwDfvsFhpuYWhJcmnw5FJiamHX38/EPnQkvDoZv3rI+lFyUv3bA10tOn6236u8hLA0teQ/zX5i+T4X7l8tLwIBG0BDiNfWdprYW1jWADA7Ozsx1mvfwy6V5QupI0NTPr7O3trRMD6yQSSW3vXr3ut7Y9wKi3G438GOghTfJP+jeUiwz8mghbMoeaPMG0h32yLvtk2JKn8c9gS96WdxC2ZKodcRTIylNEyJK65OmDPKGTYzIymLxY5ATEJeMQSOWyAvZfASGV+8OnJNcHxwtg+wsImbOr9D8mxMcgDAHifI0XRhXDkKl+ExetvAktAOS7xFstGeW/e+3SwquJsWpv8rdr61Aw/5Ovo47dKUn59cz19iOnzgi3sWvdHQqjkrcTgl4hghgqy66Dn38h4pf4S+5RWeXX3//mp8i2Ti7kf1wI/UrruJNyuecvKxfKpbU15LdA6XQNI4rFRm7j3v2g0ETAKYL79+3zi4mOjmmYV3PH323ZIlhLRHP50F5bsnTpSXCcyBgwWlVan16k9RbqroHQ4siQxT7IS0FIpU+exudAcYgzMBS2ZKod+XEnTbtESBMZeXInffTkmMxI6APx+oOQcQik4l8M+8QRIE/8V2Ef1y8ACFoQyDRSMj5EEFNYlpWPnf/+BRMLS/L94K2zprIy+ecV79kU5eYQ+3jr4ZIQbFcMHPX8GajwE/66lm016qVZ4RZWVsRZ5aJGa+JCn0Hnp8dNjNibnG7/5+X0pBGTZySKRCK1OdjlRYXtflo637miuIg8MPDmYmRs3BmcgDtiIyPBWiYnTZwYWF1VpbRz4uHpGfz2/PkqWbqYN5gGCXv17n192rRp5HeXYZgGF/XwEB0APbypWCS1EiD/Q2SZX9L/L0jGQ19+M8aqlT1xEHnrK87Njt+6bH5H6O+3462EQ0KJiUnVtP8tjozMrkj94LvtvaHJn9ivTyOpxQ7OLv7vfv5tQFRO5d1312+Ks7a1I4NrOVDiF5WsGQAtAb3z0tNIdx4/JZDK1Ny8+3NzF55hWGFmQ9TW1po8O3Ik+f4r/SAyd+7cPnPffptTywGYrpYQFhZ2ed++feT/WLAxPGoxnCITcvMokmNSJGDwBP4HBMJABAkBQ0dGOlOu8Jd7OzV219rlQTKp1EQQo5pRYmZuUfHe+k1R0VkVlTPeWxYB/elk2ehmUuj+JYnE2GXEpGn9DqXlyz78fkekOmYSyOVyo9/Xrwm7cSbxCA1BW4d2wU9NmclrKl9j+V64cKHT91u2cGmdMH777bdDE0+dSujp56d060FjeQt1rl27drm7du+O2rFrV2do3fm36V8o/dqsBx0Abb47aJu2EyAD2JYKZWTnPoFJPfsPJmNGeKu8k3Ip8o8vPibL+bK8lSiREJ74a+av+ybqeEZJ1fBJ08JZkUijMwuUMFnwKNDdYdN/5NiII7cK5Ms3/RJJnCHBM2mg8Pgv3w+8eiouEk6TLkbYcA/uvr0ieg8cSromuSduJMXiRYtCS8vKyNijRq42fsrF1TXw4MGDXul37tyOO3kyfs9vv0Vt3bZNbbJ9x47IE1FRcddTU6+cOXeuTUhoKJktZdy4tfp7Fh0A/b23WDLVEiAV7NeQhSkIdbCxb5MZMW4qGfvBe0T8nZTLUX9t/krQ1QcbK9iwF15MOnGnJHfUiy+HQ8Vv31gcgzrHsraDnhsXcexOcfnsJR/GiMRi6hX9muMXtXNrxPnjh0gzOu+xCH0GP+PfrkPnK83lo+w1aJ0QPf/cc6S1ifO0RYmxsbuHh0dwUHBw+IABA9Qm4REREV5eXv0sLS3J+2AaqQeVLb1uxzPYguv2bUPrtYDAS2DDABDqYCSRVD43b1EZyzJkECgvfalnEyP/2vwleYrhlV6ZRD49e6fC0+7FRV9+529kbExmnyiTzGDiQMXvMGXOgtAjtwqv+4WEC1K5NgUv8cDvYeeOHCRN+XxbAkyGvfymrZmllSBL9JKugMOHD8c1ZS+e104C6ABo531Bq7SbAOknXCuUic++8c5ZI4q5/ndTr0Ud2/a9yp78wUGpIyvn/XAiycXK1o5M4xOq6Hqph8x6+HrfCe8tRxNizK2sVTZQ8NTfe59IjoviPTAQHBanMf9bks6KRIK0WMycPj2otraWTGHW+ftqKAVAB8BQ7jSWU0gC60CZIKPrg4aPjm7l1D4E9PEK2Wk3ovd/86nKnvzJk+zxjNJMslhfs5AAABAASURBVHIePGqSZl5edhpgIlGX3n1Dj6TdKwkbMuK8qsof+9v28NuXzpExAbyygBaAXk9OmkG6E3ilr58IKn+TV195pbj+OdzXbgLoAGj3/UHrtI8AeV2yIAv+2Du73OwePpC8l4FXKYtyc+L2fr2OatBgUxnD06Fs8Tc/Hocn2Y7GJibkpVFNRcXzzRAQG0mc12z7vceXfx6Jk5iYqGRFzkM/fBtBM0XQs3uvUBfvbmRRsmZKotylA/v3+93NzOQyK0A5xWqNZTiZoQNgOPcaS0pPgAz8+xTUkC1s+AeoYGtHvDaPzJ8mK0ZyVlRTVXlxz7oVfRiFgtqWhpk7tHfNOZSalzx03CSyCJVxw+t4zJkA2ydsQL/DN++luXbsnME5tRIJ/vjy4+DyYt6LBYmfnjbbztjUtEyJrFqMMmH8+LYQSbAFh0AXBhURQAdARWBRrV4SIMv9BghRsqdeeuWkkbFpVz66ZDJZxs6PljqrYp5/v0FDLv5+IY3Fvn4+d6b5NGYWlt47T6XYjpw6U/AnZIVcbrRrzbKufJcNZkVilxGvvn2h+RIod/XGjRseMdHRCcrF1r5YhmQROgCGdLexrDQEyJP6hzQKHqZ18+l20dW7K6+mewXDFO/5ZIWsSgVv9Jv30RfRn+zc38XQFkN5eF/UsWVZ1mrBpxv8yboBsA+3U7hc62qqLXeuWW6tUCjy+GglY1G69YsQpOKeOXNmD7CjgI8dmEZ9BNABUB9rzEm3CZD3OLjQFkFsZFQ9cOosC9DD539PEb3r59Si3Gx3SC9YgO4I2bcHo6LGzHyVrGiozS/qEazMGlYkIusGbD95+ZSxiamg4wLKiwraHdz0RRaUj5fe4JFjO5gI8NKgkuJi2y1btnBaHAhs1oJgWCbw+REyLEJYWiTAMNYAYR4IdXhy4vQEcALIgj+cdd26eC7yamKsoC8qMTO3qIAm/7M9gu6vhMbZJkzAn4C7l0/A3svpV6xt7Ur4a3k8Zea1Kz2vxEWdfPxKy2dYkajNkJlvXGo5ZssxPli2LEAml2e3HBNjaIoAOgCaIo/56hKBN8FY3ov0QNr7oU1711R3357B9w84fkCT/5kjP20kT+gcUzYdnaxhvzf5Thp5yU3TsfCKKgnY2rfpuTclM79tO2dBm8tjftseXnIvl5cT0NbFLcStiy/1eIDa2lrT7zZtuqFKfkLrNjR96AAY2h3H8nIlYAsJ5oDQBZZVDJs1pxqUGINwCgq5/N7uT1a4Q58q72WCG2Zobdeq8M9Lt+9Y2dr5NryGx+olYGpq1mHP+dQSRxe3HCFz/u2zVd0UchmfWQfswCkvW4nERry6EeqX4cOVK/tiK0B9Itq1jw6Adt0PtEb7CLwFJtmBUIVeAwbHG5uZdeOjJGrX1lvQAiDYy3ZsW9sX7ku+U2BuZc3LHj5lwDTNE5AYm3j+evpaLZmC2XxM5a/WVldb/fXd10WQgvNKf9BN5dlv1DheLQiQ37+BtAJs/vZbHWkF+Ndsg9lBB8BgbjUWlAcB0vdPmv95JP0viZFEUun/1DO8Bu7l3bkdfS3pZN//tNHtWVrblO45dzPHxMy8E50mTC00ASNjY1dwAmraODrlC6U742py99uXL8Tw0ecTEOJnbm1D/a6AVatWBchkMkFbN/iUB9M8TgAdgMeZ4Bkk8JDANNghXQCw4R8ixk09xYpEzlw1yGXSO/s3fNqba7qm4j8Y8HfbwsqKvAGtqWh4XoMEJCYmbrvOXCuwFnBg4JGfNvarq629yrVYLMtYDZz8MvVIfmgFMNmzZw/n/LnaSxvfENOjA2CIdx3LrAwB0t/+ujIRm4tjadcqp0PP3ryW+z227ft7dTU1ZMpgc1kodU0kEsm2J1y+DH3++DIfpYhpLhI4al7gBKSDM0DdB09KIZfJJH9tXE/WHODcFeDo4Rls3941leihkaVLlvSA9Cp7MRLoxsCDADoAPKBhEoMg8CyUknoN/CcnzST9n5wr8cKcrLi0C2cEe/r/at+xWEcXN0FWMQQuGFRMwLaVffdtsedPsyxLKm7q3LJvpfrcvXE1lociI2gFKOCR7pEkxcXFdklJSWceOalVB4ZpDDoAhnnfsdQtEyCD/1qO1UwMq9b2dx3c3LlXugpF0YENn3k1o5rTpbdWfhrdKzhcZW8M5GQMRlaagGtHr+APvtsepXSCFiL+veXrPnKZ/E4L0R67bN26dd92np2uPXaB44n/vf22GySRg2DQEgLoAGjJjUAztIoAWWynH61FT06akQY6jEE4hXPHD1+qLCu155SoicgBTwy6MO6VNwObuIyntZzAk8+ODR85ZYYgT87S2lqLuN+381mYh31iwovUixVdv3bNPSsr67Q2IjdUm9AB0K87T0aavwFF+hpklw7LdrD9M5CJINRT8EAH1zCDa4KG8W1a22e25dHkLpPW3Tz995/Uzgexx96xXd6nuw84wj5nJwTSYNAOAuw7n27o6NbJm/OTe2PmXzkZE1BdXsbZobCyawWtAJ2pB/J98vHHjZmF5zREAB0ADYEXONt2oG8byE2Qz0Fmg4zRYRkHtpPpd1thSxYyWQZbdVVipL+e5A9Z8g/9X5jG6+k/cufWIrlcTgYg8s8cUpL1/bfFXciGrQMcYtBhAizL2vwYmVQpMTER5BW7h77/hnzHOTfFR4ybQt0KsHvXLj+FXK5lUwJ1+MtBaTo6AJQAtSA5GdWdBHZMANHH+0l+rJZA2Y6C2IKoOhDHicz/552PmaVlYVs3D9KNwElHVVnpmdSzpzinayyTJV9+H2vTyp6MvG7sMp7TMQKm5hbeH//yhyBv6su5neZdcDcjnisC69at/e0cHNO5pqsfXyqVGp2IjKRuSaivE/f5E9DHCoM/Dd1LSZp3D4DZnOeYQxpdC6Fg8A4QVX9nX4I8qELgM2MuggJzEC5BcfiHDcTZ4ZKm0bi+AcFXB4+bGNToRTypswQC+j8VGvHMqHNCFODIj9+SGS5cpxmKQp97gcoBILavWL6cDAYUZHYDtJbdq6isTMm/d+8sFykoKDhfU1NzU6FQVBKbDFVU/WNqqFzVVe7VkFF7EEMJT0FBJ4GoKpCR9yE0yqHJvbZTb3+ih5OasqLCJPJkxilRI5FJM/GXfx41gkvq6jKBrDCoiYBo5fc7HcytrKnn05cU5DvnZdxO5Gp3O89OfUwsLIu5pqsf/+rVqx4lxcU0bxysiYmOjn76qadS2zs5tenk6enT3dfXj4v4du3a08PNrYO7q6vRq6+8coY4BPVtNJR9dAB09047gelkkBxsDCosUGFpSd8/S6O/e9iAJJYVkTEZXNQoTmz/3pJLgqbiLv3mhwQTE9OOTV3H87pNQCwWO32y40/Og/gaK/XRrZvJa6m5tgKYBwx9lvpNgTu2b+flRNTW1t7qHxGR/fzYsWEXLlyg/p7X1dUZ//7bb72JQ7B2zZo44CTIOAvQoxMBHQCduE2NGjkMzlIPFgMduha8weDOIKoIz9Eq7dF/sBVXHRUlRaezb96gXp7Xw7vL7QEjn+e+7gBXgzG+Rgn0Cg4P7fvEwCu0RpQV5DvxaQXw6hPoxlAuUPTtt9+S/2NOAxHr6uoyevfqZQMtCGS2E23xH0v/6bp1/ebOmUOcG052PaZIh06gA6BDN6uBqZybmRuk1+VD8uMhtP1EZzcapXaOTrdNzc05v1435tdtgjTXf7X3WBHDMqY0ZcC0OkFA9NHPv4lFIhF1RRW18yfShchJD3Rzubv5dCPjXHjDysnJaVvErRtA/tyoUZXQVN+Kd6aNJGx4Clom+p44cYLXy5Ma6tKFY3QAdOEuNW5j68ZPG8RZQRbJaUCK+uk/cNgoMkCKUxcCeUlL+pXL1KP1R0yefqpVG4deDcqEh3pKwMzcwmvGgqWkyZqqhIXZWR7lxUWcuxT6Pj2ijCpjSPzr7t1KTytMvXEjISkpSS0PPa/Mnt1LoVCUgol6H9AB0N1bzKmi0d1iNmq5Kr63YxvNScmT8DQmbe/tQ1oRlEzxT7Tzxw9Rv/pVbGQknbdmvSE7hP/ANLDPqfPe87G0tqGuiOP/2EkGjXKi18qpfW9jcwulK/DGlH/z1Vfk/0Wp1ocv1q+XNKaD7lzjqUuKi63B4aAZpNi4Yi08q4ofUi0sJpqEBJol4AlXOTfdQ5p/Q0e/vudErJjTojvwlJF/4cQh6nn/sxevijc2MSUDuv61B3f0nwArEtm/t34T56f3hmRuXTrfS1pXS15a1fBSc8dm3UOfoKokSTdAWVlZSnOZPLx2+MgRVY37eZjFI9ujR48q5Zg8kkgHD9AB0MGbhiYLTmAQrcYeYU9yHU3NZFy7clkmlVL12ZNpf+NffasTrf2YXjcJPDF8tJ9Nq9a8RtTXL/HVUyc5vyPAJzCU6rtL8o+OirpHti1INTyV27QQh/Pl5hKkpaUJMi6nuTy04Ro6ANpwF9AGTRMYTGOASCyua+XkzHkUf9LB351o8iVpX1n8YaJYLOY67ZAkRdEDAizLWr/7+bfnaYty9vA+MgCW0xQ4c2ubHqYWlkU0eW/75ZfWSqQ3lkgkdUrEEyyKra2tVDBlWqwIHQAtvjlomloIkL7FJ2hy8uzR5yLDspxeWlRbXX05/24mVbOmxNi4duysN6jnQtOUHdNqnkD40Gd7W9nYUg1aqyovb1VyL5frKoOSrsHhyTQEYqOjfRiFoqWxBKIOHTpk0uTzeNrmz/To0UOtDkfz1qjuKjoAqmOLmnWDQCCYSbX2f4/wAZWgg1O4Eh9VyClBI5HHvzr3NDz9U7ciNKIaT+kQAZZlrV5d+hHXyvuxEp49+jfnwYA+QSEmjynicIK8G+DOnTstjgN4ado0Qd6GqKxpTwwYwGk8j7J6tS0eOgDadkfQHnUToOv/Z1lFa2cXrk/y0otRR0mTK1VZp855V639olTGYmKVEnhm0kudjSQSqmbr1HOnusPTOKcmfQsbO18jY+MqmsLt3bevxaftcePHdzQ2Nq6myad+2ub2n3766XMW5uY+zcXRl2voAOjLneRYjvbLJkZ3iV+XqAmxHeJP/bTCsbjNRada+7+tm8d1eALj9LRQVV52AYRqQRP/8Ccvm1tZdW2uYHjNcAhAS1C7US/NSqIpsVwmMy7Must1hUFT967duaZ5xMx9f/7Z4hgWIyMj5y0//CDI2xAfybzBgZWVVfnXGzZQtQg2UKnVh+gAaPXtUZ1xFiFdxcZubQI0IWbd3KhfZiIQGdLk6U+jq0tgSA7X9NdPn6Qu/xsrP6Ye+c3Vboyv3QSmzHmXeuT6xZhjnHV4B4RQfZ+Tk5M9oeWhpXEATP/+/cOXLVsWRX8XGtdgaWlZHh0be83ExMRgptSiA9D4dwHPGgYBMvffgqaorl26c31akF+KPk4WQOGdrZmlVXmnLr646h9vgvqZsLWDYy9n9w53aUqXei6pB8MoOFXoju4dnGnylMvloty8PGXWIWClX18iAAAQAElEQVRnvPxy+JHjx2MdHR1zafJsmHbgwIHnLyYn5zg4OPRueE2fj9EB0Oe7i2VriUBQSxGauw59n5VmFpacpv/V1VRfrSgp5tRl0NCGF16bd45hWSrHpaFOPNYLAqJX31+pTEXaZGFlUqlxeVERp5H9Yomko6VdK84tYfWNSExMVNrp6NqlS8jZ8+ct4xISTr63cGH02LFjk4Y988xZZeVhvClTpyas/+KLyKvXr1/+cevWnqYmJgY3owYdgPrfQtw3NAJUDoBzJx/yY8tpFPTd1OvUTy7PTZvN+Y2DhnZjDbW8IU+PcKMte9rFM7Vcdbh363mLa5r68Q/s38+1Jc3Cw9096LXXXw/7bP16/42bNvlxlVWrVwc+N2ZMhLW1dbf6thjSPjoAhnS3sawNCVD1/3v49uLcD381Mc62oRFcju3atC2wtW9jsD9YXFgZYlxjExMPn17+xDHlXfwr8bGcnQj3bj04Ow31DYyOjlZTv3v9XHEfHQD8DhgqAbKMKVWTn3PHzkQHF34VGVeTOXUZNFQ+dsZrV+CcEQgGzRGQMwoFcf60cr34yXPmU40DKMnPdZXJZBlc8LZxcaV6QydZ6lcml2dzyRPj0hNAB4CeIWrQTQKkIhbTmG5ha8fpqaW6rPSaXCbl1GXQ0L6hL0zl6nQ0VIHH/AhUnok5EfXayCeTQx3N6gJbiW2DWxsxLz0ZeP3IbzujFHJ5AT+1wqcKGjCYenGokrwcTgvvGJuYdRIbSajm6d+7d4/KcVGGJMZ5lAA6AI/ywCPDIUDVjG5j3yaTZVlOTz05t9OolmuVmJjUtHVqj3P/1fwdLSkquDCqh2fxq8MHhJ+OOt61rqbmvhNHRq9fOXOq8+Jp48MHuLcyuX3jaryaTWs0O1Nzi05tHJ3yGr2o5Mk7Vy9zbd0wbufRIVVJ9Y1GS7lypaLRC3hSZQTQAVAZWlSs5QSoHACnDp2yuJbv1uUL5lzT1I8f/OTTZMlUKh319eF+ywRyM9OTnvFx8c66c7vZp+rKslLLcX27BF9IjI1uWavKY7BDxk+hGgdw69J5B65WOnXyolreOikxUcVdW1xLpP/x0QHQ/3uMJWycAFkDoPErSpx19PTivP5/xrVkTyVUNxnlmUkvkX7nJq/jBWEJkCf/MX18fGtrqu8/8SujffaQiJCy4qJLysRVZZyBo5+nUn8vIx26tzivB6CgyTQuLk6ZNwPSZIFpGxBAB6ABEDw0GALwA8e/rG1d3TitmAbNxXeryko5dRk0tK5HQD+q5YMb6sPjpglUV1Zcf65XJw+o/DmNuYD7LJo/8Vlx05rVc8W9k7cLTU4KuVxcW1XFaWqfraMT16l8j5h47do1qgWFHlHWyAGeepwAOgCPM8Ez+k+AhSJS/UBa2rVuCzqUDlVlJZy7DOorN5JI6qxs7TrVP4f7qiFQV1ebMbaPt01ZSTGvCu1cXHSXmqpKqiZ42pIZGRu70o4DKM7P49TiZGpm3p7G7tLSUitGoWhxSWCaPDDtowTQAXiUBx4ZBgFHKCanJzuI/29gWVYOFTInB6IgO4tqgFO3PoGkQjH71wjcUQkBuUx+b1JoL0Ve9l3OfeD1DUo5d1rjU9r6DR7G6Qm+vv1kP/dWGqcmfVYkamNqblFE0vKVqqoqqhUFm84XrzRGAB2AxqjgOX0nwHmhk/pALGzt8uBY6X5hiMvk3kqlGuAU8tSwfKIHRXUEFApF2ctDwwpuX0txpc0l7VoKp8qTNr/G0gcOGFTV2Hllz2XdvM65BcS2rQPVSpeFhYWcWh2ULQvGa5wAOgCNc8Gz+k2AygGwbet4jyue7Fs37bimqR/fN5Bq1eL6qnC/cQK1C18al3YpMZ7qRU0PVZuYmmncAejs25N3Kxcpx72M5mc+kDgNpZVTe6oK/M6dO1RrCTS05+ExbhsngA5A41zwrH4ToHrCa+3oXMYVT3FeDqcxAw31u3fy5vw01lAHHjdJQLb27dfOHf9jd48mY3C84OnlI+aYRPDobdu1J11dvPVWlpaQQas1XBS0cnTmFL+h7tRUqqUEGqrD4xYIoAPQAiC8rJcEyA8b74K1cnKu45i4qqq8jCpPa9tW7TnmidGVJPDT5x/F7/nu6wAlo7cYjWVZRUffHu4tRlRxBCNjYxeyeBTfbKBLRCSXSTk16ds5OFK1fGRlZVF1lTVeVjzbFAF0AJoig+f1mQDVfGOrVq3JLAKl+cik0hxGoeCUpr5yMwurClYkonIg6uvD/f8IHP51R+TXS98N/e8M/d6wiS8lSSTGnAaJ0ufaqAZxe48OVIMRa6qqOC1xbGlrZ9KoJUqezM7K4jS9Vkm1GK0JAugANAEGT+s1ASoHwMzC0ogLnbqqSqqR0W4dO1H9iHOx1ZDiXkyMi10yY0KEkGU2s7Qq/9/aL9sIqZNGl4d3V04VeMO8KkpKKhuea+5YYmZONe4gJydH8Jkuzdlr6NfQATD0b4Bhlp9qQR0TcwtOTznV1VVUo7HdO3ehGlhlmLe4+VLfuXHt5Kwh4cHNx+J2VSQWy36OPnvZ2MTEg1tK1cXu1K07pwq8oSU15aXShueaO5YYG1MtVZ2Tm2vZnH68JiwBdACE5YnadIMAVQuA2NjEgksxq8vLuY4ZeES9W6fOVA7EI8rwgCnMzTn7QkiP3mTVPiFxbPwrOs7Zo0OgkDppdTm7dZDR6Kgo4zbeVWxkRDVYNf/ePar0j5cVzzRHAB2A5ujgNX0lYENTMInEiJMDUFVWSjUwyt7JmSo9TVn1LS1UaFdG9/byqqutFbSv+cMfd0V18w8K0zZerR0ceI89IWWpLC3iVEewrIjqf6u0tBQdAAJeTcLp5qrJJswGCaiaAKcm/IbGsAzLqZmzsqyU6v+sdZu26AA0vAk8jutqau6M7evtWFVRxsmBaymr15etieo//LnwluJp4rqtvT2n8SoNbawoKZE0PNfCsTkrEnHqNqivTyqVEnupWi3q68P95glQ/TA1rxqvIgGtJUD39CdiOf0o1lZXszQkbFu3wf9TGoCQVi6T5YwL7CYuyMmmGv8Bqh4JY2e9efKFN94WdBbBIxlQHlha21J91+tqa0iFzMkKsVhcyynB45Fp0z+uEc80SgB/WBrFgif1nADVjyLDcHMAZNJaKgdAYmpKlZ7Rkj8oRE1FaUny3fRbifk5d0/X1tRQrVWvdLEUiuJpTwaW3719U9C3zfUfOebs3FWf9gY7tPZ3VGIkoVqQSFpbyzm9yEhCVYErFAqqMTNwPx4E3LREQGu/uC0ZjteRAAUBSgeA4ZReWieFuo+/tRJjY53+P5XJZHlbP1sT+6R7q9oBbnZdR/fsEDDMx6VPmKOZx9i+PhkXEmOjgQ5VpQHpmwqVbz73dEbK+TMdm4rA53yv4LCUlVt2dIa0nL4LEF+tQSwx4lyB1zdQWlfH+bsnNjKiqsDRAah/B1S7z/nmqtYc1I4EVE6A/CAS4ZUR9G+S/klO6WXSOk7xGxpmJDbS2f/T/Jzss4M7tDH7atmCkLKSYquGZbtz45rLy4PDwl4fOeg6aaZveJ3yWLp89ovJiccP+1LqeSS5p0/X21/vO96WZVmtn7JmJKFrAZDV1XLvAjCS0DkADNOiM1hXW3v7t99+ixz3/POX+/bpk93F27u4obR03D8i4tabr7+edPbMmRi4wRUgBhd09ofF4O4UFlh3CcjlVLZDRUOVXlOJi/PvnR/h69a9sYq/oU1JUUe7jenjLYMm5zsNr/E8Vmz4YFHiwR0/+vNM32iytk4uuVujzxqBI0g1lbRR5dp4UsF9/CnLMtwTKV/22u+3bInq4OnZ/rVXXomIjorqlpmZ2a64uNi2mKNcvXrVY/fu3f7Dhg4N7d2rV3lGRkai8mboR0x0APTjPmIplCdAnuB5P6Eo5HLyNM9plLPY2JjKA6iT1lGlVx6NcDGhGbd0QkgPF9k/o7qVUkz66Ef16mRSW1OdplSCZiL9+dPm6B/WfdivmSicL1nbtSrefTqlVGwk0Zn3MkilUvJ951zWhwnExiacvusknayujtMgWZKmvkB/WVOzdGqmT5+evPC998KlLX6v6mtseT87O9shsG/fvqcSE0l3VMsJ9CQGOgB6ciOxGJwIUL2xDB6KOKU3MpJQPRHBUzFVek5kBIocuf+3c4W5OZyfkvOyMhxG9vC0rq6suM7w/Dt59O+oVW/OFHRanompWdWeszfumJiZd+JplkaSyWrrqBwA6ELg7HxC5Uw1LoJl2UbTr//881MH9+/vpSqQ4LSyo0eN6pefn39OVXlom150ALTtjqA96iDAqQJvxCBO6cUSuhaA2upqzj/Cjdis1lNb1qzg/TIccBzsR/i6tyGL9nA1+sblC7Fzxw4VdEEesZGRdPfpq5esbO26c7VH0/Gh9YjWAeDcAiCXUrYAsOxjLQAVlZUpH61eHaIsT77xZDKZ+IXx48lYFSpufPNXdzp0ANRNHPPTBgLVdEbIOTkAxqamVE/wxYUFOuUAwJNUCVTEnjSMSwoL7EZ0c3UpKy66qKye3LsZSVOf8A+E/KEVWdlUzceDp1HFDyeSEto6u/RtPqZ2Xi0vLW5xQF1zlktMTDlXhFCJPlaBN5dH/WtisZjkJ6l/juxv3LAhX8j7SnQ2JZcuXeqYX1Cg9PeuKT26cB4dAF24S2ij0AQ4VeANM1fI5ZzGEJhbWVNV4PBE3NAErT6GPmBBXl5UXlpiNbyra4fCe7ktNsmCo3BpbB/vbjKB+4bX7ToQ1albD5U/earqhpYUFHB+gq9vi4WNDdf0lfD/wXnmwMM8TUxMGnXOd2zf3uFhnJa39DGOHDpUSq9F+zWgA6D99wgtFJ4AlQMgk8k5vWHN3Nqa6v/sXm4WVXrh8TWvUSQ24rRUcnPaqiorLEb6evjkZWeebipedXVV6mi/Ti411VVmTcXhc37Bp99GBT05OIJPWm1JU5CbS9X6ZG5tS57IlS6OQiEvUTpyIxFNTU0b+9+U3r1717GR6Co7lXLlSqPjEFSWoYYU69QPi4YYYbb6R6CIpki1NdWc5gybmFs81qTJJf+M1BuCVmxc8uYTVyQW2du2tqdiXD9f4G06umfH7lnpaQn1z5N9mbQuc2xvb6vSokJbciyUTJ37XtzIqTMEHUsglG1c9NxNTyOzVrgkeSQutF5x6k6BFhiqJ2cbG5vGnGu5QqFQ2o5HCsDzoE5Kt3gXz2zVngwdALUjxwy1gEAejQ01ZaVVXNKDA8C7T5Tkc+tqsqCVG9GpYmFHT381Wcg86mprjcf08e5z6/qV+Id6oam5YFKYn5TMHHh4TojtkHFTkmYtXkH6/NVa6Qhhe0MdN5MvUrXGmFlacaojpLW1jVXgDc1q8tjZ2bmxFgTjtm3b5jeZSAUXvLy8GmuJUEFOmlXJ6eZq1lTMHQkIRiCXRhP0TXNqFjU2NbOjyS/95g21Nn/S2Pow7ZQ5C5yNJHQrwj3U9XALLrUt3wAAEABJREFUT5dGLwR1D0o+c+okPBFWvTFq8L20lGT3h9eF2PYJ75+85Jvvu4AuqlYbSK8V4WbKZc5TMesbbmFtw8mBqK2qbLQPv77O5vbd3N3LG7s+avToG42df/ycMGeeGjyYU7mFyVX9WtABUD9zzFHzBKhaAMqLCjiVQGxkRCpw3n2xlWWllnK5vJBTphqObGxi4rFiy/Y4oc0ADuz0gUGBk8P8spOijnoLqd+7h1/qF78fcQKdFiD6EOSZaTfJd493WSTm5pwciIoSulkHLi4ujc5amP3qq2rrBnN1dc1q166dzk355HOT0QHgQw3T6DoBKgegrCCf6yhnc2hK5eY1NCBcVlKU0eCU1h9GDBsV/vJ7y8k664LaqoD+YNpphg0NcnbvcPe7Y4kWLMtStdY01KvJY2ltbSYZP8HbBpZViMVGDlzSF+XRDTqEyrfR1jX71q17vTBxYotL9XKxtam4v+zYkQ7XqLrtIL1OBHQAdOI2oZECE6DqAii+l8f5CdHWwZHK6chIvd5Y36jAWARXx774v0Uhc1d/Hiu4ZgEV2tm3LdyReLlGLBa3E1CtxlXdy8nKpjECmv/vQXpTEKVDUXYmVcXp5OTUZJ20du1ab19f31SljeER8ZNPPony9PQM4pFUJ5M0CVsnS4NGIwHlCFANKCrIzmyrXDb/xXJw70DVhH8x8eR/ynRrjx378uv93v18Y5Q2mm1mYVWx5+yNbImxCdXCRdpYttTkC5wGqzYsg317N84OREH2XZuGergct3FwaHrsBcvaHDp8uE3TLQFccno0rpmZWeWe336LGv/CC4IuIf1oLtp3hA6A9t0TtEj1BLgubvKIReWFBaRfldOPazuPjlR5xh0+wKkv9hGDNX/Ajpg8PfyDzdsjNW/KfxZIjI1rfz1z7aq5lVXX/87qz17C8SOcnt4bltypQ2fOrU7FeTmcugwa5tm6VSuyDG/D0/8dgxOw9uOPAy4mJ5+b/cor8Q4ODqSV4r/rHPYkEkldly5d0j5Zty7q+s2bJUHBwQZV+RNU6AAQCihIgAMB6IMWyerq7nJIwrRydDLnEr9h3AsJseQlNJycjoY6NH08cPTzEWRlPU3bQfJnWVb+Y/SZhNYOjr3JsT5KzIE/PWjK5eDmwW0apEJRUFVeTuWoWllZOStjMxkTsHjJkuBzFy60ycrJqbmbk1PMVdIzMoyOHj/uOX7ChHCxSKRX3T/KMCRx0AEgFFCQAEcCFaWlnAb1WdjYUP3ASOvqjMtLi1Xa/8kRAa/owQOfDt/4d0ysSCTiPSuCV8YNEn2173iUp1dXnV/op0Gx/j2USusy8rLvUj2N2zo4cmrOr66qoBqo2qZNmwJwzPgMwjQBT8WWqwAsSAKfBhzQATDgm49F508g/+5tTk/jrEjc3szSkpPT0NC6i4knqcYRNNSnqePuAf1CvjtykjgBVO9I4Gv/8k2/RPr1C3+Cb3pdSJd588YdGjuhIpabmJlxWmOhKDeXc5dBfRt9u3fn1KpWPy3D4BEfAugA8KGGaQyewN3rV804QmBdvLulcUzzSPT9v/zQfP/oI7G1+8DHzz90R2JygtjIiGpsBNdSzl7yYcyg58bp9Pr+ypT58K87qFpY7Nu7wneVtVYmr4dxcm+lUj1R9+7dm8qBeGgHbpUnoK0OAPlxJaNySf+crgqxn2oQjvK3EWOqm8DdG9fJgjGcsnXr2qOCU4IGkWP/2kdWqOPU8tBAhVYdunb0Ct5z9vp5iYlJo4u/CG3siMnTT06Zs8Agpngd3LmVjBnhjdDDtxfnGQBZN6/b8s4QEvbs1Yt3ixAkx8CDgDY5AMSWiVAGMlK4DLY3QcgbwHRViP1kWcsTUI4JIKR8sMGgDwRKCvLaMwoFpyeWdh4dqJ7gyaIu+TnZV/SB38MyOLq499lz9sZ5YxNTqiVkH+prahs2ZMS5dz/b2Auuc13ECZLoVqiurkrNyUin6v+H1iquv1d12Wk3OtKQ6typE3nwo1GBaTkS4HqTOapXOjp5miLLhm6FFGQqBtUbrECHtgRSDtLcuA0MigYh08dgg0HnCSgUbGVZKaf1yU0trb1FYiOqp92DO3+ietmKNnJv69S+797k9OtmFpYqKVsXP/+rH/38myfDMgbRInfq2KFM2vts59iuPRcddTU1N6S1tVQzXdo6OPAcKMvFUoxbn4A2OADEUyWVf2B9w/Rwvx+UibzJrA1sMegBgaybN0gLj9IlYVnGwsXLm+oJfteG9WT9+0aXS1XaEC2MaNu6Tfe9l9NTLa1tSOufYBa6dfZO33zkZCuWZTmNaBfMAA0o2vr5WqqK1Ma+TaZYLHbjYvq9u3eoVrokMwAkEokLlzwxLj0BbXAAyNMxp9Gm9MXWmAYyL/cnjeWOGQtKIO3Cac6VindAvyIaI6ALoE1JUcFlGh3amtbK1g6cgDt3rO1aFQthYxtHp7xtMedZkUjEeeVGIfLXhA54Ck+/lHTSiyZv78CQ21zTp1+6IOGapn78/v37p9U/5rKPcfkT0LQDMBhMHwBiSIGUeaAhFVhfy5p5PaUzlK0OROng1MmbujL6/fuNpUpnqGMRza2suv55OT3Xrq0D1ZRJKxvb0l1nrhUZGRu76hgCKnPjjxy8RaUAEnt278O5Mr91+RzVQ9yTgwappPsHioOhGQKadgAmN2ObPl8y1HLr1T2Ffk+LmqrKFC6FMjYx8za3tqFqLv358zU9IE+9/cE0M7fw2nvpdomDsyuvlzZJjI2rd5++eoPoAU6GFBRfLnu3A02BRWJxnXXrVj5cdMik0rSywgKlVvBrSm9ff3/Lpq41fx6v0hDQtAOgtytxtXBTDLXcLWDRvcuZ165wbdIXdwvpf5WmpOWlJda3rl85T6ND29NKjE08fz13vc6lQ6csLrZCBSbbkXjlrK19WzJ9mEtSnY9bnH/vwp0b16j60T179LnIMBzn/6enUa0AyLKswr5NG9I9yuCfeglo0gEgeZMBgOotsXbkRgbpkPJrhzVoBW8CV07G2nNN7N03iPPrhBvm8dWSBXr/xCSRGLffkXBZ0bGLr1LN2hJj49pf4i4kOLt7BjfkZQjHP69fS90q1CN8AOfpmNdOxZvT8O3s5ZUOTkArPjowDR0BTVZCpJ/JiM58nU1tyGXX2ZvWmOHZade9FQqG0xK9ZlbW3U3NLbi2HDySfeyh/d2rKyuoWhIeUailB2IjifPW2POtJ745P04kEjW5UEzHrt3T9l+9m+Lu1YXMttHS0qjOLLlMlrPz2/X+NDlA64m0tbMrp+Z/yK8m7eI5skAV7PILo0aNompB4JcrpiIENOkAkPxRkIBOE1DI5eKi7MwrHAsh8Q17knok/9bP11INlONos8aiw9Oh9WtLV/c7kVl6c+mGrZFkUR+o8G/2Dn0i+cV5C2N/u5CW8HPseRcbu9ZkbITG7NRkxn/t2na1rraWPFjwNsOze68LLMtwehKvLCu9JK2toWrRGjFiBE+7eRcVEz4ggA7AAxC4QQJ8CVyOi+T8A9Y1JILzFMKG9m39fE1vePLjNVCuoS5dODYxM+80+PkXItZs+70XVPgdvtp7rOvLiz4IcXJ1J2uIcL4HulBmpWxUKCrWL5pH7fz0HjSsRqn86kW6mhhL1e1gZGQkdXXl3OpQzwLcpSEgokmMaZEAEmCYG2cSuwMHTuv8m5iZdW/Vrj3V3GeyNPDv32/U+24AYIuhGQLxRw8mlRQW8HmN7r9ajU3NS23bOpKlkv89p8SO9HJsZFcl4jUZJSw8/ArD8lukqUmleEFpAugAKI0KIyKBxglI6+rMSvPzLjZ+temzfYeMuNP0VeWufL5oXl/ohshRLjbG0jsC8PT/wWvTiQNKVbTeg4aSWSWc1uKvKi+7UFVW2pom44kTJ3IaP0OTF6Z9nAA6AI8zwTNIgDOB88f/Ju994JTO1aebD+27AaAVwGzPlg3XOWWMkfWGQMyhfUlFebmc+u0bK7xPYAjnBaqg+Z9Tq1dj+YaEhnLO9x89+CkEAXQAhKCIOgyewLXTib0UCgWnpxmWZR26h/VPooX3+cK5gdLaWs7Lt9Lmi+k1SwBafgqWz5rqR2uFq4/vJYmJiTdHPdUXIo9StTy0adMm39LSkmu+HM3E6M0R0FkHgGUZRd8e1lc0JST/5sDiNcMiIJfJJDm3bnIe2e83aCj101tdba3xpwvnYjeAYX3lmK1frL1SVlJsTVvs0NHjKrnqKMrNOVNTWWHLNV39+C/Pnn0FjnnVQZAOgwAEdBa+sURUG7O9dxdNCeTPaQ14Ae4VqtByAqcO/sG5OVNibOLT3svnEm3Rfvvum8CSooILtHowvW4QqKmqvLHhg0XUCx7ZOTjesbRrzXn9gNN/7+U0XqAxquPGj6eeCdOYXjynPAGddQCULyLGRALqIZBzK9Ub+uSTueYWPmYi5yewhnlA9wPz6jP9LViGqWl4DY/1joB8weQx1dDqxHncSUMSYWMmkq4jTvWAQi7LuHXpXM+Gurgct2vXLqeVnV03Lmn+i4t7QhHgdOOFyhT1IAF9JXDxxOFirmWDJ7C+bd09r3FN1zB+avKljlF//ZnQ8Dwe6xeBy2cSYk8e/cuXtlSWdq1yHD069uWq58bZ0zfB4aSqO954800ycJXageFqO8Z/lADVTXxUFR4hASRwIfKIH9elgYEa23/CS1RLA4OO+2HxSxP61tbUkKe6+8f4oV8EZDJZ3tznhlIv+kOoDHjhJVIJm5J9DlKZsO9XqsF/JK9Ro0fznj5I0qMIQwAdAGE4ohYkcJ8AWRMg4+pFzn36Nq3tA9q4uJMf5Pt6+H7UVFeZvTHqqXJIj2NUAIKeBcXKV6dllBYXUfedW9q1zoan/wCufPLSb52uKi+jGrjq7u6eYWVlRfX+AK52Y/zGCaAD0DgXPIsEeBOI3v0LeaFKDUcF7FMvvlzCMU2j0c/HR3c7/uevcY1exJM6SwDua8zBnT8J8prjgVNmpAIIExAuQR61++f2XBI0FvedBQtuwnkWhEfAJEISQAdASJqoCwkAgYqS4rZ5GemnYJdTsLCx8/f07XWWU6ImIi+ePiGkrLSY87TEJtThaQ0TqKmpTn1z9NOc++sbMxtamm60dXHnPIOgvKT4dGH2XU+G4o+s/T9s+HAvChWYVEAC6AAICBNVIYGHBCJ3/OgK+02+vhauNRoiJrxozrIs53QNlcmkUqNJIb1ak8ViGl7DYx0joFBUzBgYLIbuHa799Y0WdPC0V8rgAucBeFHbfzCHdFThhYkTT4tFonZ8lWA6YQmgAyAsT9SGBO4TKMrJcivMzeY8Il9ibOztN2ioIM33ORnp7RZMGZMOBslAMOgmAcXH77xx+fql8x5CmO/lH5RkbmXNefXAytLi05k3rlJP25s3b56xEOVAHcIQQAdAGI6oBQk8RuDojxud4aQUhFPo8+SQLmaWlpyWFW4qg6j9v/vt3fpdbFPX8deIRkAAABAASURBVLx2E4g7vD/6101fcR6s11ipjCSSqtAxEzkvVkV0Hdu2hXrhn06dO9+yb9OG6xsHSfYPBDdCE0AHQGiiqA8JPCBQlJvtVnA3g3MrACMStR4y4w3OCwo9yPaxzYdvzAi/dCo+5rELeEKrCWSmpSb8b/zIUKGMHDhlximxWOzGVV9FSVFSVur1rlzTNYz/4apV5O2XOPivIRgNHqMDoEH4mLX+Ezjy00bSdMt1RgBj3941xK1Ld/KKVkEgzRoaEVSQm3NGEGWoROUEyktLUyaG9Owpl8sF+Y1u6+J+3dWnO+eBf1BQ2ZGfNlnBliqYm5tXBPfrR7V+AZUBmLhRAoJ8uRrVjCeRABJgSvLvOd+5msy9FYBh2IFTZlqTZltGgD8yKPD5vj6dK8rKyAtYBNCIKlRFoLam+uaY3p0dqqsqBRn0x4pEsqGz3yTrQki42pyfmR6fezuN+o19y1esSIJHf6qXB3G1HeO3TAAdgJYZYQwkQEXg6E+beisUijyuSsRGRp5DZrzOeTphU/mUl5ZYPdvd3bm6suJqU3HwvGYJSKV1WeMDupoV5edRLbZTvxRPTHgp1tjEjEcTvqL87y3fdK6vi8++iYlJ9bjnnydrY/BJ/iANblRBAB0AVVBFnUigHoG6mmrL88cP8Vrrv12HzmEd/QIEWRuAmERWkRvT26tVXU0NmR1ATqFoCQGZTJY9PrCb7G76LSehTGrn2fFKp159+DT9M9eSEk9XlBQ70Nry3qJFp0RiMbUeWjsw/eME0AF4nAmeQQKCE0j6e29wXXV1Cg/FbP/xU5xMLSwFeVcAyf9eTlbbZ3t6mtVUVVIvPUz0odATkEnrMscHdZNl3LzhQq/tHw0SE5PKYbPmkLn7nJv+wRlJj/l1W+A/mvh/SiSSmpdeeolq8SCSO4pqCKADoBquqBUJPEJAIZeLD27+ErpBGc5z8qEP13H0nPduMAIsEPTQqPyc7LbPdHW1rywrxdUCH0LR0Bb6/G+N9ussuXPjGvUyu/WLMPL1+efgydu9/jkl9xXHt23JB6eEegzCvP/9L1EsFgtaLiXLgNGUIIAOgBKQMAoSEIJAzq1U76wbV3kt8mNp16rvgAlTo4Ww46GO0qLCViN83d0K7+Wee3gOt+olQJZrHtHN3SYnI13QJvKg4aNjWrVz7senNIVZmXFpF85Qv3OAZVlmzHPP2dbU1NylE8NIz+de0aZBB4CWIKZHAhwI/P39ht5ymSyLQ5J/o3b0Cwj17NFbsPEARHFZSbHVM11cul05dyqSHKOoj8Dd2zcTh3k5dxRywB+x3qmjd3L38IG8Fg9SKBSF+7/9XJABe6CL6e3n193Dzc0ZpWUG5N6pW9ABUDdxzM+gCdTVVFsc/fm7XICgAOEaxAMnTnOzsW+TyTVhc/FlUqnkpf6BEX/v+DkK4lG/hwB0YGiegCL+8IGoMb29/IVa3/9hdubWNveGzXqDzCDgteTuqYN/plSVl7V+qE8btmiD6gigA6A6tqgZCTRK4NbFs72y027wW5lPJGr93Nvv1xqbWxQ3qpzi5NLZk8PfmTjqokIuz6dQg0mbIQBPxeXrFryZMPf5Z8KFWuTnYXZkzYix85fmsSy/l+2UFeYnnD/+N69ug4c24Fa3CKADoFv3C63VEwIHN33RB568b/EpjpHEyHPcgmXpIrERWdyFj4om00Qd+KPnGH/vmoqyMj4zFprUixcYpqamOnVSaK+8Xd9+ESQ0D5Zl5WPnv3/BxIzPfH+GAacv57fPVmvha3qFJoX66hNAB6A+DdxHAmoiIK2tNT+w8fNqyI7zMsGQhjGzsOzx7Bv/47PCIEnerGSmpToP8mzdMXL/b8cgIudZC5AGw6MEFJeTEuIGe7ZxTk2+6PnoJWGOhr78ZoxVK3u+0/bkh3/amF1dUW4njDWoRVcIoAOgK3cK7dQ7Atk3b/hcij2RyLdg9u3dQp+e/hrpt+erosl00DohWTDpuQFvjx9xWSatu9tkRLzQLAFo5s9bNmvK6emDgvtVVVZQv1GvsczCn58S7dzJO7yxa8qcu5NyOfr2pfNa+ZY+ZezHOPwJoAPAnx2mNFQCHl7pjKVNmRDFj/9jV2hpQQFvJ8DVp1v4gBdeVNkI/ti/9/UY4Gpnm3D07+NQXmwNAAhKBsWNy+cThnR2NP5r51Z/JdNwjhY0fHS0d9+gMM4JHySAp/5zh7Z8HfLgEDcGRgAdAAO74VhcAQg4exSz3xwU5k19CgX722cfepOV1/ha1tEvICLk2XEqaQkgNlVXVVq8NWZI/9lDI65XVZTj2AACpRkhff3znh92aVKoX2BxQb7KXoDTa+CQuO7hA3m/Lpj0++/++IP20Eph1ExxNHgJs1Y1AXQAVE0Y9esnAd++IcyAUReFKFxNZYXNH+s/kjKMopyvvq4hEWHBKnQCiF3n4qN9+rvYeH2+cF6UXCYTdCoi0a/rolAoinZuWB/Xv721e9zhg91VWR5S+fcdPJz0+ZPVJflkVXtw8xf3KktL2vBJjGm0jgCvpcLRAdC6+4gG6QgBll39cyvGzKJKCHvzM+90iN69jbyql+88fNY3JCL8ifGq6w4g5YRKTrT960/DB7ja2h3+dUcUo1AIPh2R5KNTolBUxB7aH/mUp73o03ff6ieTSlX6RA3N/jFQ+ZOZBGK+nM4fP5SQeS3Fl296daTDPDgRuMkp9oPI6AA8AIEbJMCZgETSnv1k9ynO6ZpIkJIQ2/fGmUR+6wM80Nm5T0DE4GmvqmxMwINsmKrKCoslMyaED/RoLTr+x65IcAxKHl4zoG1F/JG/op7u3K7m7XHDI8ibFlVd9oixk6Kg2Z/02fP+7c68nhKZeOB33uMGVF1G1M+LwEE+qXh/ifhkhmmQgN4RCB4YygQ+KVi/+PFfvg+/l3E7loaTWxffiNFz3o0RiUTQrUCjqeW0ZSXF1u+9OC6iv6uteNsXHx+rq61NazmVbseQy+T3jvy2I3Zwx7a1c8cODRd6Kd/G6JB5/sNmvhHlFdCPjPbn2+zPlBTkJxzcuF4HKv/GKOC5JghUwvmNIJwDOgCckWECJPAIARH7xZ/mjIU1+Sd85ALfg9/XrwksLyqimuNPpghOXLLqkrGpmSCzFVoqS1V5meUXS+YPCHeycFvz9qsJ+Tl3T0MafZo1oCgpzD//5ZL58eFO5jaLp00IKS7IV8u8ebGRpGrsO8tOOnt1IZU/YOUX6qqrUn79eHkPaK3B331+CLU11WIwjNf7RfCLAOQwIAEqAhJjN/anmEtUOuolVsjlRrvWLu1eV1NNxgTUu8Jt18zKptekpR/lWLW25/XjwC23f2LLZTLxb999EzjMx6XPyO4eeYd/3RFZW1PNq3/yH42a/ZTW1qZHH/gj8vm+XTKe6tC2589ffBwMrRy81tnnUxJza5v8ycvXpNm2aUu1RK+0Tpq2ffX7baE8KlmLgE/ZmkuD15Qm8DXEXAfCK6ADwAsbJkICDQh06BLATH83rsFZ3od1NTXmP69Y6AiVzVXeSiChkcS40/h3PzD16OF3AQ7VGnIy0tstmTEhIszRvMPksN43j/6+K7KqopyUh+9AR7XYX1NVeSPmrz8jZwzqdy3EwdRt/sRREek3rrqqJfN6mTh6dkx+YdGH1cYm/Jb3fagKnLIscCjNq8pKWz88h1udJ1AAJXgZ5FUQ3gEdAN7oMCESeJQA++qyXkzn7rzW939U0z9HtZUVrbZ/uKi1TCqleoKG/uNWgybP7Bb+/ORohmUV/2hX7+f1S+c6LHppXMQT7a29h3g7FX4JTek3Ll+Ira2pua1eSx7PTSqty7h1NTlu48olscO7uOSGO1l2+t+EZyMuJZ3U2Nr4vQcOjRzx6tueIrG4/eMWK38GWpNydq1ZLi0ryHdUPpXGYuZBzmcYhjmD20YZnAQuO0Gmg3QA4dXvD+n+DegA/IsCd5AAJQGWNWd/ipUxJmZkjX9KZf8kh6e2NjtWv28hk8ky/jnD+1Ps3Tc4bNy7yxONTc1LeWsRIGFhbo49aUqfFNorJMzRzP1pr3YFK9+YcerYH7ujMtNSE8ApIE6UKgYwyqEJPD37zu1E8oRPxiqQCj+kjYnL+CDffls+XhGSl33XQYAi8lZhZGxSMWbuorg+g5+JACVUzfXQ15+/59MPK0ryc9XeegG28wk2kGgHSF+QPihMQwbBwGQcyHcggsy6QQcASGJAAoIRMDXryG4+miSYPlBUXlTguH3FexJ4Ur0Bh1TBpnWbwCnL15a7d+1xgUqRgImL8nJb79v6Xd+FLz4f/lzvzoFhjmYeoQ6mcuh3v7Ng8nPnNq1eFvv3zm2RSZFHo0irAXQtJBbdyz1LpKKs5HJFaUky2SeSk5l+KjX5YlxS9LEoMv7g+09Wxix8adzZ8UHdboc6mtWRJv1ne3gGkCd8MlZB0xV+fYztOnROefGDT+61cm5P1d9PdMKTf97vn60qK8jKJE+K5JQuiAkYuRbkBIgHCAYVE0AHQMWAUb0BEvDtG8rM+YhqPn9DalDJgROw0E5aW3Ot4TWux9Cs7PTUS7O7D5v1ZrxIbFTLNb064tfV1hqnQ7975L7fen330bKQpbMmRbz+7KBw0mowsrtHwNOd2/kRGeBq122Am11Xsk9kpK9H34khPfu9PmJgOBl/8O2KxaHHft/ld+vqFfe6mhpSwajDfE55QBeNLOy5CUeGvzK3g8jIyJ1T4kYiy2WyTGj2r72Xecejkcu8T1la2wjy1KmEAWSaInFQpykRF6NQEEAHgAIeJkUCTRFgp8wNYp4cfa6p63zOV5aV2v/8wXsOtdXVl/mkb5CGde7kE/ziinW3nTp2Tm5wDQ/VRKCti/uNqSvXXfUJChsIWVLPLpBJ627+snKhpPheDtXYAbDlkeDh0+XG5thExfKft580MTUVrIvrkUzuH/z7YQV7m0H2gmi0Wwby19uADoDe3losmIYJGLEfb+/IePcUdJBbTWWF7c/L3/GoKCslA6Woi2hkbNz5mdlzvZ95ZW6UxMSkglohKlCKgJFEUjX4pVeinn1rgTvtKP+HGdZWVV3e9sF7dhUlxYJWmNatW+et+GWXMcMytp179AoCRyDLp3cfwRa/emh/E9tn4DyZYjsKthgEJoAOgMBAUR0S+I8Aa8VujRczdm0EXS8fmrItflm+oEde+q3o//Ki2hM7degcPvWDdSXd+kVQLUBEZYWBJPbyD0qauvKzPLeu3cnCPhIhil1yL+/kT0vnd6wqL2slhL6HOoxNTKs+238oT2xk5PbwHDiKnu//8HOnt9d/FQ/nBR2s+TCPBts2cLwH5EcQMlAQNhiEIIAOgBAUUQcSaIqAROLC/nr+FmMkEfSHUi6XG/2+/qOw5NjISMhaDkIdyNiAfqPGBb64ct0V587eZL4+tU5U8B+B1k7tb0x6/6NTEeOm+IvF4n8r1P9i8Nu7eyMlfudH7wdC878pPw2Np2Jjz9xtAAAQAElEQVRZVv7Rr3+cMbe07NZIDKM+TwwI3hybcM21U2cya6ORKIKfmgwaSbdaY/bAJQxcCaADwJUYxkcCXAm0btuL3Zl0ihGJBKmo62cf+/uOiJhftyUpFIxgzffGpuZdhr38Vucxby+Os23jQDv9sL65Brlvadc6e+QbC2Kem7fI09zahkxxE4pDzdnD+2P2b/g8WKFQ8H4/QFPGvPP1xuh27u7kxUNNRWHMLCy7rvltr8Pk+QuiwWGgXGOiyWzqXyADG8mCW4H1T+I+PwLoAPDjhqmQADcCHboGs1vjExlW8N9p5srJmIBfP1meJ62rS+VmVLOxRa3aOfd7fsEyxzH/WxJn5+CY3mxsvPgYAXMr6/ynp78W9cKilbYObu6hEEEMIkiAFqCsAxs+u5F0aD/RK4jO+kpmLF1+pGdIKFmLoP7ppvbNh0yaGrYhMvZcG+f2WU1FEvC8Neg6BIJOAECgCegA0NDDtEiAC4GuvYPYbw6SpxcuqZSKW5id5fHT+2+3I33BSiVQPpKklaNTv7HzlzqNnvNejL2zy03lkxpmTNu2jneGv/p29KSlayxdfbqRfn4zIUlUlpac/nnZfNPMG1dV0hQ+6X8LIgeMHktmJXAy26ZVa7/1fx+xHPPqG4mcEj6IzHGDTgBHYI1FRwegMSp4DgmoikDgk/2YFd+TfnvBcyCDA3esXhJ0OfYEGRxYI3AGEvv2rqGj5y70hH7s0x169D4LrRnqaPIVuBiqU+fi3e3i+PdWJj7/ztL27Tw7hkFOgvbJgz7ZzfNnIn9evsCvqrxc0MF+oPt+GDljVszQyVOJ7fePuX6wDGs9etYrAZ8fOJxg3apVIdf0HOOjE8ARWMPo6AA0JILHSEDFBNhhEyOYd9erpCWAmB73+86w39d/lC5wlwBRTYSFfuw+T06e4Td99fq00OcmRJGmbnLBEMXE3KI4aPjo6Jc+/PzqkBmvdbdu3ToAOAj+u0qWgj6wcf2Vo1s3RUB/v+D6wWZm4Jhx8ePeeCsI9qn1O7i6Bn57Ik4WMWo0eS00qGwp8L6OTgBvdAxDfaMp8sakSMBgCbDPzw5i3lpFntRVwiAv/VbnHxbNdbl77UoUZCD44EPQyYiNJB26BIWFT1q6xoY8+foEBJ8SGxkJ3fJAstIqEYlE0o69+pyBJ/34qR98Yto9fGCYxMTEW1VG5mfeiflx8Ty7zGtXfFWVx8DnxyVMW7KUrD1vJFQerIhtM2vZyt4rt++OMTU3rxBKbyN60AloBIoyp9ABUIYSxkECwhMQsVPfDmUWfaUyJ0AmrTPZv3F9+KHvN1wkT5DCF+FfjRLy5Bs2dnLf6R99UTP2f0vifAJDEsVGEnWsGPevEarcEYnFdR39+p4m4yCmr/m6dMDE6b2hr5+8nEXoZv5/iwFP+rnRu39O3PPph6F1NdWW/14QeGfkjJdjpy26X/kbC6yaqGM7dPMN/S42sbBr34AmV5wkESkFnQAeANEB4AENkyABgQiw7HMzw9gv9pKndIFUPq7m9uXzPX9Y+JZ92oUzJB8VP6Gz1naOTv3CxkwMAGdAPmXpmrMR4yZHtfPoqK6V4x4HwPOMjb1DRt8hI2PGv7v85PQ1X1UMeOGlPmQcBMsyKul/r2emojAnK+6n9/9nnJIQS7oU6l0SdnfCW/Oix70xhzgygj35N2Yhy7KiguxsVS/ig05AY/CbOYcOQDNw8BISUAuB0KfD2a8PRDEsq7JBddK6OrMjP20K/+3TDzNqKivJ0qrqKJq5qZW1n5d/cPjw1972mbH267tj5y+NCxo+JtrR3fMqaUpXhxHK5AEVlLyNi/sNUuGPmbcoFir89HHvLnPpNWBwqLV92yCWYWwZNfyRlz3t++azK7vXLu9XXVFup8osZyz9IHL4tBmhkIdK6wH47t15c9hgNifjThPvJwALhAvoBHBgqdIbz8EOjIoEDJtA8KBw9vfLSYyJaa0qQdzLvNPxhyXzup3+e1+sQi7PUWVeDXVDhe9s5+DYr3v4gLARr8/3Boeg5sUPP00ePefdmJBnx0V5dPc7Z9WqdRYrEskaphXsGJwsCxvbXPeuPc4TR4Qs0DP1g3WXZqz9pmLUWws6kQq/lVP7ELFYLNhKfcrYDs39hZeij0V/v3BOh6zUq12VScM3DnF23v7i60MDRo8h8/zBt+GrqeV0cqn07rwRQyX37mY6tRxbsBjoBCiJEh0AJUFhNCSgcgLunfuyf6ddYaxsy1Sal0LBnjlyIGTLwresU8+djlQIuIogR7stjE3Mutq3dwvtGhIRPmjKzF4TFq50mrn2azk8gWdMWbb2PFmN8JnZc6IGTJwWSUbb+4YNONklKDTRs0fvs0Tae/lcduronUz2iZCxB75h/U8GPDMqesALL0YOm/VWFHmin7xs7TnQmf7yx9/UTlyy2uGpl2b3JI4IWaDHxNzcl2UZK462CxW9+s7V5KgfFs0ziv9zd5hcLldpU7zExKTy0/1/n+wT0f8poQrQlB5S+c8ZPkSUm3GnXVNxyHkVCToBSoBFB0AJSBgFCaiNgF2bnuzRO1lM+w53VZ2ntLbW/NjPmyO2LX+nIjf9dgzkp9LWB9CvbJCIxWIXU0urnmQ1QqeOXuEde/lHkNH2wSPGBIU+90LAwMkz/IgMnflmt2dmv9WV7BMhYw+CR4wN6hkxKKyjX0CEcyfv8FbwRG9madULdJKnehNljVBxPFkR9PPvWLU4/69NX4TXVleSCkulWVrb2eVvOBGb6ujq1k+lGYFyDVf+YMH9QJjiioH3UTT+gQ5A41zwLBLQHAETMy923xUzJvyZi+owoqK0pO0f61eH/vLhons5aTdOQJ56M3ofyqJtQV6Sl3Nq98cr7uyCfv6S/Hvq6BdnoFtF/uWRyBILK6vuqgYirau73+ev3JO/qq1h0AloBjE6AM3AwUtIQGMEWFEr9vPfujBzP4pXlw1lBfnOf371yRPbViwsyk5LJdMTK9WVtwHkU1twNyN215qlGTs+Wtq3MDuTvNRGbcVWyOWiyD/2ZKo6Q5lMmqmBPv+WioVOQBOE0AFoAgyeRgJaQMCInTw3mN0aF82YmKrtqby8qKDd3q8+Dvt+0dzqK/HRR6FfWuXdEVrAWiUmKBSK/PQrF2O2fbCw+Nd1K0OKcnNIN4RK8mpJ6fcfrggtKyw811I8vtdJ5T/3mSHiXA59/nzz4pEOnYBGoKED0AgUPIUEtIqAb98w9kROOuPhfUeddtVWVbaK2fPLk9+985pD/J+7TlZXVpIuCYU6bdDVvOqqq1PITIvvFrxu9fd3X4eWFxe01XRZSCvAu+PHtGUUTDEj8N+Dyt9ISyv/h6VFJ+AhiQdbdAAegMANEtBqAuYWXuxvF22Z0TPU8aa1R1BAC4DRpejjQT8untt9+4eL02+cPXVYIZdlPBIJDxiFQl6cc/tmwh/r16RuWfiWD5lpIZNKtWXQ4f07lJ9113nXV59fvn8g0IdUWncXnvxJ5e/ITaVGYqMTUA87OgD1YOAuEtBqAixrzc5ZranpavfRlBbccz++bcugTfNfcz7y06azZJ16hUKh6re+3c9bKz8UihIymj9yx49Jm+e/ZvnnF2sDc9PTOmqlrQ+M+u3bb0LyMjJOPjik2pDKf97woaTZX/DKnyzK9PT0V1Xx5kx0Ah7cdXQAHoDADRJAAsoTgEpflHbhjN+eTz8M3TT/VZvDP2w4l3MrNRqamXOU16KjMeXygvzM9Jhj274/vemd183IaP5rSSf95Sqewy8krUUTn+8slyvyaHTSVv7N5e3/9PDoXgMG93P18Y0YOuP1mObi8ryGTgCAQwcAIGBAAkiAPwGo9MW3Lp3v9eeXH4dt/N8rjjtXv59x7tjfMaX5efCUqSjlr1lrUlZXl5WevZYUH7X3y49TNs5/1W7Pp6tCU88m9pHLpKp4gY7KC15aWNh609KFt/lmRPr83x4+VAF9/oI/+fsPHh7j9+SQELDtfv3U3rtr6LCZb0TBsdDB4J2A+4CFpor6kAASMFwCxfdyXU4d/CN0+6olQZvmv256cNP6S1cSYqNKCu4lKBTybG0no1Ao8sqLChOvJSVEHtryzfnvFryu+HHpfL/IHT+FZ99K9YHrevG7eeL33/reSrkSy/V+SOuk6W8OeUpMt7Z/47n6Pz0i2m/gELJQ0SOMnb26hGNLQOPMaM4+AplGEaZFAkgACTQkQJ6QM65e8Y3Z/XP4jg8XB258+5V221a8l3Ni+49J1xLjogqz78bV1daQNwVWNkyrhuMa8vKd4tzs+OunEyKjd29L3LFqcebGt2e3BRsDInf8EHE7+UJPaV2dmRps4ZJFHZfIzcVd9uKkHqRCby5O/Wsk7lvDnjLOz7rbrv55Ifb9nx4Z5ffk0/8++TfUSVoC0AloSIXuGB0AOn6YGgkgAY4E4Ona8frpk/6Ru7aG7/74g35b3n3T59t5s8x/Xr4g98CGzy6TKYcp0GKQnXYjmlTOlaUlp2trqpPBmbijYJhiIpClFKRhkJFrROQyWSaZildRVnqmOC8nPjstNZo04Sfs3RN/YOP6SyQvqOgl3737ptfONcuCT2z/ISIlISagRE0r8zU0nMPxHxDXG2Q3CHWorqiw+viNV4pAUYsvYJLVSW8LVflDfo+Efyr/waFwstk66b4TMPMNskgVRBU0GGR3QLOwBcWLypAAEkACzRCoKCl2yLxxtRuZchgNLQZ7v/okjFTOW5e90+f7997qumn+a64b582yJQIOgxEIQwQqcjnZgojJNSKb5r/ankzF+3np/N47P1oavPerj8NIE/6FqCPBmdeu+JK8dKwpn7SSDAJ8z4KkgcwGEaQ75XxsdM+LJ+NjQV+TgVT+bw4ZZKK6J/+WK/+HxrX36hI2FJ2AhziotugAUOHDxEgACWiagI5V5Fxx5UKC10F6gBwBeRgKYGc6CDR4wCdlWPvarICamuobjan5p/IfaJqfkyVQs/9/uSj75P9fin/20An4hwPtJzoAtAQxPRJAAkhAeAIVoPIjkM4gX4I01u9/EM5vBKEOdbW1piunTZWDolqQf8N/lX+2Ckb7j4jxe1L5J/9/jXqwQ5wAnB3wAAbPDToAPMFhMiSgowTIMrBEdNR8vTebVPyfQCnJy4IWwLYUpLnwNly8CUIdrl847xV7YF/8Q0WqqvyJ/vtP/gOffmy0P7nGRe7PDsDuAC7IHomLDsAjOPAACeg9getQQleQt0AE6UMGPRjoCZSBivUgZBVBUqnfg31lQjlEmgzS4iA+iNNi+Oq9d8LKS4ovqrTyH0z35N+wENgS0JCI8sfoACjPCmMiAX0hQCqbz6EwpLJ5E7a3QDBohgB50+J7kLULCLkXfFZSJE/tH0N66qCQy0VLJk2wfXMI6fNXQbP/0yOj/AR48m9YUGwJaEhEuWN0AJTjhLGQgD4SIHPvHz51DoQC7gcRZFAZ6MHQPIGzcHkKCGnqnFULRAAAEABJREFUXwXbEhCasAQSXwChDlm30lzzc1RQ+Qv85N+woNgS0JBIy8foALTMCGMgAX0nQAZ/HYVCPgPSE+RrEBwnABAEDqS5fgvoDALpDfITSGOD++A050AG75GugBrOKdWQ4GGfP2Sl0joHWwKAMIeg0pvBwQ6MigSQgHYQuAhmvAriBEIqFLIGO7YKAAyKkABpZ4AQptNgS45hI3gg9+59wbVSKrxf+VOM9ueaPWkJwHUClKOGDoBynDAWEjA0AlVQ4K0gESBuIGTQYBxsMShH4ApEWwbiBUKe+DfDloy9gI1Kw1rQTpw22Gg+9B1Sf8Cf+uwhTgBOEWyZNzoALTPCGEjA0AlkAAAyaJCs0+4D+1kgGB4ncA5OLQfpDtIVZCkImXUBG7UF0p3zEuRGuhtgo7nQd8jIqF4D6Kf68S0Bdge0TA4dgJYZYQwkgAT+I3AVdmkHrIEKvQikkj0AJSHL8pJR/H6wT5rgL8FWk4EsFTxPkwb8U/k/usiPJuwhLQHYHdA0eXQAmmaDV5AAEkACDQmchBOkkietIa1gfxjIBpBMEG0Km8AY4pzARr1BWyr/h6VGJ+Ahice36AA8zgTPIAEkgASaIkCe9kkzPxkPIdQI/qbyojlPBm6SroA8GiVc05I+/14DGnvy56pJ2PjECcAxAY8zRQfgcSZ4BgkgARUS2D6gW+SmUO/IGT7OCX3aWF83FYuqVZidIasmlf9r6gLwz5O/5vr8Wyonjgl4nBA6AI8zwTNIAAmokMCg9q1cx3dyjPg0qFNg5DN+nfOnhBqXvBiemzUpJDl5TEDCoSE9o74K8Yp6p6db7Iud2yUOdrG/QBwFdyuzLDsTo2IiYpaVNjRRImLryDUiLhamOT3trVKfat/q4lTQsQB0re/nFelgZpLfMJ2eH++G8m0DUWn4p/IfHAaZNFqnwHmtCKQlAMcE/HcrtPpm/Wcm7iEBJKC/BFgRVOgO1hKjrm5WZoH9HG3Dp3RuF77YzyPkixCvgF8HdutBHIXLYwKcMl4IsSUCDoNR+UsRTH0pmhouIdeIpDwf6Bg7vHfHPYO6d/8SdCwCXS95tYtwtTQp1F+OTZaMrOtwp8mrlBceNPuTyp+lVKWW5MQJwO6Af1CjA/APB/xEAkgACegrATJr4yUoHBkXABvhwj+V/9NkQGQzlb9w+QmliXQHoBPAMOgACPWNQj1IAAkgAe0lcAxM+wpE0CCXyVhQKLhjATpVHtAJYNABUPm3DDNAAkgACWgHgXfAjGsggoXTh/aHnDm8n7yNkCxA1KhebT5p6E4AtgBo87cTbUMCSAAJCEeAvP3xBVAn6PRFdAKAaOPBGk4fAgkE0cqADoBW3hY0CgkgASSgEgJnQOtqEEFD006AoNmoTNn9loCX34xUQQZa7QSgA6CCO44qkQASQAJaTOADsE3wNxISJ+Ds4QOxoFs3uwM6+0QY2hRBdADg24oBCSABJGBABEgXwCgobzqIoCHp0L6w+k6AoMrVoIxMETQkJwAdADV8qTALJIAEkICWEcgGe8jc/VuwFTQQJ0CXBwYSJ2CYgXQHoAMg6FcflSEBJIAEdIYAWRwoAqwV3Akg3QFnDuvw7ADoDjAEJwAdAPj2Y0ACSAAJGCgBdAKauPHOBuAEoAPQxM3H00gACSABAyGgEieAsMOWAEKhUdGK2QHoADR6b/AkEkACSMCgCKAT0MTt1ueWAHQAmrjpeBoJIAEkYGAEBHQCHiWHLQGP8qh3pNGWAHQA6t0J3EUCSAAJGDgBdAKa+ALoY0sAOgBN3Gw8jQSQABIwUALUTkBT3LAloCkyjEZaAtABaPJ+4AUkgASQgMESQCegiVuvTy0B6AA0cZPxNBJAAkjAwAnwdAJapoYtAU0yUmtLADoATd4HvIAEkAASMHgC6AQ08RXQh5YAdACauLl4GgkgASSABO4T4OQE3E+h5Ae2BDQJSi0tAegANMkfLyABJIAEkMADAsQJGAD7ZAsb4QJxAnT5BUKkJUDFLxDyF472o5rQAXiUBx4hASSABJBA4wTIOwNC4RLZwqaxwO8cvkCoSW6kJeAgXPUCETygAyA4UlSIBJAAEtBbAqQFAF8g1MjtJS0BKnqBkD1k9xdIOxBBAzoAguJEZUgACSABvSdAnIBGuwNoS47dAU0S9IArv4IYgQgW0AEQDCUqQgJIAAkYDAHSDYDdAY3c7vZeXcJU1BIQDNktBREsoAMgGEpUhASQABIwKAINWgKEKzu2BDTJ8l240h9EkIAOgCAYUQkSQAJIwCAJYEtAE7ddRS0BpM7eCFmagFAHooxaCSpAAkgACSABgyVAWgIioPTEGYCNcIG0BJw5vD8eNMpBdC6oaGBgBwDxFgh1QAeAGiEqQAJIAAkYPAHiBDwJFMgWNsIF4gTgOgGP8VwIZ6hnBaADABQxIAEkgASQAA2B+2nT4BMHBgKEhkEF3QFWkMccEKqADgAVPkyMBJAAEkAC9QiQFgBcJ6AekIe7KugOeBl024DwDugA8EaHCZEAEkACSIAQaCDECVBZd8C5owd1ekzA09Nfi2zAi+8hWSVwOt/EJB06AIQCChJAAkgACQhJQGXdAaf+2huiywMDXX26RUSMmxolEGx0AAQCiWqQABJAAkiAM4EmE2BLQBNovPwDw3wCQxKbuMzltDdE7gbCK2ALAC9smAgJIAEkgASUIEBaAp6AeMQZgI1wgbQE6HB3ABv63MROFja2uQIQGctXBzoAfMlhOiSABJAAEmCUQKBSJ0BXpwiyLNNqyMw3UpXg11KUoS1FaOo6OgBNkcHzSAAJIAEkIBQBlTkB5FXCutoS0MrRKbiNi/sNSsjdIT2ZFggbbgEdAG68MDYSQAJIAAn8S4DTjsqcAB3uDmAjxk6k7QYgbwgM4HQnHkRGB+ABCNwgASSABJCAygmo1AnQxe6AVk7t/YyMTSopyaMDQAkQkyMBJIAEkAAHAjyjqswJ0NHuAPPOvfte4snyYTLPhztcttgCwIUWxkUCSAAJIAEhCBAnIAwUCf4CIdIdoGvrBHTo2acaWNAEVz6J0QHgQw3TIAEkgAQMngA1gHTQgCsGAoTWTu1tYUMT3PkkRgeADzVMgwSQABJAAkIQwJYAoCgxMW0DG5rA650A6ADQIMe0SAAJIAEDJSBgsUlLAFksSPDugNOH9uvEssEisZhXBV7vHhjX21d6Fx0ApVFhRCSABJAAElARAeIEGHJ3AK8KvN694JUeHYB6BHEXCSABJIAElCGgkjikO4C0BKhk2WBtniKoUCgKVUK0BaXoALQACC8jASSABJCA2ggQJ0AlswPIFEFtnR1QV119j5Iwr/ToAFBSx+RIAAkgAUMjoOLyGlx3QGVpcSkl0wI+6dEB4EMN0yABJIAEkIAqCZCWAIPpDsi4liKlhJnDJz06AHyoYRokgASQgMESUFvBVeYEkO4ALXqBkCI5LsqDkmoyn/ToAPChhmmQABJAAkhAHQRU5gSQFQMfOAEKdRSkqTyqysvOl+TnujR1XcnzvJYSRgdASboYDQkgASSABBhGAwxU6gScPXwgBsokB9FIiN69jRUg4/N8dKADwIcapkECSAAJIAF1ElCZE1CvO0DtLQFlhfkJty+f70kJkvT/YwsAJURMjgSQABJAAs0S0OhFlTkBD7oD4qB0anMCFAp59h9frO0AedKGw6CAl93YAgDkMCABJIAEkIBOENAPJ0ChKNn71bqSytIS2ncAkJt2gHzwEXQA+FDDNEgACSABAySgJUVWhxOgujEBCkXR3m8+vZtzK9VbAJ5kBcG9fPWgA8CXHKZDAkgACSABTRFQqRMQ/+euRChYDYigQS6X393z6cqi7JvXuwikeCvoqQbhFdAB4IUNEyEBJIAEDI2A1pVXZU7ApejjQXu//DhNLpPdFqrU5UWFST8ve8cs/26mp0A6SSvFtzS60AGgoYdpkQASQAJIQJMEVOYEZN9K9fl+4VsOaRfPRCoUTAXfQirksoy433cmbFvxnn9VeVkrvnoaSfcLnEsB4R3QAeCNDhMiASSABAyHgBaXVGVOgLSuzuzIj5sifnr/7drrpxMiZdK6m0pykFWXlZ5N2P9b/OZ3Xm93OfZEoJLplI1WBxGXgVAFoR0Ad7AmFORJJaQ/xOEd5HKFKDe/NklTQvLnbfw/CUn5leHUVJx2/6jh91l1JrW2Lq8kSRNSdeOuKT+r/03lA3tNcVHmfB9Izz8U5pkzhXlnNSKpl/P5G34/pQ18KsOouTgWoIN3SCmqyLpXXXtWE1JcKzXjbfg/CQNg0xybh9ciIJ4XiNC/saASQyMEVOYEkLyqK8rtTmz/IQIq8w47Vr2fcerAH3F3Ui5FFuflxJcVFZ4i8/kLszJjU88lRUbu+unUD4vnlf24dL7fhROHg+VyuRHRIbCsB32pIFRBiC8n+TF/G6y4DnILJBrkiBJyEOLwDnVShcQ1LM5fUwL5097Uv6DwynBqKs5ASM873Jn/3RPJvV7z14QU/37Sn7fh/yScC5umuChzfh2k5x+unO2k6O/spxGZGk5elcrfdoYhlZIyjJqL40pjQMjeMyEev8T7aUJulFTSLrlK+lybY/Pw2glgdBUkE2QNSGsQHQ46YbpKnYCHBMiyveeO/93vr81fRez8aGnwLyve6/vLykWBuz9ZEXLs5+8iriXG962prLB9GF8FW1LxLxFCL60D0BmMOA+yFqQTCAYkgASQABL4jwBpqfsfHBJnIBy2GFRLQC1OgGqL0Kx2GVydBlIJQh1oHAA3yJ087ZMnCtjFgASQABJAAk0QsIfzh0D6gehc0DGD9dkJWAD3gtS7sKEPfB0A8vKC7ZC9AwgGJIAEkAASaJmACUTZDWIJgkG1BPTRCfgZkH0MIljg6wA8AxYEgWBAAkgACSAB5QmQLoE3lI+uDTF11gZ9cgL+hrswA0TQwNcBmCCoFagMCSABJGA4BPD3U333mjgBZOAsGaCuvlyFzYm87OdZUMl7xT9I22jg6wAIPaexUePwJBJAAkhADwl0hTKR6Ziw0f6gBxamQxmeALkGomvhDzB4BIjglT/oZPg6AI4kMQoSQAJIAAnwIoC/obyw8U5EnIAQSE3W+IeNToSvwMrnQFRS+YNe3g5AGUmMggSQABJAArwI6MhvKK+yaWsisojWADBuB4g2B7LK3zww8DUQMu0PNqoJfFsAyKI/qrEItSIBJIAE9JtAMRQvFwSD+glUQJbjQciAOkHm0oMuIQNZapi0VNAtVqakRXwdgH1K6sdoSAAJIAEk8CgBsgqqSp/sHs2O/5Eep9wMZSNLgpMVG2FX44F8H74BK/xAToGoJfB1ADaCdcSLhQ0GJIAEkAASUJIAeYUrWTlVyegYTYUEUkA3eSfL87DNANFUIAv79IbMXwEpBVFb4OsAFIKFb4JgQAJIAAkgAeUJkIVcyPLpyqfQWEyDyXgXlJQsZU+6BdQ5U4C8N2IQ5G5zQogAAAMjSURBVE2WiL4AW7UHvg4AMfQn+HgPRAGCAQkgASSABJon8PA3s/lYeFUTBGogU9It0AW2w0F2gqhijEA26CVv8usFW1L5EycAdjUTaBwAYvEq+CCrAuKgQACBAQkgASTQCIE8OPcyyBQQ0tcLG+0PBmoh6aIhY9zGQfnJUvdk+y3sk+4C2HAOZER/PKT6CIR0N7jAlrSea0UrEK0DAGVhDsAHWdiCeDOkb4tMsTgK51AYBhkgA/wOGOZ34Hf4DfwchMzj9oAtGTcFGww6RKAcbCUtAbNgS1oG2sCWrCpI3sa3AvbJPd0GW7JYD3nHww+w/zXIIhDiOJBBhuS1wOQFUOQlPmTAoVY5gEI4AFBWRgofpCljPmzJFIuBsEVhGGSADPA7YJjfgVHwG/gWyB4QVTQlg1pVBtTdCAGyjkAMnN8CshiEtOpMhC1ZpncsbF8EeRVkJQhxHM7AVqvvvVAOAJQTAxJAAkgACSABJKArBNAB0JU7hXYiASSABNREALMxDALoABjGfcZSIgEkgASQABJ4hAA6AI/gwAMkgASQgKETwPIbCgF0AAzlTmM5kQASQAJIAAnUI4AOQD0YuIsEkAASMHQCWH7DIYAOgOHcaywpEkACSAAJIIF/CaAD8C8K3EECSAAJGDoBLL8hEUAHwJDuNpYVCSABJIAEkMADAugAPACBGySABJCAoRPA8hsWAXQADOt+Y2mRABJAAkgACdwngA7AfQz4gQSQABIwdAJYfkMjgA6Aod1xLC8SQAJIAAkgASCADgBAwIAEkAASMHQCWH7DI4AOgOHdcywxEkACSAAJIAEGHQD8EiABJIAEDJ4AAjBEAugAGOJdxzIjASSABJCAwRNAB8DgvwIIAAkgAUMngOU3TALoABjmfcdSIwEkgASQgIETQAfAwL8AWHwkgAQMnQCW31AJoANgqHcey40EkAASQAIGTQAdAIO+/Vh4JIAEDJ0Alt9wCaADYLj3HkuOBJAAEkACBkwAHQADvvlYdCSABAydAJbfkAmgA2DIdx/LjgSQABJAAgZLAB0Ag731WHAkgAQMnQCW37AJ/B8AAP//vJ+7SgAAAAZJREFUAwCL/3hXIEtZEAAAAABJRU5ErkJggg==;" vertex="1" parent="1">
          <mxGeometry x="685.95" y="222.95" width="67.05" height="67.05" as="geometry" />
        </mxCell>
        <mxCell id="IlQ_oIKO42jYGwAs0e9v-82" value="" style="shape=image;verticalLabelPosition=bottom;labelBackgroundColor=default;verticalAlign=top;aspect=fixed;imageAspect=0;image=data:image/png,iVBORw0KGgoAAAANSUhEUgAAAgAAAAIACAYAAAD0eNT6AAAQAElEQVR4AexdB3wURRd/u5e7NEhChxBILpfQe+g1gHQQRSyIIiqCDSyIgIiIBcGGDURAUex+9o6KIlKkC0hPI/Re03O333tHgkm4sruze3Xym7ndnX3vzZv/bmbevCkrAv/jCHAEOAIcAY4ARyDoEOAGQNA9cl5gjgBHgCPAEeAIAHADgL8FHAGOAEeAI8ARCEIEuAEQhA+dF5kjwBHgCHAEghsBKj03AAgFHjkCHAGOAEeAIxBkCHADIMgeOC8uR4AjwBHgCAQ7ApfKzw2ASzjwX44AR4AjwBHgCAQVAtwACKrHzQvLEeAIcAQ4AsGOQGn5uQFQigQ/cgQ4AhwBjgBHIIgQ4AZAED1sXlSOAEeAI8ARCHYE/is/NwD+w4KfcQQ4AhwBjgBHIGgQ4AZA0DxqXlCOAEeAI+CbCCQkJMTExsZG+KZ2gaVV2dJwA6AsGvycI8AR4AhwBJgQSE1NDWloNjdMTEwcmJyYeHdSYuIsjO9jXIZxQ5LZnI7H0xiLMUoUQ0TxTERYWA6dl8RcPB7DuAvjaozfJVksCy1m8zTkv7WB2dwNjYbaTIpyZr4VsBbvQJMmTUwWiyUJX/ar8EUdmWyxTMAX9Sk8n4fxA4yflcRllsTEXzF+X3L9GZ4vwfO5yPM4Hu/Bl3s4yurcsF69WC104zI4AhwBjoBeCGDdVykpKSkV667JWJd9hMd/DmZn51gFYTf2Ln+QAN7EvKdivAVjX4xtQRAS8VgFowGjsxCON2pibISxM8bBIEl3CYLwDPIvtQnCSjQajmB+pzD+iXE+1p13Yt3ZDGldycXbwRzKlx2fUfkEfuUcAfvLnpDQEV+ysfjCvYEW6Qo8Zhfm5+cJkrQPX/ZfkfsDSZJexRd1Op7fi3EkxutLYl8B4CqMg0qur8fz0Xj+IPI8jcf5+HL/D2WtthqNh1B2Hv5T7cbjdxhnYb434j9bk1S0sJGWB44AR4Aj4FEEsNcdg/XQtVgfzcMOz1as+86CzfYHKjEb67IReGyJ0YTRU6EqZtQd4z1Ydy7GunM76nYG43LsVE3H+rITry8RHSeBGwBOgKFks9kcjy/SSIz/veyiuBZfsrfw/n1okfbAYz2MeuEYhv9UDVH+YIxTMd9P8J9tB1rYZ1Gn38nLgP+M/fElj8L7PHAEOAIcAc0RwDqmGdY3T2CHZy32uk9iPfQlZnIvdnha4NEXe9uVUa9e2Kl6CuvLNVhfnkT9v0KD5fZGjRpVw3tBGyoWXK+Gq2I+fnEdFxcXji97f2xYX8UXZo9BELJQ8Q8w+trLHok69SQvA/4z/oQveakbbCoaA63xnoCRB44AR4AjoAoB7Py0wDrwOYx7sI7ZjkJmYoenIx59scFHtVyGaLx7DRos7xQXFh5FQ+A3LNe93BgAPgeAZp7i2NH1+EJ8HmYykXX7EzasE/CFaYDRX0IIKkpusFloDGzGshzAOBeNgU6YLmDkgSPAEeAIuESAGkTsAI3HumMTdn62IvEUjP5UD6K6bkMIGgK9kWoeGgOHsayfo0EwODiGCbDUFUKwegDEZLO5Dz74jyPCwo7j2NFniMt1GCMwBkKoi4V4EI2BNfiCZ2GcnZiYmIxpPHAEOAIcgXIIYN3QDuuI97FBPIS9/dfwZhuMwRBorsJ1aBB8dyA7O5vmDKABRBMPg6Hs9jIGlQGQkJBQG1/0qdjj3ycJwi/44G9CFMidjoeADfWxZJPxQe/Bsv+ORs8I9AyEYhoPHAGOQPAiYMB68AaMa7BuWI8w0Cz9oK0X0E1ah+YMoAGUbUlMXEJDIIhJQAVHhcFn7yg5sNLQwm1A4/ohopiJJZuFPf5EPAZbwHcceqLR8xF6BrLRGHiSXH7BBgIvL0cgyBEQsdGnIc9/sR78FCMNEwY5JOWKH4oV5WiDIGxFQ+BXbDvalbsbYBcBbQAkJST0SLJYfsZC7i4Z1w8LsOentjjk5pqBLr/9OBTyGnoE4tQK4nwcAY6AXyAgont7FBr+e7DRpyFPWl/vF4p7S0k0BK7CtmMdYvZdckJCK2/poU2+jqVg+Rzf8OdUbPg70kMDUVwBktQPy4LPEn95qIhAJA6FjEePQDoaAm/xzYcqwsOvOQL+jwA2/L2w178R3dvvYWmSMPIgHwFqOwZLorgJ25TPcGggXj6r71OKvq+ifA3xRW+GY9w/YMO/Frlo7TweeJCBgAkNgbFWo3Efur3moNsrWgYPJ+EIcAR8GAH8P26A/8/fY8O/HHv9tDzYh7X1edWorbwehwZ2oiEwk5aM+7zGZRR0dkqFcnbPb9KbxMVVpTF+fNG34Bj3QL9R3PcUjUBz91FRktLRkHoA1fPHNb+oNg8cgeBFICUlxYiNFE383Yr/z7TraPCCoX3JaaXYE2FG47/Y4eyvvXjPSvR3A0DEhv/+QpMprWSMn9bDexbBQMxNEKqhIfUKViIbk5KS+CShQHzGvEwBiQAO5XU/d/YsreGfjQXkc54QBF2CICRih/Mn9LB8hMMCtXTJQzOhzgX5rQGA7q1kHNdajg3/61g8+rAEHnjQGIFWYLOtxkrlrYYNG9L2mhqL5+I4AhwBLRBISEgIQ4N9Ng7l/QGS1FgLmVyGewTQwzIChwW2ozfgGvfUvkfhdwZAiXvrCVR8O45rpfoepAGnkYCVylhrUVFAuLwC7unwAgU9Ag3M5pYhorgBgZiMEatG/PWzEBVihHCD34441kBvwFdogL3tix0lV6+CX70s1Os/d+bMKizQTIxBu2kFlt0boT6+5D8mWSyvB8oEGG+AyPPkCGiJQLLFMsEmCLSRTzMt5Wohq0ZoGHSpWgNGxiXAI5bG8FLTNvBRm87wQ4dUWN2lD/ybOgj29hpijxu794etPQbazyltS48B8Efnq+Dr9j1gcauO8GyjlnB/QgO4tnYctIiKgQjfNBbusBYW/oPDpn6zk6LfGADo7r8Tld2ML2Z7jD4XRFMIRCbUgepdmkPcsO6QOGYwNHzkJmj+zBho9eK90Oql+6Ddokn22HbBRLCnYXrTGaMhecJ1kHBbf4gd0gWqtGkAYbWqgCBiaX2ulCCge/H+MJNpQwOzuaXvqcc14ggEBwJNmjSplJyY+LEkSa9iiWlLWzx4L9QwhUKf6rVhIjb0S7GR39CtH1AjvwQb7xkNmsPY+CQYUqsutI2pBsmRlYGMA5OLOi7SEAJ1w8KhSaUo6I5GxPWx9WFCYkOY06Q1fN62G2zpMRB+79QbXm/WFsbUt9jlhvmCUSAIiTRsSu2V955G2Zxdn4uub3v/rv1jPYmJH4IgLEZtKmH0egitEQO1rkqB5PHXQZvXHoAeP70AfTcugm7fPQfUuDebeQc0eGA4mLFRrzu0K9Tu1x5q920H1To2tUcyEuxpmF5veCpY7hoCjdBYaDHrLujw3mOQ+ttc6LNxIXT530ygNPPoAVC1bSMwRIR6vewlCjTFXsff/vKSl+jMDxyBgECgQUJCo8L8/HUSAG1l7pUyUeNNDfPU5KbwPfXou/aFeS3awThs6DtiIx9tNOmql4DS48IjoF/NOvBoUhO7Z2FDt/5ABsddaBA0RMMBSbwVwqi9oiGBhISEMG8pISdfnzYA0JViiQwLozX9N8spjF40pqpR9t45NcbU2Pf8/RVoPXc8WMYOgZo9W0N4XA3ABw5a/onGEKjcKN6eb8OJN0L7JVPgqjVvQqePZ9iNhWqdmoIYatQyS6WywrDMi2mCID6nUKXMnJ4jwBFQjgAOg/a2iSLViU2Uc7NxhGKPvX/NWHgZXfl/Yw+fXPO310uEBtijZ5OsDTfpR0MOk9Ag+A6HDn7t1AvonIYMtMlBsZQ7QkRxOdaP2EAo5tWEwZ0Q0R2Bt+4nJST0Q1fKBrRyW3hDh8j4WtjAXw2dPpkBPf94xd4TJxe9vbH3hkKYp2AQIbqZGWi4oN3CSdD7rzcg5Y0Hoe7VXcBYOQIpPB8kQRiLz+nPxvHxdTyfO8+RIxA8CGCP8g6ssH/CEsdg9FhoEVUFnmzYHFZjL/+1ZikwGF35ldBF7zEFVGYUHx4J5A2gIYMfO/a0DxXQUIVKcWrZOmP9uJa8NmoF6MmH75Oe4tXJtpjNd4Eofo/cVTB6LBhjKkHCqH7Q+bOZ0O37OejiHwbRTc2+Oh4PhvBQqNGjFTR/9i7oueI1+3BErd4pIIQYPIZZSUYdigyGvy0WS7OSa37gCHAEtENASLZYnkFxb2M0YtQ9kIv/2tpx8GW77jjm3hVurpsANFNf94x1yiApopJ9qODPLn3sHoxW0VV0ysmhWAt6bdagt7S7w7u6JboXLLon8SiFgFbubEEQFmKuHtvUp0pKA2g5527oufwVaDRpBEQ19r/tnmkSYk0cjmj9ynhI/eUl+xyEsNpVEUaPBVolsApf8j4ey5FnxBEIfASoTnxDkqRpnihqJPbs745PhhWdr7JPuGtWObB2BQ8RBLsH47OUrvA/jL2q1waaTwD6/1VBb+nP2EkaoH9W8nPwGQMgNTU1BBv/pag6rWXFg76B3Om1+7e3j6l3ePcxqDOwI1Ajqm+unpEeWiPGvgqB5iu0mD0OohrV90zGANH4kv+QnJh4s6cy5PlwBAIYAQMa1EuwfPdi1DVQw39vAjX8veFhSyOobgrVNT9fEN4SvQALWrSzezmuqu6RzfzCBUn6GuvH6zxRfjl5+IQB0KRJE9OB7OxPUeFbMOoaaHld7ODO0O3b2dDqhXvtY+q6ZuhF4TQUEDuoE3T+31OQMu8h8JBnwygBvJ9kNo/xYtF51hwBv0YglTpEFstHaFDfpmdBDNgjvik2HmjC3IOJjUDv2ft6lkWt7Kbo5Zjfoj181KYL0HwHtXJk8pmwfvwU60fd2zo5+njdAKBNZQrz878WAIbJUZiFhsbHu3z1DLR4bixE1K/JIsrveGt0bwmdP33SvnohMqG23vqLgMM4aOk+oHdGXD5HIAAREA9mZ78LknSDnmXrEFMNvuuQCk81ahEUPX53WLaNqQr/a9vVvmGRzpMFDVg/votGwHB3Oqm/L49TlEemDxX1/ENNpv+hdF3HRSITY+3r81vj+HglPIdg/UNrn/Yv6PrVs9B48ki9Vw4IaOm+YjGbHwlWuHm5OQIqEBAsiYnzkG8kRl1CtNGIjX5LoA17kiIq6ZKHvwoVUHHasOjnjj1hVJwZyEOCSXoEMgI+wk7SID2Ey5XpNQOA9vTHnv+nCLhuANDGOdTQdf3yGfsOfXJBCXQ6GhqIv6UPdPt+tn3ug57lFQThebR0+XCAniBz2QGDQFJi4ktYJ96tV4H61qgDyzr2gpti6wPmo1c2fi+3cogRHm/QDN5v3QlowyGdCkTDpf9LSkjoobV8ufK8ZQAYzp458x4qqdsXlGi3va5fPgvU0AkGbxUTS+jDwVQ1yr76IWX+wxBep5pemgogCAvQ0h2hVwZcLkcgEBDAxv8hLAdFPGgbKhlCYHbjVvBG87ZQ1WjSVngAS2sbMxSCOgAAEABJREFUg8Mk7XvA8Dr19SplOIji18nx8Y31ysCVXK+0jOgWflkA0KVBMISHQtPHR0HbN7FRq1vdVdn5vRIEanRrAV3QSxI7qFNJiuYHAw4HvEe7mGkumQvkCAQAAklJSUOxGC9i1DzQJLdvOvSAYXXqaS47GATSColZjVvCK01TgM51KHOMZDD8YLFYamojW74UjxsA2BN8AN3CE+SrKJ+Sts7t/MkMqHdjL8BeJ/A/+QiEVAoHWjJIMSQyXD6jfEojvmxfYEXXVD4Lp+QIBD4CaBi3BZvtQywp/ovgr4aBPqLzSUpXqBcWoaHU4BQ1sFYsfNG2G+g0b8KMneJvaFK8J9HV/IVzpTxW/kOxJ/iSKxq19+pe0w06ffA40IQ/tTI4HwB5AWj740qWunrAEY0V3Q9822A9oOUy/REB6vVhJfw16h6JUbNAk9dmNmxh/4xuqIg5aCY5uAUlRlaCz9t1B132DZCkjmGhoW+xIqyE32NvBr7ozbDy/wCVM2DULNBHc5pOvw2aP30nePnjOJqVyduCIhNqQ6ePngDaKEkHXeKLRPELWgGig2wukiPgTwgYBEn6GBXW1Nqm8f6FLdrDiLr+t6MpYuHzIcJggDeatwP6EJLmykrSregl120SaEV9PWIAJCQkxOCL/iVmrumaE2NUJLRd+AjUu6EniuZBSwRoBUWr5+8By904NCmgc0pL4YLQqTA//xUtRXJZHAF/QyApMfEZ1BnHK/FXo1ArNAw+TukC3ap5fDhZoxL4hxgR60T6FPITDZoBnWupNXrJX8FhoXbqZCrj8oQBIIaIIm3xm6xMNdfU9FW+jujyr9q2kWtCflc9AviSJ993LTR/ZgwIRk0dN6TTPegV0nWXM8qER46ALyKAFfxA1EvTbc/rhkfAR9j4N6wUhaLlhyMFefDjscMwP2sfTN65BSb8uwlG//M33LdtA0zcsRleTt8NXx45APtyLgA2TvIF+whlvtUK686egvcPZsIze7fDA1i+sVvXw11b19nPZ2LakgMZsOb0CchFWiVq3xJnhjmNW4EBNO0khaK0z/Ad0f1DDLobAGjlTkJAh2DULND4dMf3cbzfXEczmVyQcwToc8Mprz8IYpi2y4fQK/RmUlISnxToHHp+JwARaNCgQXWseN/GomE9j78aBHNEJfioTWeQO9lvLzbmL6bvgqvWLoceq3+DB3dsglcydsNXRw/Cz8cP2xvDX08ehe+OHYIF+/fBlF3/wKB1K6DTX8vgsV1b4W9sUH3ZGMixFtuNltvRkGn7189w6+Y18PTef2HpwSz4Ccu34tQx+PPUcfv5h5j23L4ddqMnZeVPMBJpPzqUBeeKCmU9maG14+DV5ilgFDR7nGROJOA78oYsBcoQKT3FPJSyyKfHHl4KUj+FUbNA+9l3eHcqhFbX3TjSTOdAEET7KrSd/zCIEaFaFidcsNk+QiNAU6FaKshlcQS0RkAqLl6IMjXbj7s+9vxpw5o6oe5X71BPmBrFwdiYL9yfBtl5uaiK/HAaG8XPj2TDKGwkScbXaDBYJd8xBUg/8lh0R6OGjJbV2KsvtNlkF5DKsgGNmyf3bIfua35Dj8G/cLQg3y0/bbA0t1lb9AS4JVVCcEuS2Xy9EgaltLoZALGxsRHYw6NJf5p1G6ObmqHd25PBGKPpVAKlmAUtfdV2jaD9wkdB0NAIwKqjBdhss4MWVF7woEIg2WIZje/8tVoVmhr991p1gpo49u9K5qH8PLh/+wZ7T5gaRVe0cu/RkMCjOGQwfONfsOX8GblsutBRw00u/n5//273WFwoLmLOJw+HA5bisEG/v/+wyyySbC5l9q1RG2Y3bq3tnABBWNCwXr1Ylxlfvqn8RDcDICIs7AVUR7MB+srJcdD2rUfAWJmvZ0VcvRZiWlqg3byHAEKNWurwQHJi4lVaCuSyOAK+hoDZbK4lSdLLWulVxWiCd1t3BBr7dyXzB3R5D8Ee/y8njroiU31vx4VzcPOm1fAqDiFQQ6xakErG49hDH71lrd3Ff66IveGvqEYeDieQV+HGjatgf15OxdvlrofWiYMnLE3KpTFeVLUZjboNBehiADQwm7thoe/GqEmITKgNbRdNAmN0pCbyuBA2BGjiZeu540EKEdkE/cctYK9oYYtatfgD/g8TfhZgCIiCMBeLVAUjc6C1/fNbtAMa+3cmDP+n4Pm0nfDQv5vgIjZizui0SKeGf17WPhizdR3Q+LsWMuXI2H7hLAzdsNI+yU8OPQvNv2joXLt+pX1+hCs5N9dPhDtjE1yRKLqHz/FaHApwO49OkdASYs1q8BJ5kJCQEGYVhEV4rYlsU5XKQHvVh1bjY/6Iqc+EWt1aQPL0UVrqY86NjNR0voiWynFZHAEWBJISEvoJGm1/jnLgOXQ1p0RXdaqSDcflp6J7fnF2ulMaPW7Q8AJNuDtTJG8CHYsOa8+ctA9pnCosYBGjiJcMqbu2rrdPlHTFOKlhM+gbXc0VibJ7gvBGkyZNNB/71qSRLluSEINhOr6gDcumqT03hJmgzesPQkQ9vqZVLYbEl5NxGA58+jvsmPkubLhjNvw1ZAqs6PMw/JE6Af4cMAnWjnwatk5eAOmLvoMzm/eCraiY2NzGpGGpEH1nX7d0CggeSExMbKeAnpNyBHweAfskV1GkT/xqous9CckwuFasS1lP7/sXvjx60CWNXjepp3wbuuT1NAJoyd64besVL9vTosw0F2Diji0uPQHo7YEX0EPTKFSzIev6Bfn5053rr+6OpgYAVt4NQJIeUafKlVzNZt4BMTjmfOUdnuIOgbzDJ2HfG1/aG/i/hj4GO55ZCgc+XwGnNuyGnKyjkH/0NBScOg95B0/AuW3pcOTHv2Hfa1/Auttmwe/dx8P26W/DmU173WUDnR4YAVJPzVbyGQwAVFFq+l66LQQn4AjoiIBktd6P4i0YmUOXqjVgvNl1/4rWtNPSNubMGATsvnge9DICqPG/e/sGoPX9DCoysZIRcN/2jZCZe9GpnHCjEV5t2gYqi1irOaWSfwM71g80jI83y+dwT6lpRYvCXsQsTRiZA33Gt87Ajsxygk0ANejbHlsEKwdNhvS3vrU38EoxKL6YB4e+/gvWjZ4Ff9/yNJxau8O5CEGA7s/dC8UJ1Z3TKLiD413tki0WTccWFGTPSTkCmiLQqFGjaoIgTNNCKM34fxkbFIOATYETgdvOn4EX03Y5uevZZD2MAF9o/EtRpLkOD+7YDK6WGZpjqsBz9RuA8ydWKk3WMdQqis85olSbhm22WtbyfElmM/mCh5RPVXdVJaUBNJp4kzrmIOWSrDZ7g7/q2mlw+LvVIBVbNUHi7NZ02DD2Bdjy8BtQcOKsQ5mRkZGQ+NI4sEVoYvsBjl/OatiwYWWHmfFEjoAfIVBUWEhuW+aJfyI2+s83bQ1VjM7/x4pp3H/XVqDeqa9ApKUR4EuNfym+uy6cgzezXHtK+yYkwo0xNUpZ2I6CcENSQoJmPWOtDAADCMJLbCW7xE37+7ecfTcIIYZLCfzXLQJ5R07Beuytk8vfml/oll4NwbFfN8Lq4U/AydXbHbI3aZAM0sODHd5TmojWch1bcfFkpXycniPgSwhYLJZ6+C7fo4VO9OGZDjGuJ5UtPZABtDZfi/y0lKGFEeCLjX8pRjTR8qCrDZVEEaZYmkKCMbSUheUogCg+C+X+1F+I6ln/40xKTKTuerP/UtSfNZ1+G4TVdj67Vb3kwOS8sCcb/r75KTjzT5ruBSw8fR423TfXPqHQUWZdhw+AnF6NHd1SnCZJ0gNJSUkamc2Ks+cMHAFmBARJmoJCnHfZ8aackBxZGR5MdL2lSp7VCrSznxx53qBhMQJ8ufEnLAtsNnhz/z46dRojoivD83HJ4Gr4xinzlTd6JSYmdr0yWXkKswGQmpoagtnOwMgcYgd31usTtMy6+aIAcs+vG/0cFJw85zH1aKiBJhRmvvPDFXlGG4wQ+9hNUFxdE+99JZAk7gW4AmWe4A8INGjQgD7xeyerriK6/p9u1BJo3b8rWV8cyQbaBtcVjbfvqTECfL3xL8X0m6MHgTYkKr12dGxZJxZGRmvTp8GG+4nSPFiOKIeFHeBQdvatKCEZI1MwVY2CxlNGMskIJmZq/DeOexFowp43yr3nlc/tEwUr5t22Zj04P7F/xWR115J0b+P4+DrqmDkXR8B7CFiLih7F3Jl9vjfG1oc20VVQlOvw+eFs1wQ+crfUCDgrY6tef2n8CdpC9AJ8c+wQnTqNQlgoPBSXCLVDNNlFtY8WcwFYDQBRAnjMaYkV3KDGn+/0Jw+wy41/Tp48Bj2oJAl2PPUenNueUU66URChRZ/OcDHV9VKlckzOL8KLQkImOr/N73AEfA+BhISEGEEQ7mDVrJopFCZa3A+ppedcgJ0Xz7Nm5zF+MgJGbV4DrowAf2r8S4H73o0BQHSRMTEwrUY9OmWPojgRgE0MkwFgsViGYvZJGJkCfWmuzoAOTDKChdknGv8SsG1FxfDPo29CcW5+ScqlQ5PQGCh8cADYwjWwdCXpLhzvir4kmf9yBHwfgRBRpMafede2CeaGECWjt7jq9ElNQBFFEXqk9oSpj0+Hl197HWY+8ywMHTYMwsLDNZFfVogrI0DPxj+uXj0YM3YczHnpZXj+5blw7/gJkJTE7MC2F233hXNwwt2uhCYj9KteG9qGM78elOc1iYmJ9elEbRTVMhKfoMGmP4JBhEaPjiBxPLpBwJca/1JVad+B9De/Kb20H0UQoE09M5y5tZP9mvEnCt+zuxhlcHaOgKcQMIAk3ceamSWyMtyA7n85cjacZTcA6tSpA2+/9769YRx67TDo3KUr9BswEKZOmw5ffP0NtGqTIkcVRTRkBNBmQWU9AXo1/uiRgTvvGguffvEVjBl3t93Q6d4jFUaNvh2WfvwJPPzoZDDQNmSKSlCeGL3hsPHsqfKJjq6iKsPk6nFYSzq6qSgtRABgetdERdmVIS4Zf+hcJknVaf0be0GlxFhVvMHE5IuNfyn+WR/8Ajn7j5Ve2o8NTFFgG9EFimJj7NcsP/jP+0BKSooG7gQWLTgvR8A9Aklm80AQhET3lK4pHklsBHJnjO/FIQDX0lzfjYqOhjcWLITGTRx/xa5a9Rrw+rz5dqPAtSTld2kdfakRoGfjP2nKVLjr7nscNvIiej5uuPEmmDR5qvICVODYI2coJtQELaOrwIBKVSpwK79EA2BMQkJCmHLOSxyqDQBE8t5LItT/hkSEQdI916gXECScvtz40yOQiq2QueRHOr0cRUAvQOVacHpMt8tpDCdx58+c0WSTKQYdOCtHwD0CGoz9N60cDb1q1HafF1LQ5j8HXK1BRxp34fY7x0DduDiXZEaTCea8+JJuRsBNm1bB3Tps74udB6DGf9jw612Wj25ec9110Lx5CzpVHffn5sjilSpXgvuqxQKt8pDF4JDInlgVPReqG1HRLkLhT/369ZyYk+8AABAASURBVKugm2u4QrYryGm7X2OMJmMhV8gOlARfb/xLcabdB4vOlt8Xu5EpGqy9m0FhAvs2wZIk8WGAUrD50ScRsFgsNVGxQRiZwn049o89O1kyzhYVglUi57Ms8iuIsPGAAYPkbeBlNOlnBGTkXNR8b38ljX8pMIOuHlp6qup40t0cgBKpQjh2fiMioZ82XoDRJWIVH1QZAKFGIy39Y5oZYqwcAQmjByhWOJgY/KXxp2diKyyGo8vW0+nlSC7MpuFV4fSdGuxZIQh9zWZz/GXh/IQj4GMICJJE65iZhqoaVoqC3tVryS5Zno1ty+9q1apBTEyM7PyMJv2MANlKyCBU0/iT2ORktgmBuVYFz6NSJbi7Sm30lVLOyuNlDkm6KikpybUL5zJx+RNVBoAWvbH6I64CMgLKq8OvShHwp8a/VOejv24sPb18bBZaBfJ6NNTCCyCiQXH7ZcH8hCPgewgwf8RqVJxZUYPA0Pm3o0fj3/YTBT9GU4kR0FWT4T0FOcsjVdv4k3RBVNUkEqs9SiDfGyNEhkOjsAjoGMG8cZoBjc+b7Qoo/FFc2sTExOaYRzOMqoNoCoH6I3qr5g90Rj0b/xYtWsLTz82GL775Dr77eRm8Pn8BDBpyNRgYZ8DSMzm7NQ3IE0DnpTFSDIEEU2U4e0O70iSWI18uwoIe59UNAeyBWVB4K4yqA33oZ0ituor4Ixj/b0+cOAEXLlxQlCcRG01oBLzwInT2MSOAGv9Hpz4Gcsb8qRwVY2ZGesUkRdcRISHy6dHYEMJC4baYmvJ5LlOWP8FO+XXlU+RdKTYA0NK4QZ5o51SxgzpDaHW+tNsRQme3poN9hz8dNvmh5S9vvbME+vTtZ5/0U6NGTWjXoQNMf3ImvIaGQEREhCOVZKfRh4jO78q6gp7mAlzo1xSsVSOvuKcwoQFWtK0V8nByjoDuCGC9OIw1k+tj60OYwgY92miUvVrAkX5WdFkv/+UXR7fcphlNvmUElDb+11433K3uzgh+/vHKLc6d0TpKr6bwgz9SZAT0iIiG+gr54Mq/dhaLpd6Vya5TlBsAgsBsAMTfzHv/jh6Lno3/+AceBNoAg/5JHOWd0rYtTHviSUe3FKVVXA5IzPHGShAeGgrnhrSkS7ZoszG/f2wKcG6OwJUIoOOXyQCgSX/X1VFcf4NRECE2NPxKhRSkLHprAZw6eUIBx3+kRpMJ5viAJ4DqNer5szT+v6EhtGF9+XlM/5VU3ll8uLJOjhAWBqLBAMOiqsvLoITKwUHAxvxaB+kuk5DH5f1yNxuYzVSDNyiXqPAiupkZKjfic7kqwqZ34z9y1G0Vs7ziunefPpDcsOEV6UoSaGOgivQijmrSvgAXBrYAEIWKt5VeX6+UgdNzBPREwGw21wJJYtrKNCWmKpgjKqlSM7lSlCq+UqZTp07CQxPGw/lz6j4qZjR51wjQovHfvGkTPDNzRikkqo8NKikcz8fqkFYEXF25KlaNeKE6Z2SUpKvxV1EQlVDbBGGgEnpHtHHX9XCUHNRpvtD4lz6Azp27lJ6qOhZdzHXIZzFGQVGdaMhtm+DwvoJES4OEhEYK6DkpR0BXBAyCcBVmwFR7X1tbee8f87SHtmg82E8Yfvbu2QPj773b74wArRr/hx8YD/n55bc0VwNn25hqitmk8DCoazRB+zC5BqDjLNAL1SU2NlbROK4iAwAzYFq3J4Yaoc7Ajo61D9JUX2r86RFUq16dDqqjLb/QIW/tkDCIFI1woT/T/FG7bJsoavS5Qbs4/sMRYEJAkKQ+LALQgIA+NeuoFtG1ag3VvGUZ9+ze7VdGADX+k6dOAxa3P/X87Y1/HvuH1ZIjK0Pt0LCykMo6F8JCAQQBBlSuAox/YRGhoYrWXMs2ABISEmIEgE4sCtbo2gJo9z8WGYHE62uNP2F75vRpOqiOYpjJIa8AAliMlSCnSzJIoSEOaRQkMhmiCvLhpBwBtwhIlzwAbumcEXTAXmOMjI/+OONvhEMASSqHDyrKJCPg/nvG+bwnQBAEoMb/muuuq1gE2ddaNv6U6UCFKziIxx6xLEKoCXpHxsgaBrDzOPkRRFGRMSrbADCKYi/Mk6nmrt2faZgMs3cfrLkFcGr9Ljjw6e+w56VPYcfMd2HblLfsx90vfgLZHy+HU2t3QPFFdovPvTbOKXyx8Sdt1/29lg6qY0hkuFPe+mgA2MKNkNOJVkw5JZNzo3tcXJzzjORI4DQcAQ0QSExMTEYxytbuIUPZ0KeG+t5/qZxhsfVLT5mPNBzgy0aAIPhe409enGtqx6nGXkIvQA00AtuERaqWQYySJKXSUW6UbQBIAN3kCnVER2v/a3anOYSO7rKlFRw/A1nv/Qx/3/IM/Nb5Hthw5xzY8cxSyHz3Jzjw+Qo4/MNa+5Fods56HzaMfQGWd70P1t74JGQs/h7yDrF/TUtJCXy18V/910rYuWOHkqJcQRtR1/kQQt2QSPuSpYs9Gl7BpzAhLNxo1GRjAYX5cnKOQDkEREliHtPsUY19HfhNdeNBzqeDyynv4kIrI6BLt+4uclF+SxB8r/GnUgzC3n/dMPV9EvswAArqFuFuQicSuQ4tlXSOZBsAAgDT7LAqKQ3BEIFjHa6VV3T3wr6D9t79ir4TgXr3Z7emgWS1yZJBdOd2ZsHeVz+HlQMfhS0PvwHndmTK4mUhOqvjOn9a6idntr8j/TMzM+CpGU84uqUoLSK+tlN6I/7z1jGEQ167BACD7FfPoTw0SBWNdTkUwhM5AqwICAKTW5OWjcWFR7BqAZUMIXB7fWbPWjk9tDACZj//AmhlBAiCbzb+IajXvfHkCCoHn7ILoxFAFKEzuwFgNJlMKXIzl1ULt6hVKxIr3FZyhTqiq9GFNhB0dEd5WtH5HNj57Puw5von7L17asyVS/mPQ7LZ4NivG2HtiKdg+7RFUHBK3XKY/yQ6PvPlxv++cWPhnMplQKWlJS9PVOP40kuHx7rGSLBGhUN+Yza3pyAITAapQ+V4IkdAOQJMBkAXjSbwkdpj0ACor4ExQbJKo68YAfj/DpMfexxYxvw3bdwID0+4H/I1mPBXig8db6uXCImRleiUKQomEzQNjYBoNOacCZKTLijwSskyAHIrV26HGaOJgr8qQ/Wu2hgAZzbthdXXTYfsT5YDa8N/RVEkCQ59uxpWX/s4nFi17YrbLAm+3vifPnWKpXh23piWSWBwMgnQToA/dULC8Rcgt73ZflT7gwYpTUgV1PJzPo4AKwIpKSlUJ7ZgkdM2phoLezneUOxBPtO4lX2YrdwNxotSI0BtB8FoMsFsBk/A5cZ/mPq9lqjxn6jRUr+ycJojKsF4M/OQpl2kFGqyP7s2jMsBRUFIsQuU8SPLAACbjan3b4yOhEqJsTLUcU1y4LM/YP2dsyH/KNtMdde5ABSeuQCb7p0L6Yu+c0cq634wNP4ERK1e7t+7mmgAUKud17IesbDEKg3j43EsgUUE5+UIqEcAG8Rk5Ha87AVvyAmtomLkkMmm6YgGxb0JDWTTyyUkI2D8PeNUewmNJnVGgC83/mRwvdK0DbB+j+HyMzCRPQnQMszZkNBlSpcn2Dlq6pKgzE15BgAAk5VbpTW+kAJV+2VyVniavvBb2PH0e9r3+p3pgd6Afa99AbtmfwiA587I3KUHS+Mv4Jh+7f7t3cEBJhChqiHUPgQgIY9bBhcEVlHUxq3kIg9+iyPgFAGrtZnTezJuVDOFghbj/xWzut/cAK5mmJFeUV7ptSZGwAsvwlV9+5aKdHk04rj44zOehGt8sOdPs/5fwsa/ceVol2VQclPA8hJ9K0YPAMpokJqaKmvFnocMgCTUSX3Y/+GvsO/1L9ULYOCkvHc8+z6oMQKCpfEneOsM6AhyP/BU3RAGUpgRChrUIlbVURBFJsNUdcackSNACAiC7J4WkVeMzTRsPMrKFvBiduNWkKrB6gIUVS4wGwHYyD09azY88PBEiIqKKie77AVtST5v4SL7l0rLpis518vtT/jOaNgc+mqwfLNceahDhMM4zdADQHmUuwcACq5DD2dlyWp05RgABsyY6UWPaqzeU3ti5VbY/fzHqIL3Au0poNQICKbGn3r/iXcNlv2AqhlMdlpWAwBdXdwDYEeS/3gDAayk0bWpPmfaOU49t2tOmpn+RvN2uhkBtE8ADoG4VsLJXUEQYMTIW+DL736AJ556GoYMvQY6deoM3Xqkws23joLX33wLln74MbRooX7ZuJ6N/xMNmsNNsfFOSseYbAyByqIBaoVcGg5QK80mCLLeTdFdBmazmXY3CHNH5+p+pQYkwhWF43v5x87AtmmLgGbpO6bwXKoSIyCYGn96AvWu76lojkdV9AAQX2FiDTqojzYbjcGq5+ecHAEGBCRJYmoFkipFMeTuntWEvUm9jIB9e/YAixFA2leqVAkGDhoM056YAXPfmAcvvDwXJjz4ELRr3x4EQSASVVHvxn9knPoOrbsCCSUNf1JoxXkA7jjL35dEUda76dYAMBgMTNO1Q6tFQWg1deMkO59dCkVnL5YvmRev5BgBwdb4h9asAsnjlc3OpTkA9BgLLIwboAiCfv+JpCCPHAFXCAhCfVe33d1Lioh0R8J839eNAOYCVhDgz40/FUUyXmqSLcZQulQdBQBtDABBkpgq2UoqZ//TMrzjf2xRDYBejK6MgGBr/AUcs2o5exwYo5RVZJXEEBBBgKIE57sGynx+VRISEmJk0nIyjoBmCDRp0oTGsZg2s4jFsV7NFHIhKFiMAH9v/O2P0HBp7l5cBQPAfk/Jj0zvlOhOJrq5EtzRuLofHqeul5c2/2tXYr16z5EREGyNPz2ARo+MgKrtGtGpoihi4x+JRoA1KgxskWyWbkhICJOHSpHinJgjUIJAfn4+bXkpllwqPoQZDECrABQzqmQIdCNg44YNoMc6fwHxpjF/Pd3+mMXlIBgM9vM6IWRf2k/V/shad+/+BRYEWYKcaRnuYm94ZzynN+yGc9sznN32iXQyAnbO+sC+OiAYG3/zHYMg/hZFH54q99yiDEb7dVGdaPtR7Y9gszG9n2rz5XzBjYDBZqvKggB9NpYaFxYZSnkD1Qigxv+RBycAGmVKIXFJT8/Hk42/XZkSAyDWWNYAsN9R+lNVDoNbAwCHAJj8tGGxyne6OvTNKjm6e52GdiP855H5sHHci1Cco/3XBVn39qftfbXY4a8i0Amj+kHDh66vmKzoOlK4ZAAUMxoANkFQ/oIp0pQTcwSuRMBmMMiqYK/kvJRSlb2CvyRI4a8njICLFz03b+ufzZsgYBp/epbipSa5aslQACWpjLLez0u5uchBAmCqYEOrKpvpaisqhmO/bXKhkW/dOvrLhqBr/BtNGsH8EMKES6+eNUbZ/IGKGaOByvR+VpTHrzkCchBAz5OsCtaZrBjWMV5ngmWklxoBWnyFsGJ2tDrgicemgs1mq3hL8+vDhw7B5EcmBkbPvxQdEf0OggAx4qUDyK/NAAAQAElEQVShAEpWGen9FNzxXqqFXVMxeQCM0ZVcS69wl1z/WvWmmzdvAePuvQ+mTJsO99w/HtqkuN+qtoI6Xrn05Z6/Fo0/gRomXJrsYo0Op0vVUeAeANXYcUYGBARBWc+mQlYxIZfe/wrJHrskI2Be83aghxGwZvUqWP7rL7qX5dWXX1K9NbEz5ajF9Ljbv6IyggDhaACY8FjxloLrkBa1akW4o3dvAAgC0yxrU4wyA+DMln3A+le5cmV4ce4rsOjd9+D2O8cAbSV52+13wPyFi+GNBQuhSlUyjlhz0Yc/GBp/Qi6s1AMQxbTFBEiSxPR+ki48cgSUIiAAmJTylKWPCDGWvfTKuZ5GwPvvvatrmQ5kZ8PKP1domgc+U/B6408lKmn4I+x1JCWoi2dDQ92+o+4NAJuNaZp2SGW3Rki50l1MP1zuWumFwWCwN/5du/dwyNq2XTt4a9HbUL2GutUJDoVqlBgsjT/BFVIy1mWLdPuOErmryGZBuJLM73EEnCEgCEwvbkhJJe9MvKfS9TICaMvgEyeO61aM1av+IuNfM/k+0/hTiUgZPJpEA/6qD6Ioum273RsAjC+6YFRWiNzso+pLjJwDBw+Blq3b4JnzUD8hAeYveMunjIBgavzpyRjg0lsumRh7QozvJ+nCI0dAKQI4xs1kABh9xACgcpvQGNdjOCB7fzaJ1yVm79+vmVyqiXyi53+5RKQRAL0jl5NUnKAB4PYdFWXIdSvElQxR4VhX0blcV+Lc3uvbr79bGiKwGwFvLfQJIyDYGn/CXyw1ABQaiMRbIbq1civQ80uOADMCgiAYWIQYBJGFXXNeMgJuidN2S438PLa63FUh8/PyXN1WdC82LBwG1a6riEdXYuGSAcD0gqGCRqvVrQg5byFTF00IkZMFalsSrHn5JWfqDnH15e/OWT8+HuZ72QgIxsafnqyh5CUv3fqS0lRFSWIyUFXlyZk4AgCFLCAUSfrPklei39ozJ2HCvxuVsLilrVqNaf64S/lVq2sn+1B+Hty2ZS2cLS5ymafnbkr2rIqkS0f7hYofKTTU7Tsqp3UuVpH3ZRbJquxFF0LcGi2XZTs6KSxQZkB40wgI1safnptNuvRyC0VWumSJvvJfy1IGzutvCEiS28rVVZGKPLBMzlX+Ze9R43/3tvWQZ2X+X7wsNjIyEpKS9ftWV6tWrS7npcXJrgvnfMcIKKkbi0qOasuHw1Ru31E5BoBbIa4UlBRW8CHhbB7df7dvd6WOw3veMAKCufGnh1Ba1WhgADC9n6QLjxwBpQig+cr03hXaSv8DlOasLb0ejT9peFXffmA0MjmPSYzT2K5DB6haTdstQHzGCMCXiwpewO4lKiA5rqLuBoCtSFkHjb4u50phd/f+9+knqjah8KQREOyNPz1DK1zyDAlFl46UpjK6fclVyuVsHAGnCOAorTJXYwVJ561MjtUK0tRd6tX4h4WHw+1j7lKnlEyu0NAwGDN2nExq+WQ+YQSgd8iKvf8cRgMgOjra7UQJ3Q0Aa54yQzkivpb8p+WAcveuXbBg3hsO7rhP8oQRwBv/S8+hdAhAzFf2flziLvfLDYBycPALTyAgCMJplnzOKuwYseTliFevxh9xgSeefApq16ZvJTnKWbu0a68bDn369tVOYIkkrxoB2PADxvM27CLhsUQlNYcLmzZtctv7lmMAnFeTeylP4Vll+0JHNY4vZVV9XPruEnhn8SJV/HoaAbzx/++R5EmXXKDiObdG6n9MDs7QW3bBQTJP4gjoioAkimwGQKH37FY9G/9JU6ZCr6uu0hX7UuF2Y2Pm09C5S9fSJM2OXjMCbFijYSnOsnuIZL2fcgyAk6iP6lB0Vln9XDWlkeq8yjIufHM+vL1oYdkk2edkBLy5cBHU0HCzINqKeOSo22TrUJYwOysL7r/7btDrwz6NNNjbv6y+cs7zSwwAA6MBgNbyCTn5cRqOgJYIGKxWWRWsszyPe8kA2HD2FNyj8YQ/KiM1xhMfnQzDhrN9JIxkKYlGkwnmvPQydOuRqoRNFi0ZAaM2r4EzRcxeSln52YnQ/U/H41a3nXcicxVPubpZek+OASBLUKnAisfCM8o8ABH1a0JkQp2KYlRdL1rwpmpPQL369WG+RkYA9fxpK2I1hcjMzIC7x46BUye1b+cSbusP3mj8CYf8kklQrAYAVjxMFTHpwiNHQCkChqIipn/IU2gAFJRU9krzVktPPf8xW9dBroaz/UkX/B+ER6c+BsNvuJEuPR5psuGs2XN08QTsvngeRv/zt8eWCErFl+aGHGY3OmS123IMACYPQP5RWXqUe2liB3cqd81yweIJ0MII8Ome/yM3sUDLxJsnXXrRQ46eY5KDHgCm95Mtc84drAjsPHiQDE9lvZsyYJGj90g+2/BXGXFuT/Xu+dN4vFsldCQwmgLEE2ClSdEAh4oZvQ6CIGurRDkGwDGW55Z7ULmhHHdtNxBNISzZluNd5CVPAEvPPytAe/6lD+ZCyRiX8QibASBIEtP7WaoPP3IEVCDAtNft/rwcFVkqZwnUnn9FJPT2BHhisyChpF7MLmKbIyIAaGMACIKQVRFoJdd5h5R30GgpYOyQLkqycUtLngC1EwNLPQF1YmPd5kMEoijCgxMfAbVj/tT43zturD5j/uT292LPn/CheEEqAjGvCAxn2bYLLWZ8P0kXHjkCKhGQVck6k70vR9n8KGdyXKVT46/1Jj+UH7YLdre/Fj3/kyeOA63eSk9Pg5wcNqPIaEJPwIsv6TYcQHMCdN0xsLgYCN+0AjbvkGSzyXo33XoAJKuVyQDI2a/u4z5J91wDhohQwkKzyGoELFn6AXTp1t2lPjRx8IWX58JNN490SefsZjA0/rm2YiiWbGDMVj48VAG33MzMzOMV0vglR8BTCDDVjWk4vqynor7c+Ofl5cGStxfD8GuuhsH9+8HoW26GkTdcD3179oB7x46Bv/5coRoao8l/jQDaOI+WSKcXMW0zATZByJQDoFsDwCaKsgQ5y4w8AMU5yq2ZsFpVgIwAZ3LVprMYATFVqsBLr7wKb72zBK67/gZIbtgQqlWrDvRhIfr88NRp0+Hzb75xayQ40z0YGn8q+xlrIR0gNEP58JCd8b8fqoBpOPW/FH7GEfAUApK0gyUrmmDGwu+Kd8v5M+CrPf89u3fDTdddC2/NnwcHDxwoVwyr1QqbN22CSQ8/ZI+5ueo8hEZTiRHQtVs5+Vpc0HO7Y8tayClx12sh0y6DarKiYtiP7v98xgmiYYWFO+0y3fy4NQDQnU2uhGI3cpzfliS4sPeg8/su7iSM6gfV2jd2QaHuFosRQDm2bNkKaL3r+x99Aj/88it89sVX8OLcV2DosGEQGhpGJIpjsDT+BMxp26XxLRO7AZBO8njkCHgFAYOByQDYg0MAWu6/X4pBOsodu3W9pnv7k2wt3P7UuI8bcwccO3aMRLqM5AW4G2nPn1M3T8hoQiPghRehsw5GwL8XzsH92zcC7djnshBKbtoNCgm2FqgzekqzQjviSMkk1dIkp0e3BkBaWloBCMI+pxJk3Di/i2wIGYQVSAQcS28x524Ir1Otwh32S1YjgF2D/yQEU+NPpT5lLaADhO5j9N4LgvIPP9hz5j8cAU0QYDIAqPHYceGsJoqUCiGDYsK/m+Ac+zKyUpH2oxaN/6aNG+HhCfeDkk/57t2zB+6/Zxz4ohGw+vQJeD1zrx0fLX6kgiIgOVvyLtKBJcp+L90aAHYtbLZt9qPKn7Nb01RyAoRWj4a2bz0CxphKqmU4Y/QFI4Aa//vGjQvoCX8V8ScDQLBKELrrSMVbiq7R0uUGgCLEOLGWCGDn6AS+g0wv8Zbz2hoAL6TvAq0nF2rV+E98YDzk5ysf2y41As75oCdgwf59sPEs81wm+2spFF4aGv0nP8d+rfZHAJBdL8oyAPAlly3QkdJntzA5ECDSXAfaL5oExuhIR+KZ0sgIULtjIFPGyEw7/N13991w6pTylRLI7jLQ8EkjH5jtX1FJmuBywpoPpn1HQVT4nYiKssTi4q0V0/g1R8CTCGBlu44lv7/PaPe/T27pjw/RtBgWjcrzUuNPO/yxzPbfumUzPPLgBFWNf6k2pUbA2bNnS5MUHY0mHA548SXNdwyk+mzGnu1QjEPdihRyQCwVFsIZHAbYW5jn4K6CJEn6Wy61KIdQFIR/5NA5o8k7cgryj552dltWeuVG8dBu0aNoBGjvCWDZJ0CW8g6IqOd/z9i74FSA7fDnoKjlkk6i+79YskH49kPl0lVc5NU1m9ksSxWZchaOQAUEmAyADdh71GpHwNlpOzQdk6bGf/LUaUw7/JHb/4H77wOa9V8BN8WX+3A4YMK9d4NqT4DRCPYdAzWeE0Ael8+PlJ/MqLhwWCdCUTGsyb0AZFQo5i/DYAWQ/U7KMgCEkBASiI6AMrkoPD259l+FHFeS04eC2tk9AdobAeQJeEflB4Su1NR1CjX+5PbXped/W3/wxZ5/KSJHii9NcIlYz7S4hMRtWLFiRTGd8MgR8BoCoii7t+VIx3yrFTahEeDonpK0zefOwPoz2riiKd/Sxv+a666jS1WRGn+1bn9nGZInYPw949QbAeQJ0GFi4Nv705iMLym/EAC9CKtzzzsrurx0QTicmZkpe9KdLANg79695KfaI08Dx1QnVzGNIlwW6u9GQDA3/vQQD1tzQSgohvB/mDZRI1Gr6YdHjoA3ETCZTBsx/yKMqsPyk8dU85YyfnCQ2aAuFQW+2viXKkhGAE0MVO0J0MEIoF0dVzA8RyG/wG5ArMhRN8RRig0aEWsun8s4kWUAlMhhqnBPrd0BUsk+xyXyVB/81QgI9safXEiHinIhfOsBuxGg+gVARgGA6X1EETxwBJgR2Llz50UUshaj6vDriSNA/xtqBdB69OUn1W24VjFPX2/8S/Wl4QBfMwK+P6Z+WFMqKIDN+RfhlJXNqYnP77dSjOQcZRsAKHiVHIHOaIou5MLp9buc3Vac7m9GQLA3/vSAjxXnQb5khUp/MjmTSJS1oLhYkaVLTDxyBPRAAOtGRZVuRR2OFuTDNnThV0yXe73q1AlN1vxjOYDG/H3N7e8MB18zAn4/dRyKaCzfmcLO0otx1L6oGJZdZOz9o3xJEBS9i7INgJDi4mUkH6PqcORnmkqgmv0KRjIC2i/2/dUBNNv//nvuAV3G/Ef18+kx/7IPLbv4IghWCSL/Ypy7JwgbsrOzz5SVzc85At5CQGml60jP746p2yyNZK3XYA4BNf6PTJ4CLI2/FrP9qTxKIhkB9909FnxhdUAe9t5pJYYS/YlWyssDNAHg54tsVRp6kbLS0tIUbY4m2wDYtX//EXS7Mg3kH1u+GSSydqjUGsXKPr46gHr+NNufPnihUZEvi0mgCX+TRly+9vWT9MILEL4pk/kDQDjO9bOvl5XrFzwIxMXFbcB3kmkG3rdHD0Ghyu1ft55nazjoST30yCT7nVN0HgAAEABJREFU9uZ0riZu3LABtJrtrzT/tL17YbwGqwPatmunNOsr6LecVbHaLTcP/so5ByeKi66QpyQB2+eflNATrWwDgIhtAD/TUW0sOncRjq/Ufuk2eQJ8cXUANf7BOtu/4jty1loIp6wFUHmZrC2qK7KXuxZsNqb3sJwwfsERYERgBa1GEYRvWcTQF+Z+VzmOn5mbw5I1pPbqBTfcpL4jQY0/6zp/pgIgM3kCWOcEPDP7eYiKikJp6gNNBlTEbcW+f2ERfHGeyX60Z4kGwJf2EwU/igwArHh/VCDbIenBz9V/5cmhwJJEvY2AxQvfKslJ3oE3/uVxSi+6AOKFfC3G/0/sy8raUF46v+IIeBcBrHy/YNXgk0OyV29dzuo89hovYLycoOLkttvvVMF1icUXGv9LmgCwGgExMTH277mUylNzPJSXq4hNysmD48WF8EcO4/i/JJ2qW7++4sZVkQGQlpVFEwGZ1qycXPMv86ZAzhDW0whY/NYCmP3s00Bfq3KWf2k6b/xLkfjvuLfwHFT+dScIhcX/Jao4EyTpK2SzYeSBI+AzCEii+Bsqcx6j6kCf792bc0ERP60AUMRQgbhy5crQqHHjCqnyLn2p8S/VmNUIaNeuQ6koVceLVoX1W24ufHTuBBRJkqr8SpkkQfjO7okqTZB5VGQAoEwrRiZLl5YCHvifYkMFs5UX9DQCvv7yS7hv7F1w6KDzCTtpafuAu/3LP6vjxXlwqjgfor/eXP6GiiurIHymgo2zcAR0RSAtLa0AJOlrlkwkZP7gQAb+yg+0kZB86ispo6Kj7ev+r7zjOsUXG/9SjVmMgCpVqpSKUXVU9DwKCqGgsBA+PXdSVV7lmATh03LXMi+UGgAANhtzBZz96e9gzb30RTiZeioii2pM2wbT6gDtdwz8558tcNPwYTBn1rOwY/t2hONSZ/TUyRPw0Qfvw9jbR+sz258m/D1ykyIcfIV4N/b+I//OAFMW8zjXsYyMjBW+Ui6uB0egLALoBXi37LWa86+PHYITBfmyWcMMBtm0jgjPnjlzuQ5zdN9Rmi83/qX6qjUCTp5mq6PCDSGlKrg/5uTCl+dPwWmlXoMrJR9KT0//9cpk9ymKDYC0rKy/UKz6HQ+QmSYDHvyaxOCFTkFPI6CoqAi++uJzuHP0KOjZtQv07dkDBvfvB6/NfRlyc5WNAckpvn22v582/rTv/97C8xDzsSZLQD9HvMgLhQceOAK+hQBWwmScMm3JRz3IxdnpsgtWSUmD40BqTk4O7Nghf5t2f2j8S4upxghYv5ZpTyeoFCLTALBaoRCxX3hakw2c3scyq6oXFRsAmJFNkqQleGQKWe8vA1uRwvEShTnqaQSUqlKA1vr58+fR+0cOvNJU7Y7+3PgTCnuw9w//HoDwfw7QJVsUxXfYBHBujoCuCFAlsJQ1h08O74eThfI8pJVDjBBtNDJluWTRIln8ejX+AuY+LbkZdK1aA8+0DWQE0D4BcrYNJi/uN199yaRAXHiEPP6Ll3r/h4sL5dG7oBJttvdc3HZ5S3R518lNoyS9jbcu+b7xRE3IO3gCDn1NcwrVcMvn8YQRIF8bZZRmP3b7l5Z0W8EZqPq2Jt6eTTjOyj6JoFQxfuQI6ICAJAhUNzL1bPKwd7gga69s7cwRbEOda1avAnernNauXQN6LPWjxn9Gw+ZwWz0zvNmiPXSrVlN2ueUS0j4BZAS42ojt4sWLMOWRR5g9uAnhMp6FJEHehYvw5qkjcovgnE6SVuzNytrtnMD1HdH1bcd3d2dlZYEgqBpzKCsx/a1vwFbAtvlBWXnOzv3RCKDGv6Gfuv1Ln0N2UQ7kbtoHERuzSpNUH7GiWKyamTNyBDyEAA4DHMC6ka0bibp+dGg/ZOZexDP3oWVUjHsiNxS0ymnKpImQkVF++OHUqZPw+quvwCMPTID8fPlzE9xkZ7+N/9NAjf/NdRPs16GiCPObt9PNCBg9ciT8/OMPUFT4X6+bVnWt+ON3uP3WkbB9+za7Hiw/raPdTyKUsPf/7qnDcKT4Pz3U5imJ4mtqeYlPlQFAjOjreouOLDH/2BnY/zGtnmGRIo/3shEQFSmPwYtUgdD4E3wb809AtbdW0ilrvIAv+kesQjg/R8ATCGDdyFQpk47F2Et8MU3et1PaV6lOLMxxxe+/w83XD4drBg2Au0bfBjdeNwyG9O8HHy59D6ihZM6gjICKjX/pLT2NgBMnjsOT0x+HPr1S4baRI+COUbfY529NeWQiHMjOLlVB9ZHmYzStHO2aH1+Ok2fOwMIzmoz9Z6LBybQBlehaW+d3SzJOc04h7076W99C4Wmm5bPyMkIquxGw+FEw+rARECiN/6GiXLjw00YI28E0XxSfmj0sQve/Z14Se3b8hyOgHgGsG+lLlRvVS7jE+evJo/DXqeOXLlz8dq1SAyIYVwOUFX/06FF7b3h/VqbiFQJl5Tg7d9b4l9LraQRQHvl5ebBn927YuWMH0CRIStMiXlWjNhgEKp1zadLFHHjxWDbk2GzgnEr2ndeRUtXkP+SzB9UGAHJTxnPxyBSKL+bBvteZPWaydfBlIyBQGn96GBvPHIZqC/6kU9ZYZAN4lVUI5+cIeBIBbAae0yK/J/dsB1oZ4EpWODb+fWvUcUXiM/cQl3Juf2eKlRoB3XWYGOgsT9b0IbXquhYh2WDdscPw9QW2pYYlmZw0hYUtKjlXfWAxACA3P/9dzJl5F4ODX66Es1uZnQmoirzgi0ZAIDX+B4tzIXfxLxByQtmuZk6e3mcZGRns/jknwnkyR0APBPZlZHyFcrdjZAoH8nNhnowJgaPqJTLl4wlmuY1/qS5kBMxr0R78wQhIiqgEXd1MYCw8dx5mHM0CHAUAgNJSqjxK0tydO3fKmyTiIgsmA+Dw4cO5giAw984kmw12PLkE9F4WWBYHMgLavzsVQmvElE32ynkgNf4Svt5///MPxHymyXb9+GbAHK88FJ4pR4ANAfxXkJ5mE3GJe3F2Omw7f+bShZPfZjj2rMcMeifZKU5W2viXZuAvRsDYhGSgMpbqfcXRaoW5mXshszD/ilsqEk6DwfCGCr4rWJgMAJImhoSQAcDsBbiQdggyFn9PIj0WKyfHQcel0yCivvZLT0DmXyA1/lTkPXlnwPjcNyBY2e1c/Iei3j9zL4r04pEj4GkE0jIzadt0+bvsOFHQKkkwaec/kOdmx7jJSU3cjkE7yULXZPw/luX2d6aErxsBLaJi4Go37v/1Bw/AkrPHLxeR5USSpJe1mhPFbADs2bPngiAIL7AUqJQ3feF3cO7fzNJLjxzD42pAp0+ehJo9W3skv8uZCAIk3z8M/H2p3+Xy4EkhWGH7vC8gdC/T96JQkj1YBZttpv2M/3AE/BMBmyQIk7RQnZYEzk7b6VJUg8jKcLuPDQWwNv6lBfZVI4Am/T3RoDmIWJ+X6lrxeO7iRZicvQdsaMhVvKfi+mBeQQHz3LvSfJkNABIUfvHiPDwy1/pSsRW2TVmg63cCUM8rgrFyBLR5dQI0mjQCDOGhV9zXOoHyaP7sGLCMu1pr0V6Vt3btBqj8AdtWmpcLIEkf7mXY4OKyHH7CEfAiAunp6T9j9sx7pqAM+PjQfvj+mOtVNQ8mNgIaDiB6b0etGv/ScpQaAT3cjLWX0nviSHiTB8BZXthbhyk7/4FDRWXX/Dujdp+OBuXjNPTunlIehSYGwLZjx3KwoNPlZemaKmf/Mdg5i7Y2dk2n+V204BJG9YOuXz4D1bs011x8qcDKjeKh08dPQN0hXUqTAuJ49PQpuPDExwBWmxblyZVE8XEtBHEZHAFvI4Au/EdQB1o1hQe28PjurbAvx/nkWpMowmvN2kINk/4dGVcl0brxL82LjIA3mrcDXzAC+taoDXfVt5Sq5vC4aO9OWH7xjMN7ihMlaQsalJo2jpoYAFSQ9MzMdwAVpHPWeOibVXDgc/quBqsk5fw0JNB2wURo9/ZkqNKmgXIBTjhMVSpD46m3QOdPZkAli5vlIk5k+Gqy1WaFjY/Oh5Cj57RScQ6+6Ae0EsblcAS8iUBmZiZtMbdQCx1yrVa4f/tGOF/sfAdV2o9+UauOQBvTaJGnUhl6Nf6leviCEdA2phq82KSNS9f/6mOHYe6hjFK1Lx9VnkjYWD+AvJr0sFCOPaBM+1GLHysaAA9pIYhk7HruAzi3XTPwSKSiWK19Y+jw3mPQ6cPpUG94KoREhiviLyWu3KCeveHvsexFiL/5KhAMWkJemot3j3+99jGErCu/hSiDRtn5hYUvMPBzVo6AzyGAtfZUCUCDzd/BvkXweDQCaLdAZwVtUikK3m/TGap52BMQIgjwfJPWULq9rzP9WNPJCJjfoh0MrhXLKkoxP622WNyyA4QZDE559104DxN2/QOauH0u5fLO3sxMTT6qckncpV9NW6O0rKw/8SVHP/Al4Sy/tsJi2Pzg60DbBbPIYeWNbmGBpjNGQ6+/Xof2S6aAZezV9iGC8LrVAfBlhzJ/ojEEIhPqQK3eKdD40Zuh6zezoMsXT9sbfhr3L0MaMKd7flwF+e8s16w8AsDDBw8ezNNMIBfEEfABBDIyMs5hfaFZB2ntmZMwHYcDXBWNtqX9JKULNEJjwBWdVvfI2FiMnoehteO0EulSjlEQ7b3wexKSXfbEXQpReHNkXAK81aK9y50X6UuOY7eugwvoGb1SvKqUE6bCwkdVcbph0tQAsOclCA+iJ+CU/Zzxp+D4Gdh078tQnOP99oAa96ptG0Hy+GFAQwQ9fn4R+m9bAlf9/Sb0XvUGXLVuAfTdvBi6ffcctH5lPMTf2hcqJXreOmWEXBH7yS17IXP6u4DPWxGfU2JJ+mZfRgYtnXJKwm9wBPwVARzW+lQA+FEr/b84cgBeTt/tUlx8eCT8r203GIUNl1ihw+KSUeFN2qzn23bdobNG3yWQmz2V6aHERkA98tqhYXLZFNORcfNasxSY0aA5hLjA8QIOzdy1eS0c0ma9/yU9JWnizoMHT1+60PZXcwMAX/LjkihO1ErNC3sPwD8Pz/PoJkFKdKehAWN0JQiJ0O/lU6KPp2hzso7AxvGvAKCnRqM8z4lG430ayeJiOAI+iYBYVHQXKqZZZb5g/z6giDKdBnKXP44N1+doCLSNqeqUTs0NMjDeaN4WqOdfQ8cG2J1uXavWgGUde8K4+CQIN4S4I5d93ySKduPp5w49oX9N1x062qdh7D9/w45c55M0ZWdcQogG41dpmZmaTvwrEW0/iPZfjX/QCFiKIn/BqEk4ueZf2Dp5AUjazDDXRKdgFpJ36CSsGTMH4FyuZjDgiz5l7969rtc4aZYbF8QR8A4Cew4cOIwes3u0zJ28AO8dcL9/Ci0P/KhNF/iwTWfoU702GAV11T/+r0JKdFV4uWkb+Bkb3b4+8h0CavgnWhrDis694f6EBlAnNFw1zNVNoTCmvgWWd+oNZDxFG40uZdH3Gu7ZtgE2nT/rktPHxnQAABAASURBVE7hzaNCSMhYhTyKyNW9Ae6zkMSQkDuQTDNL99ivG2H79LeBtg1GuTx4CQEallk7ZjZYj2n3omOF8iO6/t/yUpF4thwBjyKAPbrPMMMPMGoWnt33L7y1P02WvHYx1WBei3awpmsfmNOkNQyrHQcJEZFAm9o4E0Du9b41amNj2Ax+x0bx45QuMLhWXZc8zmTpnV7FaIIJiQ3hDzQEPkJj5140BshgqRxidJp1hMEALaOr2Jf1LWnVEf7q0gceTWoCtWR4NXKsxTAGx/zXnHG3Ia7T7B3dkGwAd2KnSFOhFTPSywAAVPyQAKCp9XL4u9Wwfdpi7gmo+BQ9dJ135BT8fftzUHhQ03fyWLEkkbEoeagYPBuOgNcRwMr9flRiH0bNwkvpu+CVjD2y5UVjQ3ktNv6z0Qj4pWMv2J46CJZjo/kljuXTCgI6kut7a4+BsBIbxDeat0N3uBnqhkfIzsObhDQ/oC0aOw+iMUAGy6bu/WFt177wbfse8GnbrkBpdL4ay/YPlvF/KV1hEjb6XarWkG3YnCsqhNu2/A3rz2oy7a0sXK9mZGRoNl+krOCy57oZAJQJ9uq+wOM7GDULh79fA1sefB1sBc7XwWqWGRd0GYG8gydg/R3PQV728ctpGpxIaCSOyczMPKaBLC6CI+A3CGDlfg6NgOtQ4VyMmoX5WXth6q5/AI1qxTJDBAHqhUXYdxLsgA0nDRkkRlbCMXXny90UZ+JlBprMR6siWkdVsQ9j0HkNGb18R2ofzMuFmzavcfuhplJe2UdB+NsUFjZZNj0Doa4GAOkVkZMzAY+aftDl+IotsGn8Kz6xOgDLFvDh3I5M+PvWZyDv4ElNyyoBvIBGome/AKVpCbgwjoB6BNAI2C4Jwj3qJTjmpNUBd6FLmmakO6bgqawIbD13Bm7YtArSXezKqDKPY6LBMHznzp2FKvkVseluANi3CRaEYaiVdoPGKOzU2h2w7tZnIf/oabziQS8Ejv+xBXv+s6Hg5DlNs8Ce//L0jIzHNBXKhXEE/AyBkgnT87VWe/XpE3DjxlX2TYO0lh3s8r4+ehBu/WctnCwsUACFLNIiEMWbaPhcFrUGRLobAKQjvuRpWOHfiufo9cJfjcKFfQdh7cin4exWeZNfNMo2OMRIEmS++xNseeh1PT7OlC2J4ggEUsONslAaDxwBP0Qgrn79B0AQlmmtelruRbhuw1/wy4kjWosOSnlFkg1m7t0Oj+7cAjTrXwcQ7k5LS1uhg1ynIj1iAFDu5OqVJOkJOtcy0qz09bfPhgOf/q6l2KCWZc0tgH8mvQl7XvpUjwmXOej2HIYv+omgBpkXniNQgsCKFSuK0QC4AS81HSpFeXDRWgzjt2+EWft2QIFN0/4XiQ+auD8vB0ZsWgMfHsxSVWYZTM+lZWS8I4NOUxKPGQCkdXpm5rN41LyQtqJi2PHMUtj22CIozs3HLHhQiwBtvLR2xEw4umy9WhGu+KwgSSPQI7TJFRG/xxEINgTQID6PzfNgNAQOa112CQW+eyADvQErYffF83jFgxIE/nc4G4au/1P7yX6lSkjSp9j4Tyu99OTRowYAFSy6SpW78fgrRs0DLRNcM/wJ4EMCKqBFl//+D36FtTc/BRczNK+D7Aphz/+htMzM7+wX/IcjwBEoh0BGRkY2GgB9MVHb2bYokMLenAswfONfMC9rH5A7m9J4dI7A4fw8GLdtPUzbvRXoK4zOKd3dcXFfkn42hYePQgqy0/Dg2eBxA2DTpk1FaOlej8XcjFHzkHvgOKy7bRbse/0LoA8KaZ5BAAqknf023v0S7JrzoW7LK/Htfh57/q8HIHy8SBwBzRBAT8AONJT7o0BtZ92iQAqFOAzwasZuuGb9Sth0jk+gJkwqRit2hshjMnDdH/DHSV1XKK/MLSi4zlMz/iuWk649bgBQpmjpnhNDQvrh+Q6MmgfaMjh94Xewevh0OLN5r+byA0Ug4ZS1dBmsGjYNaLtlvcqFjf+C9IyMKXrJ53I5AoGEABrKm9AIGIRlysGoS9iH3oCbN62GSTu3wNGCfF3y8Eeha86chGs3rLTPmdCq1+8Eh40gikMOHz6s6T4QTvJymuwVA4C02bt370mj1doHz9Mw6hJyMo8ATRDc/vhiKDhxVpc8/FXomY17YO1NT8LuFz4GmvSnWzkE4X1s/O9D+RJGHjgCHAEZCKARsBo9peQJ0G3Qnv4hvzl6EPr9/Tu8lrHHPmFQhmoBSUIG0T3bN8DoLWv1nychSWuLbbY+6O3R7dnKfUheMwBIwV379x/Bl7w3nutmBNC3Aw59swpWDp4MGYu/B2teAWYXvIF29Ptn0nxYd/tzcH53tt5AfBRXrx5t82vTOyMunyMQaAigp3QV/uP0Bkk6pWfZ8qxWeCNrL/RcsxzmZ+0LKkOANvJ5eMcmGLL+T1h+4qgOMF8h8ncc8++blZXlEz1SrxoABA2+5NlGq7U7nusyHIBy7YF6uXtf/RxWDpoM+z/6LejmB9CGSTueehdWDpkCR39eb8dE1x9BWJSWkXGrfYmTrhlx4RyBwEUA68eNNkHoiSXUvXWife1fydiNhsBv8GL6LjgWwEMDNP9h/L8bYRA2/N8fOww2HPdHjPUO32HPfxCO+V/UOyO58r1uAJCi5AkQQ0JS8VyXiYEo93KgoYBdz30AKwdOgqz3fg747YRzso6CveEf9Cgc+N8KkIo9svfO3LT09HEIOnZg8JcHjgBHQDUCaARst0pSRxSgaycJ5dvDuaIiWLg/zW4ITNyxGdafOQU0XGC/6cc/edZi+BKHPIZvXAUjNq2GZceP6N7wl4Hrzbj69Ydhzz+/TJrXT33CACAUaE4AiCJZur/Qtd4x/9gZ2P3iJ7DiqoftG97Q6gG98/SYfLRmT63fBVseeA1WDX3M3vB7aEUEdlaEydjzfxjLGgh1BhaDB46A9xHIzMzcj73HrgLAck9pQx8U+u7YIbhlyxrou/Z3HB7YCwfycz2VvSb5UM9+w9lTMH3PNuiy6leYsnOLfuv5HWuMKkiTsE681xe9oT5jABB2NCkCraRBIAiL6doTsfhinn3LWxoa2HDnHDjy499gzS/0RNaa50G7ItI8B5rvQGU59vtmoDkQmmfkWGA+SNJN+9LTn3d8m6dyBDgCLAhg7/FsVJUqAzxZP5bqSzvhvZKxB3qvWW6fJb9g/z7Y46ObCtFSxzWnT8BTe/+Fbmt+g5Gb18Cnh/Z7YW4DXESD7fr0zMwXS3H0taNPGQAEDllJ6D6+C8+nYvScC7mk17x18gL4vcd4oCN9CMdWUIRq+G4oOHkOsj9Zbp/Ut6LPRKB5DrnZxz2t8HFJEHqnZWb+z9MZ8/w4AsGEAO2jYq8fJYnqyHxvlH3HhXPwcvpu+8S5rqt/ham7/gH6QE5Wbo431AHyVNDX+ZYcyIC7tq6Ddn/9DKP/+Rs+OJgJJ7w0jwHdn3vQo91hX0bGl14BRWamPmcAlOqdlpExGxuVwXh9BqNHA00YJE/A5gmvwvJu98Ome1+2TxzMyfT+RzVo22Pa22Df61/C2hufhD96PQg7n30faFmfB3v7ZZ/HOnzRU9LT09eUTeTnHAGOgH4IoLG92AbQDXPYj9Fr4Tg2sPT5YfpATt+/f4eOfy2DsVvXw0vpu4CGD2jrYS3X09MX+DaiS/9j7NHP3Lsdbt68Gtqs/Amu37QKntu3A/48dRzyrB6Z5+QK8y8EUWyPHu2droh84Z7PGgAEDjYqPwkGQ1s8/wejVwItGzzx1zagiYN/XT0Vfu8+3j62Tl/KO7V2B1APXC/FaKMemsR39JcN9p79utGz4LdO99h3Okxf+C2c25kF6HbXK3u3ctHKfQsb/x74oh90S8wJOAIcAU0RyMjI2GgqLGyDQj/H6BPhdFEhrDh1DN7anwY0gfDq9X9Cqz9/hPYrf7YPHZBxMBnH4enjRPOz9tknG1LP/ZPD2UBxUXa6PY32JXgKXfgP79hs780PWLcCWqCczqt+wUZ/DczAMX36MM/Gs6f1+jKfGjzzJEkaj53X67FOPK9GgKd5fNoAIDD27duXkV9Y2Nne2FCCl2PhmQtAY+v0pbwNY1+AP3o+YDcK1t02y/4xon3zvoKDX64EGj6gnnpOxmGgtfdF5y5C0fmcy7Hg1Dl7On1859SG3UAf36HliXte/MT+Cd411z8Bv3W8G/4aMgX+mTjPvofBmU17dduqVyGs9HLfkp6RQZ+vLFDIy8k5AhwBjRDYefDgaWpwBEG4HUVewOiT4WxxEdDQARkHXx09CLTV7isZu+3LDann/sTurUDxhbSd9rQ3svbaXfjfHzsEa3A8n9br6/QJXq3w+gc7Q21xvP8NFCgB4K8fBJ83AAjDgwcP5lFjg73doXh9AqNPBTIKqLGnjxGlL/gG/p3xDmzG4QMyCv4a+hj8OWASLO96Pyzvct/l+EfqA/b01ddNhw13zIZ/Hplv9zJkvvczHPttk32THh+djLjGYLW2SsvI+NCnHgJXhiMQxAjsS09/F72lrUAQ/gxiGLxR9GLMdLYpLKwD9vp34rlfBb8wAEoRxXGvb41Wa0sB4MfSNH70GAKFmNOMuPr1e+zZvz8Tz3ngCHAEfAgB8pampaf3xI7SGFTrDEYe9EVgvShJbbEzNHXnzp1UP17OzV9O/MoAIFBp06B9GRmD0AgYidc+5w1AnQIvSNJadG+1wRf9KVqlEXgF5CXiCAQMAhJ2lN62SlJjLNFHGHH0FH950BKBc5IgTMD6sNPezMytWgr2tCy/MwBKAUIj4KMQk6kxWrtLMY2/5AiCDuGcfVJLZmZXdG95ZBcyHcrARXIEgg6BzMzMY9hAjcSGqisWfj1GHtgRsGJDswA7Q8np6emvozgbRgfBf5L81gAgiHfv3n0Krd3b8IF0wWv+kiMIGgUbjiUuxsqjQcmkFptGcrkYjgBHwIMIYEO1Bg0B2kb4FszWq0sGMX//DZL0M9aHrdIzMu7BzlDAeJ792gAofZvwgazFl7wTPqDRmHYIIw9qEaBJRKLYDscS78LKw+M7CqlVm/NxBDgCThGQsH780BQW1gCHTu9BqgMYeZCBAPb4f8N2pQt2NAdgffivDBbwJ5qAMABKALfhA3qv2GZLwuuHMB7DyIN8BNbhcEo/bPhT0aDS/aNM8tXilBwBjoAWCNBENRw6tbuwUd59+P+egUcerkRAQmx+RrdnN+zx98F2Zc2VJIGREkgGgP2JZGVl5aO1+0pETo5FEITJmHgUIw/OEViPvYIhiFlHtHJ/cU7G73AEOAKBgAAa+AX4/z4f/9+TsXc7DHu5fwVCuTQoQz4NfeKQcjPEZkBGRsYq5TL9iyPgDIBS+LcdO5azLz39eXyYCWjN3YUPdlfpPX4ENG7hO0GSemBFQPtVf88x4QhwBIIOAfKafoW93O5oCLRFQ2ABInAOY3AFQdiFncVHsa2ojx7Qu9BA8rv1/GofWMAaAKUkb4KlAAAQAElEQVSA4MMsQGtuMT7Yptjq0ZcGv8V7tHkDHoIunJYk6TXRZmuKDf/V+zIzVwYdArzAHAGOwBUIoJt7ExoC9+QXFtbBDtOtaAz8hkRWjIEaTmOnkCY6d8G2oQl2Fl/AtoJ5cp+/gRXwBkCZByKhS+dHfNhDDUVF8dgQPo4vejCMgaHdA38gDrcU22x10zMzH9iblbUbr3ngCHAEOALlEKBdV7HD9AEaA33EkJDaWE+ORYJfMfp/p0mSTmE53kZvx4DoKlVqY1tAE50Ddnwfy+o2BJMBcBmMPQcOHE7PzHwWX3QLun2a4Y2ZGNMxBlIgN9ZMwWBIxt5+L4wf0vyIQCogLwtHgCOgHwJ79+49ifXkIqw7+kbk5MQIAH0wtznYc/aX4VTyYGwinUn36KpV62BZxqC342f6rDKmaxz8T1xQGgBlHxO6fXbgS/EkxmRRkjrgvScxrsNILw8e/CZcRI/GNziWdTdauPWxPOTmf5K2B/WbEnBFOQIcAZ9EwD6nKiPjN6xXpmDPuYnBak1ERWlvgXlY72zBc1/wENBHymgi80yw2fpj564q6tsW45R9qDtv9PEpVQhBbwCUwUPam5m5Hl+WmRg7hphMtfDFvlGQJNrxiZbF+ZpBQF/+Itfck9jg9zKFhVVDj8Y1OJb1Flq4fJ1vmQfLTzkCHAFtEaDvgWA9+SHG+7HeaYONbSWMbbDOvBVzIi8BzbXajufUKONBsyBJAEcwn7UokT5INhXPryaDBHWJwdgP45NpWVnLsHOndd6YpfPgj3e4AeDkqZXsMvjZvsxM2vM5xWA0VsGGtjeSP4xxCUZyLeXjUf9waezqd3zxX8WXfQz9o+FLXgVjX4wzscH/g9b46q8Iz4EjwBHgCFyJADa2BRi3oDHwAdZJ5CUYiscWGKMLi4urWiWppb3+lKQbkftejFMxzimJr2BHayFFrOOepzRJkp7BOAld93dgfXeNDaAbxoZ4Hp6ekRGL+XRG2bdgnI3n35FBgnzIjr88yEaAGwAyodqzZ88FbGh/xxduLsY7MJJrKUIMCYnDF7MbNsyj0P3+BI6PvYFv4cco9hdM24Ixwx4BTmIafaHLHpGGrFiahLgPef7G6x+Qjr5rMBfpJuKLfx2+7G3onwdf8OqYX2988R/E87fpHw1pfM0jgSrxwBHgCHAEyiOQnZ19JjMzc5u9/szM/AzrsjcxzsY4pSQ+hB2tcRSxjptMaemZmdMxvoiu+yVY332TkZGxCuNePC8oL91XrvxTD24AsD03ae/evYfwxVyFDfP76H5/GsfHxuNLfDO+xP0wrQ1Giz1mZNTANBqTskekISvWgmkNkKcTXg9Gutvw+mGML+OL/yW+7Fvon4dNRc7NEeAIcAQ4AhyBKxHgBsCVmPAUjgBHgCPAEeAIyEbAXwm5AeCvT47rzRHgCHAEOAIcAQYEuAHAAB5n5QhwBDgCHIFgR8B/y88NAP99dlxzjgBHgCPAEeAIqEaAGwCqoeOMHAGOAEeAIxDsCPhz+bkB4M9Pj+vOEeAIcAQ4AhwBlQhwA0AlcJyNI8AR4AhwBIIdAf8uPzcA/Pv5ce05AhwBjgBHgCOgCgFuAKiCjTNxBDgCHAGOQLAj4O/l5waAvz9Brj9HgCPAEeAIcARUIMANABWgqWQRG8fH10lMTGyQkJAQo1IGZ+MIcAQ4AgGFQItatSKpXkxKSopLSUkx+k/h/F9TbgDo/AzxpW6aZDa/l5SYeKLIYDiMgO8JEcUzeL0H40x88aN1VoGL5whwBDgCPoVAkyZNTBaLZTzWgRtzIyMvUL0INtuBc2fOnMX68uukhIQePqVwgCqDuAdoybxfLAFf7pn4Um8FQRiF6lTFWDY0wIsn8AHsQyOAPjOMlzxwBDgCHIHARgA7RU0K8/O3C5L0GpY0BaOAsTREYH05FERxRZLFshS9pWGlN3ztGAj6YPsTCMXwvTJg4/8GavUERgNGV6EGPoSfExMTB7oi4vc4AjIQELFXVa+B2dwNj6PwHZycbLG8YElMXILn32LP6g88biyJ/+J1Op7vwmhPQ7qVyYmJP2A6eaxetpjN0/DeHfhu9k5OTk7k7lkZT4CTuESAGn/sFK1GIuoA4cFFkKRbDaL4XWpqaogLKn6LAQFsexi4OatDBLDSHIk37sUoN4Tgg/ioYb16sXIZOF1wI2A2m+OxMh2KDfx0fN8+w0hDSnnYq8q2CcJKPL6HCM2WJOkR7F6NxvMh2LNKxSP1uCg2xetEvG6Eka5TkK6bBDAQ08lj9ZAgCM/gvbfx3fxNslrT0T2bh0ZCJub1LfbOnkVD4YYGCQnEj6xIyQNHwAUC5PbHxv8rJInBKCvgi3XVwQMHZsoi9ihRYGSG/9uBURBfKUVJL2mWCn2ii41G8hioYOUsAY6AiI19G+ydP4AN76cYDxkEIQsr06+xgX8Ky349RupRmfCoZzAIAAkAMAQk6TE0FD61iSJ5EE6iUfAdxqnkfSj5H0AyHjgC/yFQkJc3Fq8aYFQWJOnhBg0a1FXGxKnlIMANADkoKaA5f/o09bLqK2C5TIqV6012K/lyCj8JVgQaNWpUDRv8EdjYL8WG9Qg29puwd/4KNrw3YPQ1TxHNbxmMz2oWeR/QU3ASPQVfWMzmu9BwicN0HjgCIAr2uVBqkAizFRffoIZRL55AkcsNAI2fpA2gO4PI6OK8vFYM/JzVjxFoEhdXFd3qd2KDv6y4sPAoNvgfYWN/KxapJkZ/ClFozA7DIYSFaLhkoxGzFsv0EDcG/OkRaqtrbGxsBL7PbRmkstSrDNkGNis3ADR+vljpMfXOrKLIXV0aPxNfFpeamhqCDeNQbCC/KzSZjqJbfTHq2xdjoEx8EtCI6YjleRmNgf3oGViZbLGMpgYB03gIEgQiIiLqYFHRLsRfFQEZfaheVFEAH2XhBoD2D4Zp2YooSeHaq8Ql+hoCNIkPG8JnDh44sB8bxq9RP3KhB/omKCJW5N0kSVoSERZ2GI2eeYhDCyw7DwGOAD5zpnoNvQdM/AEOr+ricQNANXSckSOgHAHs7bdGl/hSgyCkYaU4DXvHTB4j5Rr4DAdtgHUv4rAVDYFVOPQxBDVD+wB/eeAI+DACgaQaNwAC6WnysvgsAslmcx9s+Fdgb38zNvo0rh/is8p6XrEuOPTxLRoCW5MTE2/G7Hm9hCDwwBHQGwH+j6Y3wlx+UCNgsVg6Y8O2XBKEX7Dh59ubun4bmqOr90M0lP5F3GgvAl4/ucaL3/U4AoGVIf8HC6znyUvjIwjQ2DY2/L8IkrQaVeqFkQe5CEhSY8SNdiPchIYAx04ubpyOI6AQAW4AKASMk3MEXCFAS/ksZvOrBkHYhHR9MPKgHoFWaAgsR0Pqu6SkJIt6MZyTI6ANAoEmhRsAgfZEeXm8hYCYZDbfV2gypQuCMAGV4GP8CIJGYTDYbDto1URCQgLTKhuN9OFiOAIBgQA3AALiMfJCeBMBdFMnYS/1NxAE+gBUjDd1CeC8Q2nVRIgo/ksfJwrgcvKi+SwCgacYNwAC75nyEnkIAdrEB93909BN/S9m2RMjD/ojYMFK61dLYuKbTZo0qaR/djwHjkDgIoD/S4FbOF4yjoBeCJjN5vgD2dm/o7ufvpgXqlc+XK5DBAQB4O6C/Pzt6H3p4pCCJ3IENEYgEMVxAyAQnyovk64I4Fj/rQZB2IaNUDddM1IhXBAEqF2jGrRp3hiuvqoH3HPr9TD1vjtgztQH4K3npsMn8+bY41eLXoYfl86Dbxa/Yr+m9MUvPAkvPv4wPD7+LrjvtptgWP/e0LF1c6hXpxYYRN+rKhD/BPS+/IHP4zGEyoCRB44AR0ABAr73X61AeU7KEfAkAjQBDcf6F+NY/1LMNwqjV4MgCGCJrwfXDbwKnnhgLCx95RlY8/VS+OXDBfDuS0/BM4/ejwbADTBi6AAY0LMrdEppAU2SE+2R+OJq1wRz/br2a0pv37Ip9O3eCW4Y0hfGjbwOnnz4blg45wn44b034O9vP4BP5z8PTz9yH4y8diA0a2DxFaPAiM/jWXwuP9IXFL36QHjmAYxAYBaNGwCB+Vx5qTRGIDExsb5RFFei2Dsxei1Qb5wa9DeemgJ/ff4OUE9+xoPjYPigPtCqSUOIDA/TRbdQkxEaJ5lhaN9UmHzP7fDRG7PR2HgPFj37GNx+zQBokFAP22Hsk+uSuyyhfYsKCzcmJSW1kUXNiTgCHAHgBgB/CTgCbhBINpu74z/KRgmgnRtSXW43tJhhwh03w7fvvGrvjZNLv3vHFIiq7N05cOFhYdChXWt46J7R8Oncp+Gn+XNgyp03Q5vGDUCkz/7ogoZzoWh+JIDNtjrJbL7FORW/wxFQjkCgcmC9FqhF4+XiCLAjQHvTS7SNL0ANdmnyJVSvVgXuGjEMvn37Vfjfm8/DmJuuhYS4WPkCPEkpiGCIjIQ69ePg+v69YNGTj8CP8+bAA7cMh/g6tTypCeUVhq6IpTgk8AReoE2AvzxwBDgCDhHgBoBDWHgiRwCAlvhhr/8DxCIUo0cCTbp75clH4Vccxx9/+whIqOejjb4DNASjEYxRUUDHGlVjYNSQvvDF3Kdg4YxHoE+ntp6cM0AN/0xLYuI7KSkpRgeq8iSOgAIEApeUGwCB+2x5ydQjIGIPcp4gCLTEjxoT9ZJkcIYYDDC4d3d7T58m3fXq3M6TjaUMDRWQCAKEVKoEhogIZBKwMy5ASpMGMPvBsfDNa8/AiAG9ITwsFO/pHwSA0edOn/42NjaWlNE/Q54DR8DPEOAGgJ89MK6u7ggYsPFfhLnci1HXIIqifdb9V4vnwqzJ44HG+nXN0IPCxdBQCImqDAKWsTTbOjWqwyOjb4Qf5s2G24b2h7BQU+kt/Y6C0D88LOznpKSkKP0y4ZIDGYFALhs3AAL56fKyKUKA3MVJFstHyHQHRl1D7y7t4etFc+3r7uPr1tE1L28JF9CzYcAhATGk/GcRoitFwoSbh6FH4Fm4rk8P3b0d6AnoBjbbr/ShJm9hwfPlCPgiAtwA8MWnwnXyBgKG82fOLAVJukHPzBPrx8Gbs6bB3BmTwJ/G99ViIggCGCpXBvIIQIW/6jHR8NiYkfDZi09Cl1bNKtzV/LJ9ocm0vH79+lU0l8wFBjACgV00bgAE9vPlpZOHgJhsNr8tAdwkj1w5FY17PzJuFHzx1kvQpW0r5QL8nIPmBBjCIxyWIqFubXht6gSY9cBdUDW6skMajRJbhYaE8DkBGoHJxfg/AtwA8P9nyEvAiACO+b8hCcJtjGKcsnds3Ry+WPgyjLpuCBgMwfsvJ4aFAi0XdAZUv87t4POXn4LB3Ts6I2FORyOva0RY2NdJSUmemYnIrDEX4E0EAj3v4K2NAv3J8vLJQiDZYpmOhPdg1DyYjEZ48M6RsOC5x4G23dU8Az8UKJpMEEIbGOHAvCP1aX7AzPvugBceuQfo3BGNBml9cKiHtnN2ooUGOXARGjiRgwAAEABJREFUHAE/QIAbAH7wkLiK+iCAPf+RkiTN1EM67bX/8Ruz4Y4brwGxzEx4PfLyN5lCiBFCIiuh2s7b317tWsMnL86Ads0aIZ0OQZJuSLJYaJmnDsK5yMBAIPBLwQ2AwH/GvIQOEEg2m7tj8tsYnbdCeFNNGJDaBT56fRYkm+urYQ8KHtosKCQy0mVZa1aJgXnTHoTR1/S37yfgkljNTUl6LMlsvlMNK+fhCAQCAtwACISnyMugCAH6sI8kCF8gUyhGzYJBFGHS3bfBnMcehPCwMM3kBqogwWQsmRPg3AYziCKMHzEMnn/4bsCxe+2hEIT5Fouls/aCuUR/RyAY9OcGQDA8ZV7GywgkJCSEGQA+x4TqGDUL1Di9+uSjcOuwwZrJDAZBNCfAEBHutqi92reGd56eDLWrV3VLq5DAJEjSFw3r+dGeywoLyMk5As4Q4AaAM2R4ekAiECKK8ySAdloWrma1qvDe3KeAvtCnpdxgkUV7BBjC3BsByfXrwpJnpkByfD2toaldbDR+QhtBaS2Yy/NXBIJDb24ABMdz5qVEBNDVS0v9NN3lj2b3L537dEBt44tQeTyI4aH2jwi5y5jmBSx+8hFo1dDijlTRfRyE6Hb2zBk+KVARapzY3xHgBoC/P0GuvywEGsbHm9HV+5osYplEtJPfkpefgtjaNWVycDLnCAhgiKwEtH0wuPmrhEMG86Y9BB1bNnVDqew2GgGPoJHYSxkXpw5EBIKlTNwACJYnHcTlTE1NDbGK4ocIQRRGTYKZ3NEvPgW1qlfTRB4XAiBgC0xGgP0EXP/Rh4RennSv1kaAiEbie/ybAa6x53cDBwFuAATOs+QlcYLAoQMHpmKj0snJbcXJcdjjXzTnCahWJVoxL2dwjYBgECEk0vGWwVDhL9RohJcm3gOtGydXuMN0GVdoNM5nksCZ/RyB4FGfGwDB86yDsqRJSUlNJEmaplXhacLf4udnAB21ksnllEdAMJqAJgaWT3V8RZ6AVyePh8aJ8Y4J1KQKwo1JZvPValg5D0fAnxDgBoA/PS2uq1IERLDZFiJTKEbmEBkeBvOemcLH/JmRdC9ADA8HwWBwT4gU9FxemXw/1Kmh3XCMJAgLEhISYlA8D0GGQDAVlxsAwfS0g6ysFovlPixyF4zMwSCK8MLjD/PZ/sxIyhMgCALQFwQBBJDzVz0mGl6dMh4qyxw+cCcTc60TIoqz3NHx+xwBf0aAGwD+/PS47k4RwMa/piBJTzslUHhj4thR0LVda4VcnJwFASEkBMQwk2wRlrhY+yeFRRGbb9lcLgnH4RBSG5cU/GaAIRBcxeEGQHA976ApLTYBtKZbk1l6A3p2hVuGDQoa7HypoGKY/KEA0rtzy6Ywbrhmw/c0hPQ6ysXXCX954AgEGALcAAiwB8qLA5CckNAKJEmTDX+SEurBkw+N47B6CQFBEECMkLcqAEr+7hw2ELq1aVFyxXzojN6kG5ilcAF+gUCwKckNgGB74kFQXkkUX8JiyptBhoTOQqjJCM8/9hD/sI8zgDyULuJQAH09UG52giDAk/eOhuoaLdPEoaQ5OBSgyURSuWXgdBwBTyDADQBPoMzz8BgC2FvrhZlRxANbeGjMrUAeADYpnFsLBAzh4YrExFSuBE/dezsIgibe+3iw2fhngxU9AX8kDj6duQEQfM88oEuMvbWntChgp5QWMGJofy1EcRkaIEBLAgWT/AmBlGWHFk3gxv496ZQ9CsK0uLg4ZVYIe65cAkdAVwREXaVz4RwBDyKAvX9qsZmX/YWHhcLjE8Zq1Xv0IAKBnVUIegEEEBQVcvyIYVC3pgZffpak2DCTiU8GUYS+fxEHo7bcAAjGpx6gZcbe/+NaFG386BFQr04tLURxGVoiIIoghoUpkkg7BU4ZM1IRjwviKQkJCcoUcCGM3+IIeBsBbgB4+wnw/DVBIDkhoQMK6oKRKTS0mNH1P4BJBmfWDwERvTOCQi8ALQ3s06mtFkrVMoriCC0EcRm+hkBw6sMNgOB87gFXakkUH9GiUJPvuQ0MBv5voQWWusgQsPkPVTYXgPR46NbrgbwBdM4SJYBHkZ+/IAgCD/6PAH+R/f8ZBn0JGsbHmxGEazEyhau6dYS2LZoyyeDM+iNw6UNBgqKMalWrAiMHXaWIxwlxI4vF0s/JPZ7spwgEq9rcAAjWJx9A5bYaDDQ5y8BSJOr1T8CxfxYZnNczCAgGAwhGg+LMbh86AKpGV1bMV5FBkKR7Kqbxa46APyLADQB/fGpc58sIpKamhqBbdtTlBJUnQ67qAQn1YlVyczZPIyCGKV+RR6s7bh2iSed9IHoB6nm6zDw/vRAIXrncAAjeZx8QJT+UnT0UncF1WAoTgj3KcSOvYxHBeT2MAO0OCPjclGZ7Q99UoC8HKuWrQE+zRG6rkMYvOQJ+hwA3APzukXGFyyIgSdKYstdqzgf27Ap1a/Nlf2qw8yaPwaR8d16aCHizBnMBbJJEOwOi7elNBHjeWiAQzDK4ARDMT9/Py96gQYPqIAjMM7tGXTfYz5EITvUFk1FVwYf36QGVIpQPIZTNDFv+BBwG6FQ2jZ9zBPwNAW4A+NsT4/peRkAqLh6OFyEYVYfObVtBA0uCan7O6D0EBFEEIUT5ZMDI8DC4pldXdsUliX8lkB1FL0sI7uzF4C4+L70/IyABMFfAI67WZFKYP8Po17qLRuXDAFTgG/r1BFHEfjxdqI/0/vE6VD1+nNPLCPCX18sPgGevDgF0v9ZEzu4YVYea1apC1/ZtVPNzRu8jIJjUOYDq1qwOKU0aMhUAzYc6iYmJnZmEcGavIhDsmXMDINjfAP8tP334R7n/t0x5r+3fEwwi/xcoA4nfnQqiAYQQdUbAtRoMA4iCwPeN9ru3hitcigCv/UqR4Ef/QkCSyABg0nlIn1Qmfs7sGwgIIeomA6a2bw00H4CpFDYbNwCYAPQmM8+bGwD8HfBHBAyCJPVlUbxpAwvUj63NIoLz+ggCglGdByDUaITUdq3ZSiEIrRrW4ztIsYHIub2FADcAvIU8z1c1AskJCW1BEKqpFoCM/Xp0xl8eAgEB2hoYAEfkQflfX/avBArFJlMf5TlzDm8jwPMH4AYAfwv8DgGbIDCv4erdtYPflZsr7BgBQRBACFFXlXVo0YR5GAC9Ud0ca8ZTOQK+jYC6/xrfLhPXLsAREBgNANrzv14dvvNfIL0mgkHdPABjiAE6NGvMCkUXVgGc39MI8PwIAW4AEAo8+hsCHVkU7so67suSOefVBQEBG3K1gju1bqaWtZSvYcmy1NJrfuQI+AUC3ADwi8fElSxFACvaJDyvjVF16NK2lWpezuibCIgqVwJQaTrhMAAdGaIg2GxMRilD3pxVBQKc5RIC3AC4hAP/9RMEsKJlmrYtiiK0bNzAT0rL1ZSNgCgACOqqszo1qkHt6lWB6U8QmN5Lprw5M0dAJQLq/mNUZsbZOAKsCEgAzVlkJJnrQ6XICBYRnNdHEbi0GkCdcq0akWNJHW8JF9N7WSKDHzyCAM+kFAFuAJQiwY9+gQD281qwKNqqCe/9s+Dny7yCQX111qohswHA9F76Mq5ct8BFQP1/TOBiwkvm2wgw9bSaJCX6dum4dqoREESDat5GCfVV85YwWmJjY7lrqQQMXz5w3f5DgBsA/2HBz3wcgZSUFCMIQjyLmg0SmdhZsua8eiNA8wBU5pFcvy6IDPyYrRgeHs6tSwSCB/9BgBsA/vOsgl7Tc+fOUTdNdTfPgC5iS3y9oMcxUAFgGQIICwuFOtWZNpcEUZISAhXbwCkXL0lZBLgBUBYNfu7TCNhsNqYKtk6N6hCOFb1PF5Irpx4Bga06S4yLVZ83ctoEwYwHHjgCfoMA23+M3xSTKxoICGAPi6mCjeO7/wXCa+C8DGwufIitWd25bBl3BO4BkIGSd0l47uUR4AZAeTy8fiUBLExKTDwdENFiOYTl2JhksbxusViYv74jiGIdlgdUp1YNFnbO6+MICCCghhTxoCLUZTQAQJLqqsi2HEtyfHxj/J+ZhXE1xmyMAVEXoHG0ulxB+YVPIMANAJ94DOWUiMSrKgERJYl8qilYMd5PFQBWZt+hIVATy6Yq2CSJaZA2tpbqrFXpy5m8gABDjVanJtPrBRLDFyoTEhLCLImJCySDYTuiNhUjGcw0YSUw6gKAKCyTlwPPviICDP8uFUXxa46AWwQGoyGwPjExkSbzuSWuSIB9OyYfbbUYXgdVxDTQrgUB3xKVhapSubJKzktsmHP1S2fKflvUqhUZIgi/I/845FQ9yRV5eeAIKEKAGwCK4OLEGiAQj2P5X9uX9CkVxugBiI6qpDRHTu93CGAzqlLnKpWZ3w9VLoTcSpXeAUHopFJtziYTAU52JQLcALgSE56iNwKC0Prs6dPU21GWkyjGKGMoTx0THV0+gV8FHAISQ4li2A1Exe8nDon1xCGyGxjU5qwcAdUIiKo5OSNHgAEBQRDuU8xus4Uq5inDUCkivMwVP+UIlEcgMpz5/VD8fuKQ2L3lteBX+iDApTpCgBsAjlDhaZ5AoJHZbFa2LZ8gmFgUM4aEsLBzXj9AQAD1PoAQg4ieePVDCAgPvZ9KBBBtP+TjgSPgFQREr+TKM+UIIAIG5eumFfewMJvLwWjkBsBlMAL1RKI2VV3h0CsFxhC2OXhJSUlkBMhSoFGjRvQNYraZh7Jy4kQcAccIcAPAMS7qUwUhVz1zcHHaRFFRi4x9O0X0FdGkHl7FNH4dWAhIEr4lDEUKMTC9YmAwGGQbAEVFRWzWBkM5/ZA1xw919nmVuQGg9SOSpINaiwxgeQeUlA37doVK6CvSWm1sjUNFefzaFxGwMSlls7HxW61W2e9oenr6SVQ2HyMP7hFQVFeUF8evnCHADQBnyKhMx+pjuUrWYGPLzsjI2Kek0GgAMFWWRcXFSrLjtH6GgL33z2jjFRYXsZTalpaWVqBAgA0kaYUC+qAlxeGZ34K28DoWnBsAGoOLjdpaEIRdGosNRHFLsFASRtkBifNkEzsgLCriBoADWAImSWB0/xdbrWBj8xKpeT/fCZgHoF9BzgsGwxdqxXM+5whwA8A5NmrvWLGhmojMeMBfHhwhsN8UFvaioxsu0wSByQOQm8fE7lI1ftP7CEiM7vu8fCWdd4flVWwApGVmfo4VxV8OpfFEOwLo2Xlq7969NFxiv+Y/2iHADQDtsLwsCcf2fkKX1ROXE/hJWQTOCzbbNTt37rxYNlHWuc2muIItK/fchQtlL/l5gCHAagCcu8g8z0zN+ylZbbYb0AjICrDHoUlxcNjvk/TMzJfVC+OcrhDgBoArdBju7UtPfwYt17EoQnlDh0wBGnaAKHbal5X1j6ryCQJTDX32HDcAVOHuL0ySjUnTs+eZ3w9V72dWVtZRmyR1ROX/wMjDJQRovO65fRkZt+Al2kf4y4PmCHADQHNI/xOIluuiYpstGQRhFqbuxMg0wwj5/ZtpOosAABAASURBVDGQAfQrWvJ3xNWv3yotLY1wUFuOo2oZie/MufN04DFAEWD1AJy9oKr9/g9NSVL9fmZmZh5Ly8joBZI0FP9XvkKhZzEGW6CGPhMLPV+02ZojHo/huRWj6sAZXSPADQDX+DDfJes+LT19Gr7MTTGGFhYXVw2WaDAao7DMlTH2RUt+yYoVK8iqZ8H0EAvzkeN8GJEFP5/nLWZrK46cPMVWREFgej8p87TMzG/xf2UY/s9Uyc3PjwyWuoLKGV2lSiiWOxHjfXuzsnYTHjzqiwA3APTFt6J0KTs7+0ywxD179jD7VMsCKAnC4bLXSs8PHzuulIXT+xECrB6Aw8cZDQAATfcAOXz4cG6w1BVUzk2bNmnsIfWjl9dLqnIDwEvA82yVIyBKElMP6/DRE8oz5Rz+gYAkAasBcPA42/shMBqo/gE01zKQEOAGQCA9zQAviySKTB6AA0eOAa31DnCYgrJ4kgabPGUfVj2Eb8ccDRCm99MuhP9ohgAX5B4BbgC4x4hT+AgCJpMpG1WRMKoKhUVFsP8gr6NVgefjTKwGQFGxFfajgchSTKxM6f1kEcF5OQIeRQDfWY/mxzPjCKhGgPYOwNZ/v2oByLg3g4kdJfDgiwjYsAFn0Svr0GEgI4BBhi0kPJxlhQtD1pz1SgR4ihwEuAEgByVO4zMICADbWZTZnZ7Fws55fRUBK9sCkz37maaXECqZZKDSCY8cAX9BgBsA/vKkuJ6lCPxbeqLmuHXnHjVsnMeHEZCw8Zck9A0x6Lh1t6LvUjnKickwdSSQp6lHgHPKQ4AbAPJw4lQ+ggCrB2DH3nSguQA+UhyuhgYISBp85GkbvhcsqqABElAGQFxcXLjFYulvMZsnJiUmzsI4W8+YbLE8ivldU79+/Sosz4HzKkOAGwDK8OLUXkbACsDkASgoLIKd+zK8XAqevZYISEVsy8fPX8yBjENHmFRCw5TpvWTKXEPm2NjYCGz0nw4zmQ4LkkTfNHkRxU/FOFnPiAbUHMzvK1NIyOFks/mtpKSkGpifysDZ5CLADQC5SHE6n0AAewi7UBGmDYbWbtqKIngICAQkG9hwCIClLOu37wKbjW0IIUSS1rPo4Au82AOvFxkWtlYQhMdRnxiM3ghhkiCMxQeyBY2ANt5QIJjy5AZAMD3tACjrCtpOWJJWsxRl1QZ13yJiyZPz6oOADT06wNZ2w+p/drAqt393VlYWqxBv8jds2LAyejGWIZQtvKlHmbzrohGwrGF8vLlMmqxTTiQfAW4AyMeKU/oKAoLwJ4sqNA9Agy+/sajAeTVCQCosZJKErmdYu43RABCElUxK+ACzrbDwWZCkxj6gSlkVqlsNhrfKJvBzbRHgBoC2eHJpnkBAFJkMAJvNBn+s2eAJTXkeeiIgSWBj3AHw332ZcOI044f3bDam91FPiOTINpvNtdDtfpccWi/Q9MGhic7y8+WUShDgBoAStDitTyAQHR29ERXJwag6LPtzjWpezugbCGCvlVmRZRoYghKjQcpcCEYBBkEYjSLCMPpkEG22sT6pWAAoxQ2AAHiIwVYE+1fDBGEVS7nXbdkOZ86dZxHBeb2MAKsBYLNJsPzvTaylOJienp7GKsSb/Djuf7s383eXN3onrk9KSopyR0f3eVSGADcAlOHFqX0FAUn6hkUVKw4D/LSCaS4hS/aclxEByWoF1v3/N+7cA8fPMLr/AZjeQ0YYmNnRvd5FAGjILEhfARGSJN2kbxbBKZ0bAMH53P2+1MU221dYCBtG1eGLH39TzcsZvYuALT+fWYGvl//FLEMShC+YhXhRgCBJd3oxe9lZo553uCfmFEoR4AaAUsQ4vU8gkJWVdRQkaR2LMvsys2E7+xawLCpwXjUI0Np/Wv6nhreE59zFHFixgXE5qCSdqlevHrsVUaKTpw9NmjSphHkOx+gPoYPZbPaVJYr+gJcsHbkBIAsmTuSLCAiiSF4AJtU++24ZEz9n9jwCtvwCzBRHrvFXbfjmj9VQwLiDIAjCt/Z9KdQq4WW+wry8G1GFyhj9IhgE4TZXivJ7yhHgBoByzDiHjyCA/n9mA+BHbAiOnzrtIyXiarhFANt9a0GhWzJXBMVWK3z843JXJLLu4dj5l7IIfZVIEPzNrX4rei1MvgqnP+rFDQB/fGpcZzsC6enpaTgMsNZ+ofKnqLgYPvr6J5XcnM3TCNgKsfePQwAs+f60aj0cP32GRQTxHouqUmUZnfhjbGg208S/Tn6me42i/PzBjnXmqWoQ4AaAGtQ4j88ggMMAC1mV+d8Pv8IFHBNmlcP59UVAot5/HtvkP1r69/637O02qvKefTmqvkXWTbpNFMegcHRi4K9/Bb+YtOgvkHIDwF+eFNfTIQJ5BQWf4g2mtVzU+C/94jsUw4MvIyDl5wEw9v5/XbsB0g8eZi0m2SJvswrxFn9qamqIJEm3eCt/lnzR8OpnsVjqVZTBr9UhwA0AdbhxLh9B4ODBg9gqwMes6nzw5Q/Avw/AiqKO/Njw2wrQ/c+QBe398Nbn3zNIKGGVpD8zMjL2llz53eFQdvatqHRtjKpD/dhImDS2ueKY0qy66jxLGA2CJN2H5waMPDAiwA0ARgA5uw8gIIqLWbXIQdfyoo/8e04XKwa+zG/F54O9ViYVv/1jNew/fJRJhp1ZEJjfN7scz/2I2GvukpSY+BLGDOxFv8Oa9cihSTB2RCPF8f5RmnxvaDKW43CSxbIQy9W/SZMmfGKgygfKDQCVwHE230EgLS1tM2rDvK3fJ9/+DFkHmN3DqAoPmiJgtYJ98h+DUDLw3vyUfdM+bDyPgCh+rkaVpKSkpthwTcaGaykeP8M4L8lsvgXTddnmFuU2xbxetCQmHsReM22d/TDqbcbIFIwhIgztG69KRueUWlC3VoQq3gpMNUGS7sJy/VSYn38My7kIjQFdPhqEOIai7GvweZEBRc/tAzyfien+NomyAoQA3AC4AhKe4I8ICACzWfWmFQEvLHyPVQzn1xQBCYpzc3Hsn03o4i9+gFNafPtBkl5Gg1PRWERycnJicmLiD2Cz/YulmI0NF7ngr8fze0EQ3sf0Q9iAvY6NTBKmMQVslKKSLZZx2ED9jXL/xbwm4v9GHSahFZh7dqoD1WJCK6TKuxRFAa7tlyCPWCYVksVgOcegMbAay70Ly/+o2WyuhelMgWSgvJmIYzbK/gqFkQFFz20knj+B6Wvwua5PTExsh9d+GbgB4JePjStdEYF9GRk/CADbKqYrvf5r3Wb4Y+0GpWycXicEaNMf1j3/09Cr8/FPmmz7fDrEZHpLSVGxcegqWa0b0HMw0AVfJWzA7sdGZg96BL5OSkjo4YLW4S1srOLRiHgRG6UDOFSyAIk6YNQlXD+QzYkwfEACOlHwv1UX7aARln+OQRD2Y+P9DuLfXGk2xIO8b5MM5H0CY02MDgM+13bYiK5CQ+BmhwQ+noi6+7iGXD2OgDwE8H+R3QtAWT372mK4mIO9Trrg0WsIYMMJVpr5z6ABLft7ZuFSKCq2Mki5zPrGnj17Lly+cnOSbDZ3xwr2JySrilFOENEjMBRbxxVJiYmbMI5MSUkxumJEr0EKGg2fYGNFe2JMRFpdhhNQrj3UrB4O3doxzR+EurUjoWOrGnZ57D9OJZCL4nYRYCvi+Ati1Ncp5aUbAmI5gGiJB5NokySSgadugwkrn/eR3+92KsSyui0cJ+AI+AUC6AX4DBVNx8gUaGfAlxd/wCSDM7MiIIE1N4fZ9f/ZLytg+94MVmWIP0cMCXmdTuREavwlQfgBaWm/fTwoDm2Q44NzZ85kYqM0pUlcXDkjwt5LNZu/Rq/BBjQaaEvfEKTXPQzrFw8GA3vvfTijF0FBQUnZPojRMsRxFTbSPcvyxsXFhVvM5rvQe7IDsfwR7/XBSDx4UBRE5H8H5fuVEcANAEXPmBP7OAJWrHSf1kJH+lLgqg1btBDFZahAwJpfABJjrz3r0FF4/SPNPtb3+t69e0/KKYoGjX/ZbOrixXOFJlM2NmDzsIHphe7mj7Hi/gcbtaF4T01jhWzKg4A5XdffrJzRAUefrnUhujL75H0Hol0ldREk6XfEcTkOs/TDhv+pMJNpvyAIC3EIprErRpn3/M4IwPdIZtE4GUfADxBIT09/H9XchJEpSJIEj78wD06eZtpjiEmHYGWWiovBxuj6p/3+n5i/BPIZvxtQ8gxO2GROMsWeeVc0QmmzAbU9/5IsrzhEYsq92IAtR3fzTXju8bq7XcsakBCnTbHCQg0wuLfX9vPphcMsP2PDPx1x1HosgoyAJckWyziU7fPB4y+RzyPCFfR3BGxYAU/SohCnz56DGXPfxM4BVrlaCOQy3CNgQ9d/Drvr//WPvoQdaZnu85NH8WRGRsY5d6TU88cKlcb8/eYLe+7KVPa+Vr3/UpnDB7B6E0ol+dwR7TRpPnprfH44AN9XnwOPK8QRYEIAvQB/oABN9valVQGLPuYbBCGeHgnF2PhLNuxvM+S2/O9N8OEPmsz6Jy12x9Wv7/Z7E9T4o+HJMuZPeflspGV/A3rQaIR2KjZrUAVaNqmmnUDfkkSegHfQEzDat9Qqrw03AMrjwa8CBAGDJJEXoEiL4sxf+hn8tZ7PB9ACS1cyrLm5IBWzPTLa6W/mgve089pI0qMrVqwodqW3jm5/V9l69N59o5pAeJj28wwnj1W8Su9yuf3gRMShRDICfHY4gBsAfvAWcRWVI7AnM3MPcr2MkTnYsEc6dc5rkJl9iFkWF+AYAVthIbDu9X/uYg489Pw8oF3/HOeiOPX7tMxMl54k6vljJfozSg5Itz+WC1I71IGbr7bQqeaR5hWMHp6suVwfEiigETDfVz0B+O76EFRcFY6AhgjkFxbORHH7MDKH8xcuwr2PPwc0L4BZGBdQDgFbUTFYGfddKCgqgokvzIP9R46Vk81wcR5E8R5X/NT4o9uflo7RBD1XpH57L7VjHXhtRkdNlv45A2HqPS3hlmuSQBCcUThK96s08gS87YtGADcA/Oo94soqQcD+pUCb7S7k0WQW36Gjx2D8E3MgLz8fRfKgBQL2Gf85F1GU+kdks0kwc/67sGV3GsrRJgiC8GhaWtpBZ9ICvfFPrB8Fzz3aFhbO6grh4dq7/sviStsDz3igNSya3S2g5wSgJ8DnjABuAJR9E/l5wCGQlpX1JzYtbidxyS349t374IEZz0NBIdtYtdz8ApmOdvorvniRabweK1V47u0PYdmaDdpBJQh/7ktPd/rOBGLjT41wi8ZV4b5bG8Pn83rBsvf6Ac3SFzzYK+/RvvblvB8d1wI6ta4JJqPjJkq7h+1RST7nCQgodD36KHlmfoMAGgCTUdkDGDUJf2/ZDhOfeQlorbkmAoNQiGQthuILFwBbf6bSv/rhF/DlbyuZZFRgzrFJklOvUSA1/rQRz7D+CTB3ekdY99XV8MX83vDgHc283gsn78NdNzWEpS/3gI3fDLV7IW4Wj5VrAAAQAElEQVS9Nglq1wiv8Kj88tKnjADRLyHkSnMEFCBgX8Nts92ALJp121f+vQkeePJ5rTaaQdWCKFit2PjTWn80zVQWm3r+r37wBbz/3S8qJThmEwThfnxfHM4bKTPb32/H/Gkb384pteD5qe3hr88GwZzJ7WBwr3oQE2VyDIiXU2n4gb4++MSE1vDnJ4Pg49d6wk2DEyFC52EJnYtNRsA7yYmJd+ucj1vx3ABwCxEnCAQEcCjgbyzHDIyaBdoj4IEn+ZwAJYDSmH+Rveevfq0/jfnPWvwhLP1umZKs3dMKwvvo+n/XEWFSQkIPrCz9drY/9aofv78VrP58CLz3Yne4tm886LGszxF2WqXRMEXb5tXh6YkpsPaLITBnSnto7b/7CAho/s7z9sRAfKe1ejxcDkfAtxFIy8iYgxpq2mVcu2kbjJvyDJw9j+5sFM6DcwRoqV/xhYvA4vYvLCqGaa8t0trtT0rvNoWG3ksnFSM1/iCKtMmPpj1/AcfXaUvcivlped2maTV485ku8NOSvnDbdclAG/poKd8bsihP8gDQh4k+m9fL7hXo1TlW11UE5DkxhmjeXJInwKsTAzUvET0cHjkCPoqATRKEW9HyPqKlfv/s3AO3PjAN9h/SVKyWKnpdli2/oGSpH6KvUhta53/vs3Phl7UbVUpwypZvlaQbd+7cidZJeRo9G//Hx7dGN/xgePjOZlCjWnj5jBmuyLDo3SXW3jB++kYvuArPqffMINKnWckr8NazXeDHJf3gugEJoGVDXSnCCLdf3wCWfzAAFmAeoSaD1lhcMgISE2/XWrAcedwAkIMSpwkYBNLT049jV2E4FkjTtXzU+N8y4THYsG0niubhMgLY3tMOf9a8XEzCC/xVE+jLfrc/Phu27HI4PK9GZCmPhB6JuzIzM7eVJpQe9W78R12bZB97v+eWxji+PdA+Lt84KaY0e1XHlGbV4fN5vWEB9vqpYVQlxKeZnCuXFB8Fsx9tBz+/1x/6dY9zTijjTt3akUD7E/z1v0Hw2L0tga67t68N857uDLoYAQCLk71gBHADQMbLwEkCCwE0Atag9/VOLJX6FgmZK4Zz6N4e++hMeO/z77BN0VR0xaz849omgfXiBeYd/n5fvwVufWyWlpv8lMXv6bTMzA/KJtB5A7O5Jbr9aRfASLrWKlLv/PH7WwM1/mVlUq+VxuW/XdTHPvudJr4p6bXH1YmE12Z0tPf6aTlfWdnBdl4/NhLemNkJPn61JzRvWEVR8WlOAeFIPf47bmgA5AEoK4CWKupoBCxKMpuHlM1P73NuAOiNMJfvkwjsy8j4CBWbiVHTYLXZ4KWFS+GRZ+bChYs5msr2J2FSYREUnT8HtuJi1WoXFVuBZvo/+vICyNVh8yU00T5Oy8h4sqKCKSkpRpsgkFGg6fa+lxv/YUkVsyx3TevfaQOen9/tByOutricrFc1JhQm390ClmGvd0BqPXRulRMVcBdKCtS2RXX44s2r4IWp7YGMAme8NL5P2NF8Aop0TmnO6EuNAB32KKDxhSUNGjSo7ixvrdO5AaA1olye3yCAlf9TqOyHGDUPv/61Fobf/Qhs2h58QwK2/DwozkHjR8ImViWy9FGf26fPts/0pyV/KsW4YluDxtodSHCFkufPnLke05th1CzIbfzLZmiuVxmeeqgN/PXpIPuM94E960H7VjXs6/SH9U+AWZPa4tDBIBhzY8NA2zCnLAxM54T7NX3j4ZelA+xegZuGJAINk9DwCM2ToOWFKz4eZPeeUO9fbmZkBMzHYRbNjQBBqGYtKpogVw9WOpFVAOfnCPgxAhK6ee8UAJbrUYYjx0/CGBwSeOXtDyG/oFCPLHxKpkTr+8+fB2seTa+4ol2VpSst8fv059/h5qnPwq6M/bJ4FBMJwi587tdkZWWRolewo+YjrkhkSKBGyO72d9Pzd5ZFdJQJaMb7q090hA/npuIYfy/7+v3rB5pB71UEznTyTrr6XKlHT/MCnn44BT55vad9qITmSbBsMKSXESAIgqbvnyvUuAHgCh1+L+ARSEtLKwjPyRmKlf5fehTWarXBO59+DdejNyBgJwgiePZe/4XzQEaAWhwzDh2BMTOeh+eXfAL5+QVqxbjjSzMUFl6Fz/2EC8J2Lu4puiWgdcnS+CvKjBN7HAGdjICkJnFxVT1RGG4AeAJlnodPI7Dt2LGcEKNxECq5DqMugVYJjJn0JDz+/Btw4tRpXfLwhlCpqAiKS3v9aAio0YHG91/76EsYOflp2Lo3XY0IuTz7bQC99xw4cNgNgyZjsLzxd4Oywtu+Sk5GwLynO2s6DJNvMlXzRHm5AeAJlHkePo/Anj17LhTbbP1R0c0YdQk0lv3tb3/CkNsfgEUffwn+PCwg2WxgxXF++8d8bFZVeOEYPHzzx2q49oHp8N43P0NhkfoJgzIUOIRu/94ZGRnZMmiv2A9ABk85Et74l4Mj4C9SO9SxLxHUak5AqNXK/A7KAZ0bAHJQ4jRBgQCOCZ8NMZn6YmHXY9QtUI/39SUfw8DR98NH3/yEDZ9mnyjQTefLgiVs+PNysdd/DmyF6uY10Dg/beZz46SZ8NSC9+Dk2XOXxetxgo6JLOz590K3vyz3AtJvY9WjZ6dYGKVyzJ8178Dk9/1SkRFAmwZpoOnJXfv3H9FAjlsR3ABwCxEnCCYEdu/efSoiJ6cXSNLPepf75KkzMHveOzB49Hj48KsfdVnqplUZ7D3+3FwoOnseaFc/wFZSqexiqxV+WrUObp78FEx9ZSFkHvRIHbc9pKioC/b898rVF4ftv5RL64xu7ebjcO68OgPJmUye7tsIkGG7bOVBdiUF4Wt2IfIkcANAHk6cKogQoDkB0VWrXo1FprXgeNA3HD1xCua8uQT6jrwHXnvnI6BrfXOUL50aflrSV3wOG/4CmpinvOU/fzHH/tW+oROmweOvvw37sg/JV4CNciUO63SXMeZfLhdTYeFSTMjBqDrk5RfDx99lqOb3R8a8vGI4i0bPgSM5cOZcIQ5xqRsaclR2f0j7fe0RyDqogedeEN70VHm5AeAppHk+foXApk2bitIyMkah0i9j9Eg4f+EiLP7kKxhw671w77RZsHz1eqBes0cyL5eJZHfv0/g+NfyS3dWvrOGn+Q6bdu61N/j9734UXvngczh60nOTHwWAr7Dx70fDOuWKJuNi58GDpOh7Mkhdkrz/dRoUFePgg0sq/7l54lQe/LrqMCz6ZA9Mf3kTjJ60EnqP/BFaD/oaknv+D1oM/AraDf0Get38I7S/5hto3v9LaNj7c2h79TfQ48YfYMQDf8C0FzfB4k/3wO9rDtsbS4atInwOuCWfy3YyOdddEP7EoSrd5iFVzJgbABUR4dccgf8QkNAImCgJwjhMou4vHvQPNDlu1YYt8NDMFyD1hjHw5NwF8PfmbWC16tuYSMVWoH37i3BMnib40Qx/UOjr35GWCXPf/x8Mum8KjJ35ot3lX1Dk0TkOZKk8ty8j4/osJ+v85TxBRPpVpMMD/qoMx0/mwQ+/H1DJ7X22g9iTf/+rNHj4mXWQOuJH6Dz8e7h3+mp4/q1t8Ml3GbB64zHIPpwDF3OdP19yi5+7UAiHj+fCxm0n4bMfMmDOgm0wbtpq6HPrT9Dh2m9g/JNr4cOv0yEj+7yTQvt+8r97z8D6f06wK2qzvcwuRL4EbgDIx4pTBikC6enpC8FmS8XiH8Lo0UBegS9/Wg5jpzwNPW64U3r02bnwzS8rgOYPMCuCTSWt27ev4T9/HoovlLj5FXTLLuTkwu/rNsMzC9+HAdjTHzXtOfjg+1/h2KkzzOqpEHABe/7Xp2VkPIa8Voyqg33OgCB8r1pACeOS/2nQKyyR5YnD3sxzMO/9XTD0rl+hJ/bkn3ptC3y3PBsOHWUaEXGqOg0V/PznQXjy1c3Q77Zl0PX67+HZef/ArrSzTnl88YZGz3lfWmYm8zunBB9uAChBi9MGLQJpWVl/o0u5LTYwq7wFAhoDws9/roHpL86DXiPGwqDb7pemv/AGkIGwC3veBYXOe2KXdbZJ6N4vsC/hKzp3FkrX8JMhcJnGyQl5Jmiznp9XrYc573wMNz36FPQa8xBMenkBfLX8Lzh+xquV9l4QxY7Y8//CifrKkwVhrnKm8hw7sSFbt1WDnmF5sZpe5RdY4fOfMmHY3b/BoDt+gVfe+RdIb00zkSnsGHpN3v18H1yNBsjgO3+xDxecwKEHmexeISOdf/xDA0+PJDF7nZQCwA0ApYhx+qBFICsr62hUlSq9QBBeQhBsGL0aDhw5Jnzz65/2IYIb730UOlw9Urr6zgetDz31ov2DRB9/8xOsXLsRtm3fCdkZWXDu6HGgRt+KvXb7Er4KPf38/AL7OP3uzGxYs3WHvVF/4+Ov4LFXF8HNk5+GrqPuh+sfngHTXl8Mny37A/btP4iOEXQjeBUFe+b/w4fRHsdOd9qvNPpBeStAkrawinvnM9/0Ahw9kQfPvbnV3uue+vxG2L7nDGtRNeXfk3HOPlxAww805+AgDklomoFGwpZ+mQbFVub/gzMRubnvaqSSbDHcAJANFSfkCADYJwempz8iCcJViIecTWWQzDMBx1uFrAOHDMtXrbN/kvi5ee/A/TPmwC0TZ8DguydBt1H3QcqNY6H9iLuh5x0PQs87H4KedzwEHUfeY0/vctt4+9j9yCnPwPhZr9rd+ku+/gmWrdkAe7IOQKG+G/WoAekcNtCj0OV/A7rsz6kRIIOH2Quw4u8jkHnggoysPENy6myB3c1+1S0/ARknNEbvmZzV5AL43tmA5hxcdetPMOm59ZC+/7w6QTpw0cqHT7/P0ELyW7T6SAtBSmRwA0AJWpyWI1CCQHp6+h/Y62yBlx9g9KtArvzz6AWg5Xnnc3KgqJhpuNxbZbfjj2Om7+upgCk8/FP0+LjbOtilCmiYwXtf7nNJ44mbtDRx7tv/2mfpk5u9oNC/nrsVe9lf/7IfBuIwxYxXNoMvGC5fLEPP2gXm/R6KxJCQNzzxDlTMgxsAFRHh1xwBmQhQrxN7n7diL5Q+H3tUJhsnY0PgIrI/hLhfhfjr7oHZuXNnIT5f5sr521+z0dBCkxGV90ZYuf4oDLj9F5j/wS7IzSv2hgqq8nTERAbVR9+kQ79RP8OXy/bj43FE5Zm0L37K0iKjz/bu3evxCcakODcACAUeOQIMCGAv9HMbQCMcBXwVxfh37YoF8OHwPxDFxtj4v4I6IuT464FgKix8C7PJxag6XMgpgg1bT6jmV8t48kw+PPTMOrhz8l+6zeRXqxsr3ykcypg8ez3c/OAfXhlioTkUO/adYS0G4HAi8zCTWiW4AaAWOc7HESiDAPZGz6VnZDxolaQUb64UKKNSwJyiYbVHkKS+2PDfkJaWdtDTBbNvDCQIH7Lmm57t2XkAa7cch6vH/ArfL9fdUcIKjRN+ecm0v8C1437zeDkzDlzQwvuwBocTN8krqfZU8HIcOQAAEABJREFU3ADQHlMuMYgRiI+P3ymJ4nSEQNMZ6SgvWMMJrKSm5RQUrPYiAALW9K1Z88/J9YxziFzktJb/9kkr4cTpfFa1/YI/B4c1yNMx/aVNHtuCWKOhlAYNGzas7C2Q8X/LW1nzfDkCgYFAk7i4qsmJiSMsiYkfHczOPgY22x9YsiYYeWBHoAZ6AD6PCAs7lWSx/GyxWMYnJSVZ2MXKl4DPdhBSt8XIFGrVCGfil8NMQw13TlllX8tPk+bk8PgqjRq9Pvk+A66/bzl4YslgbW2eZ3VbcfEDasqqBQ83ALRAkcsIOgSS4+MbJ1ssk5ISE/8sNJmOYSP1Ebr+RyAQVTHyoD0CYdgL74dDAa+hgZWGxtZuxP4lNAi6YFYIPf7qEwR8tk9qIbp5wypaiHEqgzakGTHhD1i1Ibjno+5OPwc3jP8D6OgULA1uJCdEgcnI3oRKkjQxISEhRgOVFItg115xlpyBI+CfCCQnJydio/MExj2SwbAT/3Gfx5J0xxiCkQcPIoAtfkPM7mE0CFbh88iymM3Po2egDaZpGpLM5iEoMAUjU2jdpBokxUcxyXDFnLb/PNxw3++wJ+OcKzI/usemKu0eOPLBP3SdeBlqMsDQPvFsil7ijjEIwsRLp5795QaAZ/HmufkZAvXr16+CPf1x2MiskqzWNFR/JsYGGHnwHQTqC4IwCT0Dm0o8A082SEhopIF6AgjCDA3kwLibtVDHsSY79p2Fm7DHSx/ccUwRnKnnLxbB7Y/+Bb+tPqwbAGNubAAGg8AsH9/f8d6YC8ANAOZHxwUEGgJNmjQxoWv5GmxMvjCFhBzBnv4CLKPermbMggdWBLAqbogyZthEcRcabRvQM3AXPs9KmKY44Nj/QGRi9ip0al0TeneJRVHaB+r53z7pT5/YFMdkCoWo6GiIrVsXYqpUgbCwMFD7pxUfbXY04cm1ug2LJNaPghsHJ2qhbrS1qOhOLQQpkSEqIea0HIFARiAxMTEZG/1XCvPyDqNr+StsTIZheUMx8uCfCLTFntXCwvz8w/hcF6gYIriXtdjUO5x2fytWMQ75DxzJgdseWQn0RT2HBDolms2JcM1118HERyfDa/PehK++/xFWr98IK9f+Db/8vgK+/PZ7+Pm332HF6rWwduNm+P7nZTB/4WKYMm063HTzSGjcpAn2mg06aXel2KJiG9w3Yy1s2336ypsapEwY3RQqRxo1kAQTUIjngMHMuAGAIPAQ1AgISWZzX2wgvsd/ht3Y6D+Abt9qQY1I4BW+Mj7XcTREQF4BfN5j3HkFGsbHmyWA/qxQ3DQkERomRrOKuYKfNsEZNfFPOH4y74p7WicYjUbokdoTnnp2Fvyw7Bf4+PMvYMpjj8P1N94E7Tt2hDp16jht0NEAg+o1akKblBS4ZtgweHDiI7Dk/Q/hJzQQ5rz0MgwaPATCwyuujgDN/2jJ3l1TV+myYVC1mFC455bGWuhsxneTOh1ayJIlA+s8WXSciCMQUAi0qFUrEl28dydZLDuwwV+GDQQt9eL/DwH1lB0Wpi0+70XoFTiAxsCshISE2o6orAbDWExneh/Cw0Lg/lHarwal5X0PoFtb76Vu1NOnXv73y34Faqz79h8A1arXQFjYQ1RUlN2omD7zKfjp1+Uw46mnoWXLVuyCXUg4fbbAPidAD4/JbdclQ1ydSBe5y7wlCPfLpNSEjOkF10QDLoQj4EEEGiUkJCRbLC/kRkYelADeBEnSxHT3YBF4VtogEINipoaIYhYagYvKThrEoQIa9rkD7zOFm6+2QPUq2o+Dz5r/D6zTcVvhRo0bw+wXXoQPP/ufvZcfHR3NhIM75jD0AAwYNBjeemcJvLlwEZBXAXT6O3Q0BybNWof/9tpmYDKK8ODtTbUQ2s1isSRpIUiODG4AyEGJ0/g9AjS+jxX90mJRTJMk6REsUAxGHjgCodgajLGJ4g50v36NlW8XHCoYjrDUxKg6UO9/zE3aLxahr+Et/TJNtV6uGGugq/7Z2c/Dux98BKm9eoMoer55aJ3S1j6vgAyBxER99nv6c/1RWPTJbldQqLo3uFd9qFsrQhVvGSYBvZG3l7nW9dTzT1jX4nDhHIHyCGBvzpJsNr+LL/pOrOhvxbsenWSD+flEuHHEzfbJWZ999Q18/Nnn8PaSD+C99z+Bd5d+BPMXLL4cx4671yf09YISIg4NDBUkaRXmvQgjU6Cxf617/9R7ffKVzUx6OWI2GAxw8y23wqdffgW9+/RxROLBtEtZkSGw9ONPYPwDDwJ5CC6lavf78tv/wqZ/T2onECUZDALccQMtQsELliBJo5DdI/WUiBnxwBEIOARoEheO8b6DvbndkiDchgUMweh3ITQyGoxh7GOLg4ZcbV+eVb9+fTBbLFC7Tm2oVKkSVK4cBbVq1b4cu/foCSaTiQknwRACxmimDjRT/howh7PIMGBDcNswbb24Eo5XPfbCRqA971l0q8hLE/TmLXgLJjz0MERERFS87dXrkJAQGDnqNnj3/Q9Aa684zaN46Ol1muN5/YAEiIkyseIWl5SQcBWrEDn8ohwiTsMR8BcEaIwfXf2LrAbDHtSZXGl+0fALogGqxjeGBt2uhY4jJ8PAKe/AyPmrYdTCDWAMr4RFUR/qxMZCg4bleyZh4Y7HpmlGdouWrdVnRpw2G7Se8i10fH4TNH/gQ0i8fgbU7nITVDa3BtEYShQBHXt1qgN1a7MbbWVB+vjbdFiz+XjZJObzjp07wwfYy27VJoVZllYCHMlJMCfC20vfhyFDr3F0W3XakeO58OqSHar5HTGGh4fALddoYPwZDDQM5SgLTdO4AaApnFyYtxCgD/Jgw/86jvHvAUkag3oYMfpsiKhSC8zt+kKHmx+FIdM/hNvf3gLDZ38Hqfe+AC0G3wVxLbtDJNIcT98KuWeOMZUjtWevK/jDI8JBEHC08Yo7AB06dHKQKj9JkmxwettvEBIZA9ENOkJs6ihIuvlZaPnI59Dppa3QatKXkHjDDKjRbiiE14iXL9hPKEddp+3Y/7GTeTDnrW2aln7otcPgpVdeA9qwR1PBOgkLCwuDaU/MgPvGP+D0vVWT9dIv92n+zYBbrk2CEPQCqdHnMo8kDU1NTdW988INgMuI8xN/RID+SZLM5vsKTaZ92PDfj2Vg9r+hDM1DeFQ1sHQaBN3uegZuemU53IK9+z4Pz4eWQ8ZCnSYdICQswmGemet/cZiuJDG1Z88ryGmClynUsY3Urn175glgp7Y61lswGKFSQkuI7TEKGo5+GVKe/B06zFprP6/V6XoIrRZ3ha7+lEA7w3Vspc1SudJyz33nX6B17KXXrMfRd9wJU6Y97nTtPqt89fzuOW8dPdpuCBgMBvfEMiisVgloXgUNscggl0VSLSYUenSsI4vWBVGNAwcOdHdxX5NboiZSuBCOgBcQsFgsvQ5mZ2/GLsEbmL1PfYWPXPp1m3aCTrc+BsOf/xFuWfA39J7wKjTudRNE1ZLf683a4LghxfLKClWrVYNmLVo6pA0LD3eYTvMCmjRp5vCe3MSze9ZCcd55WeQ0X4C8Acm3zIZ2T/0J7WausHsMqra4CgwmxzrKEuwFoqFX1dc0193pZ+GrZfs1k3nX3ffA3ffdj/8yjr0/mmWko6DBVw+FJ595ltlILVWRJgN+/at2GJPca/vK/x8neodRkm5wmK5hIjcANASTi/IMAtjw10N3/1JBkpZjjs0x+kSgXnz9Nr2A3PijFq6HQY+/D80H3gFV6zVQVeGeyt4N54+xVUzde/Rw2tOjYQBnwHXo1NnZLVnpkrUIzvz7hyzaikSh1evZ5ww0GfcWdHh+EzQbvxTqpN4GoTG1K5L61DWNqFytsQEwe8E2sNkkTco5bPj1cOddtL+RJuI0F6JEYJ++/eCRyVOUsLikfeO9HWBFb4BLIgU3e3WOBdbJgGii0UfIdiQlJk5u0KBBdQXZyyblBoBsqDihtxGw795nsTyDDf9edPff6m19KH9TeCX7xL3+kxfD6MWbof+khfZrmr1P91kia++f8u7uYPyf0ikaDAYwmox0ekVs376jKqOlrKCCnb9ArQgJwhhGMmnSYEyjLmC5/glo98wqaDHxM/ucAlOUtm72snqrPW/bogZoshtciQLr/zkBqzceK7liO/S66ipNG0w2bbThJoNm1Gia58suL/twDvzwxwF2QSUSjCEiDOxZr+SK6dAEuWfbiosPWBITP0pMTOyN15q125oJQqV44AjohkCy2dwnNzJyhyRJ0zCTMIxeCwZjqH08vw+O4d/61jp7j79+q1QQDQwtnYPSZG741UGq/CRa5teuXXuXDM68ANWrV2deenVw20qIFvMhMUoCS7QEVUMBDIJLdVzfxC52VGKKfVVBu2dXQ7MJ76On4EYICY9yzeehu3vQXf+/HzPRNtUmw3c+36uJoPrx8fD4jJkgir5c3asrKg1n0JwVddzluRZ8uEszbwtJHtJb0+GgMPzXGYFP8Dc0BNLRK/CExWJhtjBQHqnKI0fANxFISkqKwsb/LUkQlqGG8Ri9FqrUTYIOIybByHmr7OP5NIufjAE9FLpw/ACc3r+LSXSXbt3BaDS6lBHuZB4AMXXoyLYaoDg/Fw5u+4tEQagBoHakBMkxEtRBrwBd22+o/KE5FjENO0PSzbOg/ex10OjO14E8Bei2UCmRne38xSKgtfo3P/gH80dnMg9cgD/WHmFWymQKhWeemwMRPrbGn7lgJQLIqHnq2ec0+UbBvqzz8NvqwyWS2Q+tm1SDaPY9Aa5QBA2BBEyciZ7QLDQGfkVDYFRcXJyqyTLcAEAkefBNBJLM5r5okm/Hxp8GLvG997yepojK0KTPSLh21tdw/Ys/Q8urx0FY5Sq6K5K5nuwdtmx6pPZ0KyDEGAK04YojQtblgCQzq8IqBhGfIm2PTx6BePQM2OtHTCNatVEMMUH1NgPtcwVSZiyHev3uAaMXNyLauO0kDB37Gyz+dI/qceUln+/DV5997P++CROg4h4QanHWk49FdpWqVWHajBksIi7zvvflvsvnrCcGdHd1blOLVYwrfvp3ugoNgffCTKZsi9n8VMOGDSu7Yqh4jxsAFRHh115HAMe5opMslkXYm/sZldHUj4byZIXo2gnQefQT9t5+1ztmQg0z26x4WZmWIcrayOb+p55fpy5dykh0fupsGKBuXD2Iq8fmZdy/5Q+wWYsdZh6JIyZxlSRIipKgCg4PoIffIZ2SxPAa8RB/9SPQ/umV9qWFleNbKGHXjDYvvxjmLNgGtzy0Ag4cyVEkNy+vGLSYlU4N//AbblSUt78Sd+7cBWieA6v+G7aeANpymVVOKX+3droaAKXZ0LG6IAjTi4uKtjUwm1tSgpzIDQA5KHEajyGA7qz++FJuh0ub+TD2DZWpjf9AULd5V+j/6CK44aVfoFm/UaDFNrzKtADIPXsCju3bopStHH2HTp3AlXu/LLEzA4BoOnZkW6LJ1CQAABAASURBVA1QcPEsHNm5jkQ5jSYcHqhTMjxQPQzY5gmU5CIYjPaNhlo++hW0mPg/qJ4yCGjYoOS2xw4bt5+EwXf+Ap98nyE7z+VrDgMZAbIZHBCSa/zRqY85XQHigMWLSdpk/eDESbLfeWc50n4A3/yW7ey24vRu7Wor5mFhEAASbILwB3aiGsiRg3WtHDJOwxHQF4GEhIQwS2LiAnRn/YQ5sXU7UYCSIIiifVLfsNnfwaDH3oX6rXtiY+G9f439m34DyWZTUoQraFMdbP5zBVFJAq0EoBUBJZflDu0ZdwUkYZkyvRkhWHvVjJDs8wRqhUtA/k3iZ41RiW2g0R2vQcrMP6BOj1uBVhawylTCT5v4TH9pE9w1dRWcOlvglvV7DWajX9W3HzRr7h3vh9sC6kRQs2ZNuOW20czS6YuLzEJKBNSuEQ4NE6NLrjx2qIK114eYGx7w10VwS+CCl9/iCGiCAFmrIaL4N9b/4zQRKFOIaAiBBt2HwQ0v/Gyf1FetfiOZnPqSsc7+p8a8a/ceipR05gVITLRAjRpsS+6yNvyqyKChhr9aOEBytATV0CNA14oK44Q4rGpdsNzwpH2jobpXjQFDaIQTSn2SV/x9BIaM+RXWbjnuNINz5wth5bqjTu/LuSEIAoy+8045pD5Bo6USN9w0AiIjI5lE0gTMbbtOM8koyzxIm+WAZUXKOW+L3tSh7gi5AeAOIX5fVwTwJb0RX8KNmInscSukZQqCaIBGvW6EG1/+FVLveR6iYxOZ5GnJXJBzHg7vWMsksnWbNhAdrazX4WxXQEEQgNULQN8yOJG+VXGZDPhi0D4CSTES0MRBxQKcMBija4L52qnQ7um/oF7/e0H0oCFw4lQejH5kJdD2vo42nlmx7ggUFducaC4vmSZ/kuEmjzqwqCpXrgxazHug56AVMtf0jYdQGufSSqBMOehNHemOFP/F3JHw+xwB7REgl39SYuJ8fEk/QemKZq4ivaogCILd1U+z+bvf9SxUrunRkQZZOmdv/h1sxUWyaJ0R9XCx+Y8zHlOoCUSD4+pAi9UALF6NEHQN0dLBpGgJ7KsGnBVCYTp9rCh+yERo++Qf9m8TCAajQgnqyGlnv/nv77JPEDx+Mq+ckL+3nCh3reZixK23qmHzEo/22d444mbmuQ+uvDRKNa5TMwIevtOzk4hLdOxQcnR6cPwf75Sc3+AIsCOAvf6kEEFYg5LuweiRUK9ld/tSvt4TXoWYOmaP5KkmE7nj5c5kC4IAagwAZHM6gapxkyYQFaXMo1BRvyzGbxqQPOpExVWSIL6yZN9XgNK0iKao6vavE7ad8RvUbH8tCIJnqkWaIHjNuN+AZp6XluPvf5wPD5TSuDrSqo0WTr794IovkO7R9y86dpa3AsZZubfuPM08EbOs7NHDk+HGwR73NNYqq4Ojc8+86Y5y5mlBiUCS2Xw99vo3gSC09gQAVeKSYdBj78GAKe9A9YSm4Mt/xQV5lzfOUatn46ZNgSZDqeEPC8cBdweMIg6ZtGvvtjPhgPO/pHNHs+D0gT3/JTCcRRoBaB8B2ljIoGENRl8ibHDbi9BqyrcQncxWXrnFO3E6H26d+Ccs+d9e+/KzgwqXDFbMZ+DgIfivJVRM9tlrvRQbMHAQk2gahqGPBDEJKcMsigI8MzEFHru3JVSmF7jMPR1PQ9zJ1vDfx11W/H6QIyAkWSzPYu30GeIQhVHXQHvxd75tOgyf8z3Ubc7WG9BV0TLCD25fBbR7XpkkxaepKtz/pZmEhYUCVVSl12WPHRl3BSRZWngBSE5ppK2FaVgg2gSgZZMXGdcYmj/4kX3lQGjVWND7j+YCzJq/FW5/9C/mrPr1H8AsIxAEdO/Rw6lHS2751m1lH46pmNft1zeA3z8aCA/c3hTq1mabrFhRtpprbgCoQY3zKEKAtqnExv8TkKTHFDGqIBZEERr3HgE3zv0NmvW/DQTsvaoQ4xWWirvmqVGCxQAAQQBnXoDmLVphhco2a55lHoAzLAzY8tfFYYH6URIYNa7NaO+AlCd+hfqDHgDR6Ng74kwvNek0+1wNXylPbN26UDcurvTSD476qWgKDYXWrdswZbAn4xwTvzNm+krg/aOawO8fDoD3XuoB9M0Ab0wSJP00/pchkTxyBP5DoFGjRtVCTaZl2Pjf8F+qPmdV6zWEoU9+Ct3GPA2e2K4XNPyj3fJo1zwWkRZLEtCHX1hkhDn5NoDRaISUlLYsouFU1k6gbxwwCXHCTLsKJsVIQBsJOSFRlUwNf/2BE6DN9J8hpnE3VTI8xcQ6TOMpPT2VT0q7dkxZsRpk7jIXcVigc5ua8PLjHWDtl0PgaRwiSGlW3R2bpve5AaApnFxYWQSSkpKaFhUWbsROmq41Z4gpDNrfNBGGPfcN1Ez2yNSCssXU5Jx2y6Nd81iEdU9NZWG384bZ5wHgE7Nflf9h/TgQScvUYDIgyXEUSeuaEZJ9fkCowRGF+rSwavWg2X1LgOYIGCOrqBekI2eblBQdpWsvWm+JbRnnrdAWzjQXQG89ST7NC7hpcCJ88npP+G5xHxg1LAmitVzyQpk4iNwAcAAKT2JHIMls/5DPaqyUE9ilOZdQt2knGP78D9Bq6D1AG/s4p/TtO6yz/6l0qb1604EpCgINA4Q6lNG6TVswmXDA3eFdeYlZG9i+cSAnF2r8E6MloM2E8P2TwyKPBrGhVQJtnvgFara/Rh6PB6kaNPKNjaw8WGSXWSVaLEzLAWluRvahiy7z0ONmI0sMTB/fGtZ8ThM69cjhP5ncAPgPC36mEQLJFss4HE/+AcWxrR1DAc5CSGi4/WM9A6cthaha8c7I/CKdtv1lbRjr1Kmj2VffLnkBroSOvi1AcwGuvCM/5di+zZB7VvvJVRU1oIafthNOiJLApLE3wFipKjS47SVoPPZNoPOKeXvj2mAwQFzdOG9krTJP/dlo2Ip1TkTmQc8bAKXImLSe1FIquMyRGwBlwOCn7AgkWSzPSpK0ACW5XYKCNKpCjaSWcN2sb+wf6xEEQZUMX2I6nr4VaLc8Fp1o7b8gaINFWHg42m+OZbGuBiBjh751wFJWJbzh+BYmohEQ7dipoUTUFbTVWvaF1tN+gqotrrrinqcT6sTGgtFk8nS2Pp9f/Xg2B+TZ8wU+X0YWBbkBwIIe5y2LAC3zex10nOlPM/pThk+Aa2Z+Br60fW9ZENScZ67/RQ1bOR4lH/8px+jgwmAQnTYmNNFMFNm61JkeGAaAMn8i2jJ1IyWIxUjnZW4xn5qiqkOTcW9B8i2zwRAaySxPrQBaAaCW1xt8nsozFg0jlrxycotZ2H2elxsAPv+I/EJBQ1Ji4mJs/O/XS9tK1erAkCc+hJTrJgAZAnrl4w252Zt+Y8q2StWq0LxlKyYZFZnDIxwve6tcOQoaN25SkVzR9eF/10BBjj5LrFwpEoNeAHOUBDRHwBWdmnu1Ol0Pbab9CJUTtH0OcnWJZPwAjtx8/I2OFZecvGJ/K7IifbkBoAguTlwRgSZNmpiw8f8E0+/AqEuIT+kN183+Dmo3ZFuGpotyjEJPZe+Gs0cymaTQ7H+Dga1XXlGB8IjwikmXrzt26nz5XM0JLXk8sGWFGlZmHmr8aYIgGQPMwioIoJ0Emz/0MdRJva3CHf0vIyK8531QXjrPcbAaABdz2L7L4bmSqsuJGwDqcONciAC61yIK8/K+wdPhGDUPYogROt4yFfpOXAChlWI0l+8LAvdvZJ8V3yO1p+ZFIYPCaDI6lNuufUencwQcMjhI9PQwQFkVBLyg4YA6OCRA53ipWRBDTGC5/gloNOYNCAmvrJlcd4JogqY7mmC8H8HoGeEegGB8a3iZ3SJAjX9EaOgP2BL0d0usgiCiSk10+X8ELQbdiVloXU2rUEgnFtaGkHo47dq110U7Z16AGjVqAG06xJLpgW0robgwn0UEM28VHBKIxyEB2k2QWVgFAdVbD7B/UyAytkGFO/pc2mxsnxDWRyvHUj2ZyoqLKARu3UPPgXsACAUeFSFAbv/wsLDPsGVOVcQok7h6QlO45qnPoZafbuojs5hw8cRB++54cukd0XXp1t3phD1H9ErSwiMczwMgGe07dKKD6kjfPKBvH6gWoBFjRAgADQmE4VEjkZfFhFWvDy0e+QKqtdbFRr6cD53k5eXRgccKCOTk5FRIUXZZibaYVMbiV9TcAPCrx+V9ZVNSUoyFBQX/EwDYPrflpChJXYfC1TM/hUrVY51QBE5y+rqfmAvDtPe/m9xDcAgmJMRxy9iJ8XOrlLUW3z4gOayRllsnVJagsg6r6AyhEdD4zjcg4ZpH0V7Wr7rNy81lhcFD/J7NJpfRAIgMdzwM5tlS6Jebfm+kfjpzyd5DwHDuzJkPQZKu1loFWlrWadQ06HXfS0Bb+2ot3xfl7d/4G5NaJlModOrShUmGO2ZnXoDY2LoQV6+eO3aX9/dv/h1oQqBLIg/dFNGijaskAQ0LaJ4lupHj+oyDRmPfBAMaBJrLR4H79u2Fixe9t2kNquCT4cKFC0x6RZCLiEmCbzNzA8C3n48vaSckJSa+hQpdj1HTEBIWAX0engfNB9yuqVxfFpZ37iQc27eFScUOnTqB3pO/aFMgZ0p2YBwGoG8f0DcQnMn3dDraAEATA2tHSgB0Adr+VWtxFbSY+D8IjamtrWCUdujgQZj08ENQWFCAV74bPK3ZgQPZTFlWiuAeACYAOXNgIGBJTHwTS3InRk1DeHR1GPz4BxCf4v3d1DQtmBthWRt/BdoVzw2Zy9s9UlNd3tfipinU5HQ/ddZ5AKRfJuJAR1+KVUMB4tAIwI675mpF1m0EzSd+BhF1kjWXvWXTRpg5YzqwTnzTXDEvCszOymLKvbouLiEmlTRlFjWVxoUFJALJFsvj2CEap3XhYupa4Jqn/gc1LS20Fu3z8jIZd8OjZXpdu/fwSDnDnewJYLEkAa0IYFFiP+IgSdjjZhGiAy99iK1+ZQloaEBr8WFV66In4DOIbtBRa9Gw/Ndf4eUXntdcrjYCPSslPy8Pjh8/zpRpYj3PLeWsqOi+rPMVkzS/5gaA5pAGlkCLxTIKK+intC4V7ec/9MlPoXJNtnFkrfXyhLyCnPNweMdapqxatW4NMTExTDLkMjsbBhAEAWhPALlyHNHlnDkGJ9L+cXTL62k0ATwejQADWr9aKxMSHgXN7n8XqqdoP5f2888+hSVvL9ZaZb+Tt3PnTsC6S7XeoSYDxNaKUM2vhvFibhF88n0GDL/vdxh4+zLUX40U+TzcAJCPVdBRYuPfU5CkRVhwTavAOo3bw6DH3oNA3dwH8XIZsmnyWzHbDmNafPrXpZJlbtIwgGhwXFWw7gpI2bB6Q0iGXpE+JkRfFAzR9D/gkraCwQgNR8+FWp1vuJSg4e/CN+fDt19/paFEdlGelrBx/TqmLM31KoGohwvIgVb/7j0D01/aBF2Gf28/bt15ygGV9kmO/6u1z4dL9DP9ptOYAAAQAElEQVQEsPFvho3/l6i2pouj6rfqAQOmvAOm8EooOjgD67i3IAjQXYfd/5w9DcwOwsLCHd5u3LgJREVFO7wnNzFz/TK5pF6ho+2DyQgw6lBbCqIBkm+eBXV7azu9hnq+c2Y9Cyt+X+4VzHwh043r1zOpYa4XxcTvjvnEqTxY+PFu6HPrT3DtuN/sPf9cD397QIdX2l2x+X1fRwAb/3rY+P+MemrqY07sONC+rW+wLPND/K4ItPvdwW1/XZGuJKFx06ZQq1YtJSzMtOFONgUSsQFry7gT4flj++H0gb3MOuopAL3BQHMC9PAEAFpY5mGPQb0B92taBKvVCk9Ofxz27N6tqVx1wjzLde7cOdi5cwdTpo0tbIats8w3/XsSxj62Crrd+AO8sHA7ZB286IxU93RuAOgOsX9lEBcXFy7YbN+g1nUxahaSOg2GXuPnAu3vr5lQPxREjT/tgseiup6b/zjTKywsFNspweHtjh07OUxXkpi14Rcl5F6h1dMTQAWKH/wQUKRzrWJ+fj5MeeRhOHvmjFYi/ULOb78sg+LiYiZdO7apycRfkTkPe/cTZv4NN43/A/5YewSsVu9PfuUGQMWnFOTXYSbTYqzpW2sJg7nDAOh5/0s4nmbQUqxfytJi97tUD7r/L4OMvVRnXoDmLVox70fgDwYAYUGeAJoYGKJTzUleAIqUl1bxyJEj8NjkSdjgWLUSqViOpxl++uEHpixp/X+LhlWZZJRlpo8K3frISvhpxYGyyXqfu/3Yhk6vsd7l4vL1QCApMfFhlHszRs1CQts+0Hv8XKCxTs2E+qkg2vVu/5Y/mLQ3mxOhfkICkwy1zM5WA5hMJmjTpq1asXa+k1k74cJxj1aO9nzV/JQaAQadak/yAsT10XbV7eZNm+DVl19SU1y/48nKzIB/t29j0rtti+pg0HD5x3Pzt4KnJvaVKfjBMucOT3V6hR3mxRN9GIHExMTeqN4cjJqF+JTecNUDr4FocLyfvGYZ+Ykg2vWOdr9jUTe1Vy8WdibesPAw5Hc8DNChU2e8xxYy/WAYoLSENBxQv5I++wRQHgnXPKr5xMDPPvkYfvj+OxLv4ejZ7JYuWcKcYafW2rn/d6Wdhc9+yGDWSYWAle54uAHgDqEguN8wPt4sStKnWFTNWurYxh0uNf4hgb2VJmImO2RqsOtdj57eMwAEQYDQsFCH5SUPgNHI9qyzNvzqULavJtISQfp+gF76ma+dqvkSwTnPPgu7du7US2Wvyz186BAs+5ntI1v4mkPvLtp9jOzLZVm6r+d3CLwovu0wvUyiWOacnwYhAjTpz2owfInj/tW0Kn7V+MbQ95EFYDA6biy0ysef5NC2v6wNXJ06daBho0ZeLbazeQD0TQKaC8Ci3LF9m4G+kcAiw9O8ldDmqUvbBuuRMbZESSOeAfqGgFbiCwsL7JMCT5/yzDpz0tuT8d133mae69C6STWIr6vdMuVlKw95EoLSvD5PS0tbW3rh7MgNAGfIBEl6qMn0Mha1FUZNAu3sN3Dy22CKqKyJvEARciJ9K+SeOcZUHFr7LwiOXfBMghUwh4WHo63oWAfW1QB2I2kT2xcSFRRFM9JotHNrRugzo5vmzjS841WISmqnmb7Hjh2Dx6dOZm4oNVNII0E7d+yA77+lBUxsAq/pG88moAz33sxzcOR4bpkUj5z+W2yz3SUnJ24AyEEpQGmSExOvw6r8bq2KFx5VDQY99i5EVNFu/Ewr3bwtJ1MD93Zqz57eLgYYDCIYTY73hmrXvgOIIttKDy1WSYAX/qqFAcSgIaBH1qIxDJrcvRAiYxtqJp4mBb7/3ruayXMuyDN36ANIL8yexfwhJJNRhIGp9TRT+q8NRzWTJUcQ1uc/hphMqVlZWWfl0HMDQA5KAUhjNpvjsc9C2/xqUjra3Kf/pIUQVUs761kTxXxESBbjBLcqVatCi1aars5UjYyzYQDaEbBxkyaq5RLjoR1roTD3Ap36XayDQwGRRn3Upm8HNLnvHTBGa2dcL35rAVCvWR+NPSuVvn+gxdyGXp1jIZq+BKWR+ivXs3n9ZKqBVTn8jo3/4H0ZGYN2794te3yHGwAyEQ4kstTU1BCDIHyIZaqCkTkIggDdx86CGkktmWUFooBT2bvh3NEspqJ1T03F3reBSYZWzDQM4ExWhw5smwLZiouAvpXgTL4vp2MFDDQp0KRTrRoaUxua3rMYDKZwTWAoLi6G6Y9Ngdxc/VzUmijqRsi+fftg3muvuaGSd3v08GR5hDKoaOOfjdtOyKBUSSIIh5FzDrrdktMyMnpj4/8DXisKOr2qinTgxB5G4OCBAzMxyy4YNQkpwydAUperNZEViEL2azH73xub/zh5GCEhBhwGcNzVbY8GgCAITjjlJWsxXCIvJ+2pDFh02jLYoFPNWqleU0i+9XkARoyh5O/QwYMw98UXSq7875CTkwNTJ02EggK3e964LVznNjUhpVl1t3RyCf7adAwKi2xyyeXSFSDh/yRBGJCWnl4PG/4paWlp6ZimKuj0mqrShTN5AIGkhIQeIElTtMrK0nkItL5W2z3MtdLNV+SwNmiRkZHQjnG/fa2xCI9w3AutUaMGWCxJTNkd2LYS6JsJTEK8yEwbBdHKAEBjQA81qrcZCPGDHtRM9HfffA2///abZvL+E6TvmdVqhSemPQbYodEko3tHsQ1fVVTim1/2V0xiud6Or9ODYkhIHDb6N6Snp9O3WpitC24AsDwSP+NtUatWJAjCO6i2Js+9hrkZpN49G0Xiq4lCebgSAdrd7lQW27rrzl26Yo/b8cS7K3P0TEqYfVMgx3mRF8DxHXmp9K2Eg9tXySP2USpaHlg9TD/l6vW/D8gQ0CqH2bOegePHj2slTnc59LXD5555Glb/tVKTvKjn36FlDU1kkZCz5wvt+/3TOUO8gLxvYivfHhv9Fujif3Xv3r0nMU2zoElDoJk2XJCuCORERMzC1jpRi0xCK8VAn4feAL7W3zWamYyT/0i6Nzf/ofwdRaPRCCEhIY5uAes8ABLqr6sBSPfSWDNMgsp62W04BJB8y2wIr83mbSnV9fy5czBz+jSg2fSlaaxHPfnfeO1VTZb8kY4IJTx8ZzM61Sz+8PsBKCrGpptN4lxs+O/NyMjYwCbGOTc3AJxjE1B3LBZLZ0EQNPHVC6IIPe97CSrViAsojPQoDOvsf6PJBJ27dtVDNWaZ4RGOu7hx9epB3bh6TPL3b/oN6NsJTEK8zYyOsdhICfSaFGgIjYQmY98EQ1glTUq6aeNG+ParrzSRpZcQcvvPmfUsfLj0Pc2yGNonHtq30q73T4p99et+OjBFNB8+ZxIgg5kbADJA8neS2NjYCEGS3sVyaPK8W19zH9Rv1QPF8eAKgdyzJ+DYvi2uSNzea9+hI0RERLil8wZBWLjjeQCkC6sXoCDnPBzZtZ5E+XU0CAB1K0mAB13KEV4rEZJvnqWZ7HmvvwqnTmoxc10zlS4LKiwogGlTHoWvvtCuXawcaYRHx7W4nIcWJ2n7z2vx4R/0+Gds10IfVzI0aRBcZcDveR+BiLCwp1ELTda3xLXoBinXjUdxPLhDYP/m5UC727mjc3XfFzb/caafKdTkdGlih46dnLHJTs/SYPMk2ZnpSEjfDNBrp0BSu3rKIIjtOZpOmeOFCxdg7ksvMsvRWsCB7GwYc/ttsOL33zUV/RC6/mtUdezJUpvR25/uVctalu/Lshd6nXMDQC9kfURuckJCB1RFkynD4VHVIPWe54GGAFAmD24QyFz/ixsK17cNBgN065HqmsjLd8OcTAa0WJKgenW2JVVZG34Bmuzl5SJqkn21UADsbGoiy5GQhGsmQ2ScNrPYf/vlF1iz6i9H2chO05Lw11+Wwehbboa9e/ZoKRZaNakGN19t0VTm8ZN58O1v7O5/EMXPNFXMiTBuADgBJkCSRUkUaYcM5ucsCIJ9s5+ImBrA/9wjQLvZHd7h9lscLgW1at0aYmJiXNJ4+2a4k+WAgiBA+/YdmdTLOXMMTqRvZZLhM8w4BkDzAWhIQA+dxBATNLp9Lhg02iTo+edmQV5enh6qypZ54sRxmPnEdJg+dQrQen/ZjDIIoyubYO7jHdCDhQ9GBr1ckiWf79Ni7f/2tLS0zXLzZKETWZg5r28jkJSYOA41bI+ROTTpeyvEp/RmlhMsAmg3O9rVjqW8PXr5Pt6m0FCsRB1XIx06dWYpvp2X1YtiF+IjP0aEibYL1ksdWhFgHvaYJuKPHj0Kixa8qVIWG1t+fj68t+QduP7aa+CnH75nE+aAG21TmDO5HcTViXRwV33ShZwi+OS7DPUCSjgFQVhccqr7AV9J3fPgGXgBgaSkJOqqP6NF1lXrNYCOIydrISpoZGQyjl9jJQA9fGj3P2cPTsAOVGiY48mATZo0g8qVo5yxykqnYQBZhH5CRNvMR5v0U7Z2t5uhWourNMng048/gv+zdx3wUVRb/8zuZjcVEkJIICE9kETpXYr0jgVR1KeP58OHqDQFBP2sFCkWpChIFdtTRBERG6AoitKkCEFMpUoLSSjpu/Pds5hn2ia7c+/szm5OfnN3Zu7c87/n/mcy99x25tjvvwvBsgcEW/lY8d82dDAsXbIYClXqgXjgzmbQp2sTe1RyKM27G9Lgan6JQzLVJC7Se3m9V028KlFkAKhCqwZALZY5TIsGLHBtOr0Bej3yMtB6f/tpRC926M3OfomqKZOSkyE0NLTqBQ3G+NhYDqjT6QC/EMijMn5D4dJJIZOqeNQQKhvmJ4NBxTdv/D/mgJc/978+mM1mmPX8s7B3zx7rsVASyoH99tsheGnuHLhtyCBrxZ+bk1PuqthDdPYzdUxLsaAMLTu3CJb/V8AcBUna6MjHfFjWXJuOS5qENcnAXxP/HhChXOtbx0JwdLIIqDqDgV7s0JsdT4G16PzHVnm8vU0gSVK1lzsLWQ3AN5myWsVcGInzABr7yqppgJV/7MjnBeAD4Id2xo0dA7cMGggvz5sLP/7wPVy+fJkLG+cW7Nz5Eyxe+Brr5r8V/vOvUfDxR+sAVyBwAdcinBgXCEtndwUD3oBa0jp6eeGaIyJa/8CeioWO5s2TngwAHva0KYsT/15nqnHfW+z6b3v7owyKNkcYEOHFTsvL/6pwwSp/W6sBWrRsDT41+AuoglVNhKcNA2ARA4wAag4FhLQdAsGt+mNWQkJ29kXAT+5OeWwSDOzTC+4beRfMfO5ZWLNqJWz5+is4dOggpB47BmdOnwZMi3s8P3BgP2z/dhtg1z6m//eo+6Ffzx7w+PhxVmc+uLxPiIK1gOB4/+p53QDX/deS1OHLqVmXYd1m/rF/lvGu9PT0nWzvtI27knCappSRXQzEx8bewxK2Y4Frk3R66PHQXNAZvLhw6poweq87/ivfWuXomFiIio5xK+p8bKwGMBqN0KZte66yXMxKgSvnT3JhaFE4jPUC6FV8A8fdPQMMfspXkdjiw1+2LQAAEABJREFUDN0Fp6WlwubPN8Gbb7wOzzz1JIx54F9w/713w/BbhsKQ/v2sezwfO/rfMH3qFGvXPqZPOXwYSktLbUGrEh8caII183tASLCPKvjzlh5kQyQyP7Ysv8oP4hiCio+fY4pQan4GkpOTWbsC0OkPN1jLIaOhUVxLbpy6BvBnyi4ouprLVWy3av3/VdLrPQDVDwMIcQq0d8tfOXnODiv/UB8BFYcNSoz1QiB2xNM2rtaN6CaNfOG913pCdIQYd8mVWdt18AJ8v/ts5WiHz9lTkBURFfWJw4KcAmQAcBKoJfHiwsJHmD7cTUf/4MbQbvg4oD/HGcjc843jQpUkerrB8r9KKlvnAOBcgMrxeN6uXQfAngA8VhoyOZ0qKc1Xbbn6JgD0FKhWPo063g6BzboogHd/kfioevDB4l4Qx/ZqlWb5+4JWSUjSnO3btzu3a4SRQgYAI8ETtvj4+HqsHEIWAXcZ9QwYvLXpf56VUbMbeq07vncrl35hYWHQPDGRC8NVwraGAXAOQIsWfL1J51J/hYI8oV9CdRVNFfLFPhN0EFQhUvAJTgiU9AbBqNqGw8/7frCoFzRmPQBqaXr5agns2MPf+gdZzggMDFyjlp414ZIBUBM7bnRNNpunMnVx7T/bKd8iW98MMR3ETR5Sron7SV5IOwDovY5H8x49e1lb0zwYrpL19jEx3avPvWMnvlaobLFA1j4+46p6zVwfa9IDBHurp4dvWDw06fWAQxm4c+Lb+0fBWy/3gProdEHFgvyelsvqbv4MJJ1u5r59+7gdCCjRhAwAJaxpTCYuLq6RJEkTedXSexmh8z/r9pghD4cZArqpe/fRvvc/Wxzp9HrwMpqqvYzzAHQ6vteNiNUV1SqngcgQHxkMknqKRA6ZCN4NwtXLQAPIJqMenh7XGuY/2RG80apSWSf0/Ccgi9Twpk3fFYCjCILvP1JRliQkmgFJlp9kmAEscG2tho2BwMbcUwi4dHBn4eOcE9UCg4KgRavW7kwB+NhwCoQeAROT+PxJnD7yMxTnX3Frfmwpr2OVPxoBtq7zxuM3AqJut9ebJ29uzpfHcf4Nb/aFUXckOC1zf38hK6TMbOzf7DSlK2VEBkAlQtztFFv/TOcxLHBtvoEh0PoWbhioq3/5OecBvdbxlL9JeDjrQmc1AQ+Ii2W9a1jzHxoaxqWdpbQEzqcd4MLQsnAgGwZQs+Ea0mYwBMS00TIFDutm0Esw+q7msGFpH0iIxmlQDkMoFkiKCxThVCgxITZ2sGIlOAXJAOAk0NXirPX/GNOBe8ZeuxETwGDihmGq1M3t0gn+2cC4RnrRglfdmkCDQc+GAaq2jL7dtgW2f7eNu2yXTghwt8qthToAEoNt5CuzX5U2SYKY4dhZWDO+u1zt0CoENq7oB9Mfbgk+ai6lsEFIPdYD0KlNIxtXHYrGd7hDAqISkwEgikkX4ERGRgaxbHHpH9sp34LC4yGx113KAUgSSooLhbDwwfvvwfvvviMEy1UglXsBfv11Hyx9YzHgKglencwlRbwQmpYPYLaTHwtqKVkvth0Etx6gFrxTcBs19LGO87+3oCc0i6nvlDxtZXLPsFhbl+yOZyZfn2YxMa3sFhCYkAwAgWQ6G8poMExgeXL3e3X6xzSQdHoGRZtSBnzqNVAqWkVu8WsL4KsvNleJd5cIoxH9UV3XNj09DV55aQ6g97jrMXy/3vWD+QDcQLqRD6sSVNQTewEkvS0rQ8WMOaHDQ32tk/y2vTsIcKa/hF0mnJi84n27hkNkEz9eGDBL0iRuEAUAZAAoIE0LIs2bNw9geqABwHbKt7DEDhDZppdyAJK0MtAgMhH0XibrMe8PtpRnz5wB+/ft5YVyibwkXa/Azp07Cy/Oeh4KCwuF6dEols+fgDBFVATC3mzsCVArC+/gphDWdaRa8MJxY5oGwNwnOsDW9wZbJ/k5Y4a/vYXQ6yX453D+iYcSwD3R0dF8k2TsVbpcOjIAypHhToelxcU4Y4+72dn+Tu7Vg+5Em2q6Gn38IbJtb2H4JcXFMG3KZMjISBeG6Syg/PwCuHLlMsya8Rzk5uYKyzaQDVUFRycLw9MyUENfGViloJqKEQMeBp3BWAVfKxE4vj5yaCz8d2Ev+HrtQLhjUDQYWGWrFf3K6zFicIyIjwyZ9JL0aHlcZxyTAeAMlsXnoQdJGscL2ySpEzRJ7swLQ/J/MYDGlKheAITEz67iV9MuXDiPp24RigqLIC8nB+bMngFnzpwWqnOne6YIxdMymI8eQM25AKbAMAjrdremKEDHPQN6RMDCZzvDzo+HwazJ7aB9y4bsVacpNaso48e6bO4aElsl3tEISZLGRkRE+Dgqx5OeDAAe9lwkGxcXN4y1DqJ5s283gnsEgVcFj5LHyZQdRj4utExnz561fjr12rVrQnHVACspKYGL5y/Aqy/Ph2PH+FdFlNex2c13QFS7vuWjPP4YVwSw/3PVyhnRfyzoKgxbqZZVtcD1A4zQs1Nj6yz+T5f3g90bboElL3SBwb2agsnILKBqpbQZef/weMDhAE7tGvqYTP/kxHBInAwAh+jSRmJJlsfzahJ+QxdonNyJF4bkKzGAX1FM7C12fDU1NRWmT3kcsIKtlJ1mTs1mM2Sfz4YVy5fB7t27hOqFz2n30UI+cilUL7XBvFkdqGYvgLF+qLC5AM1j6wOO1Tdt7AdYseM+Ma4+tEkOhq7tQ62V+oMjm1tb9e+/1hN2scp+72e3woq53azr+G9ICAQdekNSm1SV8HGCIvZe8MLLsoyTAdW0+yqoqKtwRieaZyA+Pv4GpiT3rL02w50+3MTUrhtb99EzhE+s3LN7N8x64XkhS+lE3wWLRWaV/0VY/9EH8NWXYlcvBEUkQP/H3wC9l1G02m6BF+wtq6pneL+HQNJ7WfPg+Rl7byJ88/ZA+Pb9wYAVO+43rewP617vDW+91MParT9tbEvAcX1cv98g0MSTnSZlHxiRIEKvxNjY2EEigOzBIAPAHpY0lEa2WLD1z2UhhsS2oLF/Fe8pLqnsO2kxhCaI9br29ZdfwBtLFqmouePQrMUCly5mw3ffboP33n3bcYAaJHyDQmHgtJVg8qtfQyrPvoQ9AGyIWbVC4lyAkHZDufHXbc7kxnB3gNastwN7PHjLwTp+HuTFsFeeDAB7mdJAuujo6EBW89/Hq0qLoaN5IUi+FgYMRm/oP2UZ1AuNrCWlY5ffeestWL/uQ8eEVEydeykX9uzaBYsXLRDaO4GrKgazyj+gYbiK2rsHdAPVewH+AyCxNwsHHb8cOA9Zp65yIHiGaFJCIHdBWJ8PempidgA3VK0AZADUSpF2Euj1+vuZNn4sKN78QyIgrpPTepgU6+kJgj71gmHQ9NXgLdBJEPKy4OWX4Pvt3+GhS8Pl3DxIOXwE5s97EUpLS4XpojN4QT/W7d8gKkkYpjsD4VdtjSq+qf2aNIegpO5cFMms1lq3OYMLw92Fl733O7y/UciyXd+YmJgIZ/Ch4mPlDPXrVh6SLI/iLXHLwf8C7KLmxSF5+xioHxYNA6cuB4NJ3OoenHD37FNPwaFDB+1TQoVU165eg4z0TJg163koKMgXloMkSXDzmDkQfuNNwjDdHQjb5kEq9wKE92W9AJxEffJVFpSUWjhR3FN8Gav8X1n5mzDldTqdlzCwGoDIAKiBHC1dio1lA/cA7Xh0MvoGQCL5/OehUJFso/jW0Gf8AtDpxPXqFRUVwtRJE+FEVpYinXiECgsK4PTJUzBrxrOQcymbB6qKbIeRkyGh+21V4ut6RJAJQM1J8oHNbwK/CL4el+zcItj205k6d6tEV/6MQIvJZDrL9qpvZACoTrGYDHSSxN36T+h2G2uJ0hf/xNwRx1BwDXvXB55zTKiW1Hl5eTBpwjjIzr5YS0pxl4uLiuHsmXMwd84sOHXqpDhghpTc/z5ofetYdkRbZQZ0EgAOBVSOF3N+HaVxt3uvH3D8fljHJgOqUPkj+7+mpKQ4ZUIFGQBIt8ZDz549DSDL3JP/kvreo/GSerZ6SX3vhTa3cX+8sQJJZ06fhskTJ7Bu+IIK8WqclJaWwIVzF2DRwlcg5chhoVlEt+8HN416Riimp4E1MLGBdhULFdLxVtCbuKYYwc595+D0uXwVtVQGffZCAcxbdghuG7MFkvt9DIl918NNIz6HKS/uhq2s18JsdpxblSp/LOAa/HFGIAPAGSxz5nHq+HGctRfKA4Mf/WnQtBkPBMkKYKD9XY9Bs+63C0D6G+L3o0fhqalThE7E+xv9+hHOO0BHP2tWr4CdP/14PVLQLy6X7C14iESQapqC8TYAYBCtVBkeVv5oBJSdK9mjT4gvt4vtGVKiR5lMTl4xzFi0H3rf+wWs/PAYHEnNtc5TwAr/QnYBbNxyHB5++ifod/+XsPbjVLhWYN9kVtUqf0k6avT2Xlmmv9p7MgDUZlgEvoDu/2Rq/Yu4E9wYkiRBj4fmQHiLbtxY5QF+/nknzHtxNusocrwlUx6numNc6599IRs2fLIePt+0sbokiuMCG8fAAJwkafRWjFGXBIOM4u9vef5EDAN88Z3rDQCcjLhq3THoe98X8M6GNGulX76clY9P/nkNZi05AN3v/NzaU3DmfH7lJP87V63yB8gFSRrBuv+LwUl/OiflQ9koZCA5OdmfiQ5hQfHmHRAEMR0HKpYnQbEM6PQG6PfYEgiOFvtlu00bP4WVby4TqixW/ujoZ/t338Lba8X2TPrUb3h9mSR7PoUq7cFggcxOwvkA4opYEckvIgkCYvgcWP12LAewQq2I7JwzmdlHX/9wCgaO+grmLj0El6+WOJTxlWsl1p4C7DGYNOMXOHT0UgV5FSv/PMliGZiWlpZSIUOVT8gAUJlgXvjigoLBDIP927NfhVtcl6FQV12pKqRMdTGjjz8MemIFBAh2dLNqxXLYuOETYfqjo599e/bC4oWvgsViEYZrMPnCQCx/o6bCMOsCkMQKGaDyArFGnfiHqJzdC1DKxvA3fHMcho7+BsY99zOcOMP38SwcItjMejLueGQb3D3+O0CjYum7R0HkUj92K8s2rPwHpGZl7SqLcNaeDABnMa00H53uDqWiZXIJ3W4pO6S9hhjwDQplLeBVYPLn9x5Wvljz57wIP3y/vXyUouPLuZfhj2PHYP682UI/RITLIXuPfxVCrCtbFalWp4XqC5wMWB2RIW2HgM5grO6S3XHOMgDy2Zg9jt33YWP8T8zZDX9k5tmto70J9x2+aDUqXl0lduLrX/m7rPLH/MkAQBY0GqKjo73ZoO5gHvXqhUZBSHxrHgiSVZGBwPB4GDB5Kei9TMJyMZvN8Oz/PQUpR44oxsy/mg/Hs7Jg5gvPwNWrYlckdXtwJkS366tYt7ou6M96APTYFaASEQa/QAhKvpkLPSUtV1XXwAdTsuGFhfuhx8jN1rH7msbsuQqirrBLK38sGhkAyIJGg8FgQJ/Q/jzqJXS/FQsnD6IAAA5tSURBVCRJxbcFj3Ika2UgLLED9J24UKijIHTW8/iEcXDi+HFrHo78FBYUwpnTZ2D2rBfg4kWxPgba3zkREskZlSO3o9q0Yj6mVy20NbJRR35nTF8IXg1w7mKBdab+sAe3wIhHv4V3P02DvCtOmy9n5UXgj8srfywLGQDIgkaDZDZzDcZJkgTo/EejxSO1yjGAjoI63/9kuRj+w9zcXJg8aQLk5uTYDYaOfs6fPQ/z586CrEyxvt2x4m87HD9mabc6lNAGA/VUXg0Q1KI3GHz5vsL4zQ+nbGhvXzSOw+9nLf2Fa44AjsWXtfZ/T8+1D0C7qTRR+SM9ZAAgCxoM6PxHlqRhPKoFRyUL/xodjz4kWzMDNw78F7QcKvZLoCdPnIApj02CwsLCmjNnV82lpXDxQjYsWbxA+HcGIlv3hO6s659lQ5sABtAfgBfn27smNXAOQHCLPjUlqfUaDgNcuFT7c1ceqICN6X+29QRMnPELdBr+GdzFWvpL3k6xzsa3WOTySd31WDOVPxKo4iOE8BSUMnDixInOTLYBC4q36I79FcuSoGsY6HTPExDfZajQzA//dgieeepJwLkBtoDNZou18n9n7WohEwjL54OT/fpOWgSSTty3EMrj18VjHNTDuQBqlj24NY5AKs8Bl+T9uPecXQClZhkWr02BzndsgsmzdwFOIsy77Lbd+7bKrKnKH5UkAwBZ0GCQZJm79o7pyPcPrEFaPF4lSaeDmx+eD02SOgkt647vt8PL8+ZWi2ld689a/uhHAJ39VJtIYWRAo6bW5X4Gk69CBBKzxQDfMIAt1L/jA5O6gZ7zvu3YXfs3bdD73r0TvoNFbx0BnNX/twYedaS5yh/ZJQMAWdBgkCSJywCo3yQWgsLjNVgyUqk2BvReRug3eSk0EOy6ecPH6+Gt1asqZI+ttEsXc2DHju9h9aoVFa7xnqADqkHTVwM6/OHFIvmqDPiqvBpA5+XNvRrgx71noaauezNr+T/yzE7AsX7w3D9NVv5INxkAyILGQmRkZBBTqT0LirfYjgMVy5Kg6xkw+dWDQU+uAf+GTYQq8+Ybr8PmTZ/9DzMvJxcOHzoICxe8zF7U5v/F8x4YjN4wYMqbENg4hheK5G0wYB0GULhc3wZklejgVlztEMjJK4bDf+RUwS2L2Lj1hPUDQmXnHrjXbOWPXJMBgCxoLBj1epx9wzVgGtW2l8ZKReo4yoBfUKi1+9zoG+CoqM302N0/Z9ZM2P3LL3A57wqkHjsGs2Y+B0VFRTZlHL2gY2P9vSe8BqHN2joqSukdZMDfS3ZQwrHkQTf2BIndT8ekKqbesaf6eQDYM7B47ZGKiT3rTNOVP1JNBgCyoLWg03GZ3Sa/+tAwrqXWSkX6KGCgQdPm0O/xN0Bn8FIgXb1IaWkpTH9iCvywfTvMnPk8XLlypfqECmPxs77R5OhHIXuOiVknAmJXgENi9ic2+NSDgOhW9gtUk9LWPICf9p6DU3/yueytJjutRGm+8keiyABAFrQWOCcANrnxJqFOZbRGT13TJ/yGLtBz7DyQJHFv+vxr12DWjGfh/LnaJ2k5wnfrW8dCcv/7HBGhtBwM6Nkj4a3yWzwwqTuHhgAHjmZXO7lv/VdZXLicwuLGu6oq4haVP6qt8qODWVBwhIHY2NhIlj6KBcVbRIuuimVJUJsMxHe9BTreM1Wbyv2lVdxNw6DDyMl/ndHOWQz4OTgPwFG9gjgNAJzod6DSV/VyLxfD1h9PO6qKiPTX2DDYolKLJYLZTv0Y4OcsiBxHcZvKn5UbyABAFjQUJEnqwqsOGQC8DGpTvtWwMYDOgrSoXZOkTsJ7KbRYTi3q5G8QWX9VLaF/VEvA7wNUvWJ/zP4j2RUSb9xyHIpLxH1dsgJ49SfFkiwv9zKbE9IzMydmZWWdTc3I2JqWkTFMJ8tt8BoTK2SBZ3Oryh8LSgYAsqClIMtcBgDOusa111oqEukijgF0FxytMf8ODaKSoP/UNwGXL4orKSHZy4CvF4BOsje14+kknR7qN0O/ZI7LlknsP3yx7NC6X/+l07r/L7IW/yzW4o9Kzcx86Ojx439aFSj380dm5kG8xoyDWNYAmw2yXNFaKZe2hkO3q/yxLGQAIAsaCuz/mMsAaJws1oGMhqghVRgD1hn2j74CYc3bsTPXb7hMcfC0lWD08Xe9MnVUA/bOAHQNrGbxA+M7csHjEADO+kcQXBaotj9/1idyjPHycH5hYRRr8T+DLX7Mu6aAxkFqevrT+UVFkSiLGDWlL3ftNOh0vVOzsnaVi3OLQzIANHSbIiIifJg6rVlQvIUmtFEsS4LuwYChbI19eJxLFcbVJoOmrQLfoFCX6kGZA/jo7WNBaaqAuPZKRa1y+NW+jJPXV5us/zLTGqfCTz5rvb8NFkvP9IyMJNbFv+zMmTP5juaDMijLMJKZITCMGQJbGUZ14xXXQJKWGIuLW6alpf3K0rjdRgaAhm6Z0WjEZh3XlJ6wRL5/VA3RQarUwIDJPxAGPbESfANDwBV/ei8T9J+8FIIiElyRPeVZiQFflecB+IUnAq9b4F/ZMEBhkRk2bT1RSXuuUzOr9Lezbv4xrBXeOC0zc1RaVtb3DJHV2+yXb7MwQ+BzZgj0Y9hRsiTdLUnSNGYUTGLWwBCjt3dYWnr6+JRTpy7xZeM6aTIAXMd9lZz1nBMA0eVqvdCoKrgU4ZkMBKCffdb97uXt59QCSjod9Hx4PjRO4usWdqrSHp4ZzgNgFVMtpVR+WdLpISCGr3dx/5FL8M2O03D5aolyRa5LIsA3rEJ+iIUmrNLvxbr5V7BW+OXrl8X/MuxT6enpH7IhgvnMKFiYkZHxRUpKylXxOTkXkQwA5/JdY24WWeb6Dwtr3r5GfLroeQw0jL4B+k1aDDq9wWmF6/yP6RDXZYjT8qOMamdALwF4qTwMUC8WOyhr18VWim07T8OC1YdtXbY7XpakcWkZGQNYhbychfN2C1LCKgzoqsRQhMsYYP/DLXgyD03gmj7AkzXJupCBiFY9oMd/ZrPhSPYEqaxHi8H/BgwqZ0PwChjwqcUGVABZQYS3ByAnrxgEeP7LZ93wH1RQjE4UM0AGgGLqxArGx8ebGGJzFhRvwTE3KJYlQfdmoNnNd0C7ERNVLURs58GArX9VMyFwxQx460QMe9vO3j/yRtsXnXRFkuWPWHe8al39TiqGZrIhA0Ajt0IqLU1iqnixoHgLjkxULEuC7s9A2+Hj4Ib+96tSEBzv7/XISyDp6JWhCsECQPU13hr+DLz8G4CxvstXfKzmLwkhlDGg8iNTlg3ta2OAjWtxdf/7Bzc2ewcE1ZYNXfdwBrqMehqi26OHU3EFDQqPt874x5n/4lAJSTQDsrodAFZ1/ZomW/cu+ZHljNTMzB0uydtDMyUDQCM3lv3vchkA9UKj8jRSFFLDhQzodHroPX4BhAryB+EbFAoDp68CXPPvwmJR1nYwUGyxPQfEDnG7kgS40gCQpJVMSfaqZL+0CWGADAAhNPKDSJLENcDmHxIudHEtf4kIwVUMoKOg/lOWQb1Q/K6Uci3Qux96+QtoGK4chCSdxkCxRf2sQqK5pinxKGjWGQxv8wCQbFUGyACoyolrYmSZ6z8rbcenSWsfbAcUiAN8BtY93h/yc/hWSJWWFMGmmffRM+Um/1dbJraFX6ZWF8TF/bZmmkvej6zZ/9Uff/zhks8HuqTATsqUDAAnEV1LNnqQpKa1pKnxssViNhVdywMKxEHZM1BazPdxM0tpCT1PbvQ/VZqfB2qH4sKCGt9Dal1kFdVqtbDrMi7jtS4XXxtlT4yOxsqfawWANkpCWhADxIDWGPAAfS7KOt1mDyiH5opABoAGbkmJXh+jATVIBWKAGCAGtMeAJK1NS0sr0p5i7q8RGQAauIc6WY7WgBqkAjFADHgcA25fILNFlt90+1JotABkAGjgxrAHnHoANHAfSAVigBjQGAOStDojIyNVY1p5jDpkAGjgVkqSRAaABu4DqUAMeBoDbl6egyBJU9y8DJpWnwwAbdwel/vX1AYNpAUxQAwQA1YGfgCdrh8b+ye//1Y61PkhA0AdXh1ClQDoPjjEGCUmBoiB2hlwvxQSwCGm9ei0jIxerPK/wI5pU5EBqnhUJNdeaFmSMu1NS+mIAWKAGHBrBiTpKMjyXeXCnay130tfUhKempHRilX+uObfCX4N3ZpFIcqTASCERj4QGWAHHwJJEwPEADFQkQGtnsmyvCktM/OjcmE9a+1vP3by5Bmt6uypepEBoIE7W1RU9BFT4yILtBEDxAAx4MkMmA2yjC18Ty6j25SNDAAN3KpTp04VsLGvJzSgCqlADBADHsGANgvBWv+vH8vMPKZN7eqeVmQAaOSes7GvNUyVN1igjRggBogBT2Rgi6TXU0NHQ3eWDAAN3Yy0jIxHmTrTWXDNFzdYxrQRA8SA+zOgsRKYQZKWGL29h7KxfnLpq6GbQwaAhm4GqsKMgHlmWU5ix3NZOMIC3yfdGABtxAAxQAw4mYFill+aJMuL2fusbVp6+viUlBSMY9G0aYUBMgC0cifK6ZGZmXmcGQJPsnAjCz6lFktQcWlpAwrEAT0D9AzU/gy4niP23jKxkJCamTmBvc9wbX+5NxwdaoUBMgC0cidq0CMrKyv3xIkTORSIA3oG6Blwh2eghtcZXdIQA2QAaOhmkCrEADFADPAyQPLEgL0MkAFgL1OUjhggBogBYoAY8CAGyADwoJtJRSEGiIG6zgCVnxiwnwEyAOznilISA8QAMUAMEAMewwAZAB5zK6kgxAAxUNcZoPITA44wQAaAI2xRWmKAGCAGiAFiwEMYIAPAQ24kFYMYIAbqOgNUfmLAMQbIAHCML0pNDBADxAAxQAx4BANkAHjEbaRCEAPEQF1ngMpPDDjKABkAjjJG6YkBYoAYIAaIAQ9g4P8BAAD//2swyIYAAAAGSURBVAMAdaY6C4UNHeMAAAAASUVORK5CYII=;" vertex="1" parent="1">
          <mxGeometry x="684.48" y="390" width="70" height="70" as="geometry" />
        </mxCell>
        <mxCell id="IlQ_oIKO42jYGwAs0e9v-83" value="Business Analysis" style="text;html=1;align=center;verticalAlign=middle;whiteSpace=wrap;rounded=0;" vertex="1" parent="1">
          <mxGeometry x="678.35" y="300" width="82.26" height="30" as="geometry" />
        </mxCell>
        <mxCell id="IlQ_oIKO42jYGwAs0e9v-84" value="Business Strategy" style="text;html=1;align=center;verticalAlign=middle;whiteSpace=wrap;rounded=0;" vertex="1" parent="1">
          <mxGeometry x="685.95" y="475" width="70" height="30" as="geometry" />
        </mxCell>
        <mxCell id="IlQ_oIKO42jYGwAs0e9v-86" value="&lt;b&gt;&lt;font style=&quot;font-size: 28px;&quot;&gt;High Level Architecture&lt;/font&gt;&lt;/b&gt;" style="rounded=0;whiteSpace=wrap;html=1;" vertex="1" parent="1">
          <mxGeometry x="2" width="818" height="80" as="geometry" />
        </mxCell>
      </root>
    </mxGraphModel>
  </diagram>
</mxfile>
